ChaiSans-Regular.ufo
<glyph name="斜玉" format="2">
	<unicode hex="E000"/>
	<advance width="1000"/>
	<outline>
		<contour>
			<point x="68" y="744" type="line"/>
			<point x="68" y="670" type="line"/>
			<point x="519" y="670" type="line"/>
			<point x="519" y="744" type="line"/>
		</contour>
		<contour>
			<point x="83" y="433" type="line"/>
			<point x="83" y="359" type="line"/>
			<point x="510" y="359" type="line"/>
			<point x="510" y="433" type="line"/>
		</contour>
		<contour>
			<point x="45" y="49" type="curve"/>
			<point x="71" y="-31" type="line"/>
			<point x="198" y="-3"/>
			<point x="374" y="37"/>
			<point x="537" y="75" type="curve"/>
			<point x="530" y="147" type="line"/>
			<point x="353" y="109"/>
			<point x="164" y="70"/>
		</contour>
		<contour>
			<point x="258" y="718" type="line"/>
			<point x="258" y="47" type="line"/>
			<point x="337" y="61" type="line"/>
			<point x="337" y="718" type="line"/>
		</contour>
	</outline>
</glyph>
<glyph name="禺字底" format="2">
	<unicode hex="E005"/>
	<advance width="1000"/>
	<outline>
		<contour>
			<point x="542" y="476" type="line"/>
			<point x="599" y="363"/>
			<point x="669" y="211"/>
			<point x="700" y="123" type="curve"/>
			<point x="770" y="157" type="line"/>
			<point x="735" y="243"/>
			<point x="663" y="392"/>
			<point x="605" y="503" type="curve"/>
		</contour>
		<contour>
			<point x="105" y="650" type="line"/>
			<point x="105" y="-77" type="line"/>
			<point x="180" y="-77" type="line"/>
			<point x="180" y="577" type="line"/>
			<point x="860" y="577" type="line"/>
			<point x="860" y="650" type="line"/>
		</contour>
		<contour>
			<point x="821" y="650" type="line"/>
			<point x="821" y="19" type="line"/>
			<point x="821" y="2"/>
			<point x="816" y="-3"/>
			<point x="798" y="-4" type="curve"/>
			<point x="780" y="-5"/>
			<point x="718" y="-5"/>
			<point x="654" y="-3" type="curve"/>
			<point x="665" y="-25"/>
			<point x="677" y="-60"/>
			<point x="680" y="-81" type="curve"/>
			<point x="762" y="-81"/>
			<point x="820" y="-80"/>
			<point x="853" y="-67" type="curve"/>
			<point x="887" y="-55"/>
			<point x="897" y="-30"/>
			<point x="897" y="17" type="curve"/>
			<point x="897" y="650" type="line"/>
		</contour>
		<contour>
			<point x="295" y="166" type="line"/>
			<point x="322" y="179"/>
			<point x="363" y="186"/>
			<point x="690" y="242" type="curve"/>
			<point x="684" y="259"/>
			<point x="677" y="289"/>
			<point x="674" y="309" type="curve"/>
			<point x="331" y="254" type="line"/>
			<point x="289" y="228" type="line"/>
		</contour>
		<contour>
			<point x="294" y="166" type="line"/>
			<point x="294" y="183"/>
			<point x="358" y="213"/>
			<point x="358" y="213" type="curve"/>
			<point x="358" y="215" type="line"/>
			<point x="436" y="379"/>
			<point x="511" y="608"/>
			<point x="560" y="823" type="curve"/>
			<point x="475" y="841" type="line"/>
			<point x="437" y="637"/>
			<point x="358" y="408"/>
			<point x="332" y="349" type="curve"/>
			<point x="307" y="288"/>
			<point x="287" y="246"/>
			<point x="265" y="239" type="curve"/>
			<point x="274" y="218"/>
			<point x="288" y="179"/>
			<point x="292" y="164" type="curve"/>
		</contour>
	</outline>
</glyph>
<glyph name="候右角" format="2">
	<unicode hex="E007"/>
	<advance width="1000"/>
	<outline>
		<contour>
			<point x="112" y="776" type="line"/>
			<point x="112" y="701" type="line"/>
			<point x="764" y="701" type="line"/>
			<point x="764" y="776" type="line"/>
		</contour>
		<contour>
			<point x="46" y="24" type="line"/>
			<point x="46" y="-49" type="line"/>
			<point x="956" y="-49" type="line"/>
			<point x="956" y="24" type="line"/>
		</contour>
		<contour>
			<point x="736" y="778" type="line"/>
			<point x="731" y="530"/>
			<point x="711" y="186"/>
			<point x="691" y="-12" type="curve"/>
			<point x="771" y="-12" type="line"/>
			<point x="789" y="181"/>
			<point x="807" y="525"/>
			<point x="815" y="778" type="curve"/>
		</contour>
	</outline>
</glyph>
<glyph name="叚右角" format="2">
	<unicode hex="E009"/>
	<advance width="1000"/>
	<outline>
		<contour>
			<point x="230" y="622" type="line"/>
			<point x="230" y="554" type="line"/>
			<point x="703" y="554" type="line"/>
			<point x="703" y="210" type="line"/>
			<point x="227" y="210" type="line"/>
			<point x="227" y="141" type="line"/>
			<point x="778" y="141" type="line"/>
			<point x="778" y="622" type="line"/>
		</contour>
	</outline>
</glyph>
<glyph name="养字头" format="2">
	<unicode hex="E00B"/>
	<advance width="1000"/>
	<outline>
		<contour>
			<point x="100" y="607" type="line"/>
			<point x="100" y="544" type="line"/>
			<point x="901" y="544" type="line"/>
			<point x="901" y="607" type="line"/>
		</contour>
		<contour>
			<point x="148" y="469" type="line"/>
			<point x="148" y="408" type="line"/>
			<point x="848" y="408" type="line"/>
			<point x="848" y="469" type="line"/>
		</contour>
		<contour>
			<point x="53" y="328" type="line"/>
			<point x="53" y="265" type="line"/>
			<point x="932" y="265" type="line"/>
			<point x="932" y="328" type="line"/>
		</contour>
		<contour>
			<point x="253" y="704" type="line"/>
			<point x="279" y="673"/>
			<point x="306" y="629"/>
			<point x="317" y="600" type="curve"/>
			<point x="387" y="626" type="line"/>
			<point x="375" y="655"/>
			<point x="347" y="697"/>
			<point x="319" y="727" type="curve"/>
		</contour>
		<contour>
			<point x="678" y="728" type="line"/>
			<point x="661" y="691"/>
			<point x="627" y="637"/>
			<point x="602" y="603" type="curve"/>
			<point x="670" y="583" type="line"/>
			<point x="696" y="615"/>
			<point x="728" y="661"/>
			<point x="755" y="707" type="curve"/>
		</contour>
		<contour>
			<point x="633" y="319" type="curve"/>
			<point x="571" y="296" type="line"/>
			<point x="643" y="188"/>
			<point x="774" y="97"/>
			<point x="908" y="54" type="curve"/>
			<point x="919" y="74"/>
			<point x="941" y="103"/>
			<point x="958" y="118" type="curve"/>
			<point x="827" y="152"/>
			<point x="697" y="228"/>
		</contour>
		<contour>
			<point x="472" y="588" type="line"/>
			<point x="416" y="341"/>
			<point x="285" y="183"/>
			<point x="33" y="122" type="curve"/>
			<point x="50" y="105"/>
			<point x="72" y="75"/>
			<point x="84" y="54" type="curve"/>
			<point x="345" y="128"/>
			<point x="479" y="294"/>
			<point x="545" y="570" type="curve"/>
		</contour>
	</outline>
</glyph>
<glyph name="冬字底" format="2">
	<unicode hex="E00D"/>
	<advance width="1000"/>
	<outline>
		<contour>
			<point x="236" y="486" type="line"/>
			<point x="504" y="429"/>
			<point x="655" y="377"/>
			<point x="731" y="344" type="curve"/>
			<point x="765" y="412" type="line"/>
			<point x="686" y="443"/>
			<point x="533" y="491"/>
			<point x="268" y="544" type="curve"/>
		</contour>
		<contour>
			<point x="229" y="283" type="line"/>
			<point x="392" y="243"/>
			<point x="612" y="174"/>
			<point x="723" y="127" type="curve"/>
			<point x="759" y="197" type="line"/>
			<point x="643" y="243"/>
			<point x="422" y="307"/>
			<point x="264" y="343" type="curve"/>
		</contour>
	</outline>
</glyph>
<glyph name="卢字头" format="2">
	<unicode hex="E018"/>
	<advance width="1000"/>
	<outline>
		<contour>
			<point x="375" y="838" type="line"/>
			<point x="375" y="-79" type="line"/>
			<point x="455" y="-79" type="line"/>
			<point x="455" y="838" type="line"/>
		</contour>
		<contour>
			<point x="422" y="434" type="line"/>
			<point x="422" y="356" type="line"/>
			<point x="810" y="356" type="line"/>
			<point x="810" y="434" type="line"/>
		</contour>
	</outline>
</glyph>
<glyph name="飮字旁" format="2">
	<unicode hex="E019"/>
	<advance width="1000"/>
	<outline>
		<contour>
			<point x="249" y="757" type="line"/>
			<point x="320" y="707"/>
			<point x="410" y="635"/>
			<point x="453" y="588" type="curve"/>
			<point x="498" y="642" type="line"/>
			<point x="454" y="688"/>
			<point x="362" y="757"/>
			<point x="292" y="804" type="curve"/>
		</contour>
		<contour>
			<point x="223" y="647" type="line"/>
			<point x="241" y="606"/>
			<point x="261" y="552"/>
			<point x="269" y="519" type="curve"/>
			<point x="331" y="543" type="line"/>
			<point x="322" y="574"/>
			<point x="300" y="627"/>
			<point x="282" y="667" type="curve"/>
		</contour>
		<contour>
			<point x="262" y="846" type="line"/>
			<point x="210" y="758"/>
			<point x="116" y="678"/>
			<point x="26" y="627" type="curve"/>
			<point x="38" y="610"/>
			<point x="56" y="572"/>
			<point x="62" y="557" type="curve"/>
			<point x="162" y="621"/>
			<point x="265" y="720"/>
			<point x="327" y="825" type="curve"/>
		</contour>
		<contour>
			<point x="97" y="562" type="line"/>
			<point x="97" y="-69" type="line"/>
			<point x="172" y="-69" type="line"/>
			<point x="172" y="562" type="line"/>
		</contour>
		<contour>
			<point x="118" y="205" type="line"/>
			<point x="118" y="147" type="line"/>
			<point x="473" y="147" type="line"/>
			<point x="473" y="205" type="line"/>
		</contour>
		<contour>
			<point x="115" y="82" type="line"/>
			<point x="115" y="23" type="line"/>
			<point x="480" y="23" type="line"/>
			<point x="480" y="82" type="line"/>
		</contour>
		<contour>
			<point x="125" y="440" type="line"/>
			<point x="125" y="391" type="line"/>
			<point x="410" y="391" type="line"/>
			<point x="410" y="440" type="line"/>
		</contour>
		<contour>
			<point x="122" y="562" type="line"/>
			<point x="122" y="501" type="line"/>
			<point x="392" y="501" type="line"/>
			<point x="392" y="328" type="line"/>
			<point x="122" y="328" type="line"/>
			<point x="122" y="267" type="line"/>
			<point x="464" y="267" type="line"/>
			<point x="464" y="563" type="line"/>
		</contour>
	</outline>
</glyph>
<glyph name="卯字旁" format="2">
	<unicode hex="E01A"/>
	<advance width="1000"/>
	<outline>
		<contour>
			<point x="692" y="605" type="line"/>
			<point x="692" y="347" type="line"/>
			<point x="692" y="192"/>
			<point x="663" y="35"/>
			<point x="406" y="-69" type="curve"/>
			<point x="422" y="-82"/>
			<point x="444" y="-110"/>
			<point x="453" y="-127" type="curve"/>
			<point x="730" y="-13"/>
			<point x="764" y="166"/>
			<point x="764" y="346" type="curve"/>
			<point x="764" y="604" type="line"/>
		</contour>
		<contour>
			<point x="720" y="841" type="line"/>
			<point x="578" y="784"/>
			<point x="387" y="732"/>
			<point x="295" y="706" type="curve"/>
			<point x="343" y="660" type="line"/>
			<point x="437" y="686"/>
			<point x="625" y="730"/>
			<point x="775" y="800" type="curve"/>
		</contour>
		<contour>
			<point x="293" y="127" type="line"/>
			<point x="293" y="154"/>
			<point x="370" y="199"/>
			<point x="370" y="199" type="curve"/>
			<point x="370" y="707" type="line"/>
			<point x="296" y="707" type="line"/>
			<point x="296" y="257" type="line"/>
			<point x="296" y="216"/>
			<point x="276" y="197"/>
			<point x="260" y="189" type="curve"/>
			<point x="271" y="175"/>
			<point x="287" y="145"/>
			<point x="292" y="128" type="curve"/>
		</contour>
		<contour>
			<point x="292" y="128" type="line"/>
			<point x="312" y="144"/>
			<point x="346" y="157"/>
			<point x="731" y="237" type="curve"/>
			<point x="727" y="252"/>
			<point x="722" y="281"/>
			<point x="721" y="300" type="curve"/>
			<point x="318" y="221" type="line"/>
			<point x="285" y="193" type="line"/>
		</contour>
	</outline>
</glyph>
<glyph name="祭右角" format="2">
	<unicode hex="E01F"/>
	<advance width="1000"/>
	<outline>
		<contour>
			<point x="338" y="556" type="line"/>
			<point x="338" y="492" type="line"/>
			<point x="618" y="492" type="line"/>
			<point x="618" y="556" type="line"/>
		</contour>
		<contour>
			<point x="596" y="556" type="line"/>
			<point x="596" y="540" type="line"/>
			<point x="560" y="468"/>
			<point x="486" y="367"/>
			<point x="427" y="307" type="curve"/>
			<point x="441" y="297"/>
			<point x="462" y="276"/>
			<point x="473" y="262" type="curve"/>
			<point x="539" y="329"/>
			<point x="623" y="436"/>
			<point x="676" y="527" type="curve"/>
			<point x="627" y="561" type="line"/>
			<point x="612" y="556" type="line"/>
		</contour>
		<contour>
			<point x="334" y="610" type="curve"/>
			<point x="271" y="596" type="line"/>
			<point x="339" y="339"/>
			<point x="469" y="156"/>
			<point x="691" y="70" type="curve"/>
			<point x="702" y="90"/>
			<point x="723" y="119"/>
			<point x="740" y="134" type="curve"/>
			<point x="525" y="206"/>
			<point x="395" y="378"/>
		</contour>
	</outline>
</glyph>
<glyph name="负字头" format="2">
	<unicode hex="E020"/>
	<advance width="1000"/>
	<outline>
		<contour>
			<point x="418" y="843" type="line"/>
			<point x="364" y="725"/>
			<point x="251" y="588"/>
			<point x="74" y="496" type="curve"/>
			<point x="91" y="483"/>
			<point x="115" y="453"/>
			<point x="125" y="433" type="curve"/>
			<point x="313" y="538"/>
			<point x="434" y="684"/>
			<point x="504" y="826" type="curve"/>
		</contour>
		<contour>
			<point x="422" y="742" type="line"/>
			<point x="368" y="672" type="line"/>
			<point x="745" y="672" type="line"/>
			<point x="745" y="742" type="line"/>
		</contour>
		<contour>
			<point x="728" y="742" type="line"/>
			<point x="728" y="725" type="line"/>
			<point x="689" y="639"/>
			<point x="605" y="510"/>
			<point x="533" y="433" type="curve"/>
			<point x="550" y="424"/>
			<point x="576" y="406"/>
			<point x="591" y="394" type="curve"/>
			<point x="668" y="476"/>
			<point x="762" y="606"/>
			<point x="815" y="711" type="curve"/>
			<point x="761" y="746" type="line"/>
			<point x="747" y="742" type="line"/>
		</contour>
	</outline>
</glyph>
<glyph name="反字框" format="2">
	<unicode hex="E024"/>
	<advance width="1000"/>
	<outline>
		<contour>
			<point x="802" y="828" type="line"/>
			<point x="656" y="779"/>
			<point x="379" y="752"/>
			<point x="155" y="742" type="curve"/>
			<point x="164" y="724"/>
			<point x="173" y="694"/>
			<point x="175" y="675" type="curve"/>
			<point x="402" y="684"/>
			<point x="685" y="710"/>
			<point x="853" y="766" type="curve"/>
		</contour>
		<contour>
			<point x="155" y="744" type="line"/>
			<point x="155" y="473" type="line"/>
			<point x="155" y="307"/>
			<point x="144" y="125"/>
			<point x="41" y="-22" type="curve"/>
			<point x="60" y="-33"/>
			<point x="89" y="-59"/>
			<point x="103" y="-76" type="curve"/>
			<point x="220" y="86"/>
			<point x="233" y="288"/>
			<point x="233" y="474" type="curve"/>
			<point x="233" y="745" type="line"/>
		</contour>
	</outline>
</glyph>
<glyph name="向字框" format="2">
	<unicode hex="E028"/>
	<advance width="1000"/>
	<outline>
		<contour>
			<point x="99" y="667" type="line"/>
			<point x="860" y="668" type="line"/>
			<point x="860" y="594" type="line"/>
			<point x="173" y="594" type="line"/>
			<point x="173" y="-80" type="line"/>
			<point x="99" y="-80" type="line"/>
		</contour>
		<contour>
			<point x="832" y="668" type="line"/>
			<point x="906" y="667" type="line"/>
			<point x="906" y="19" type="line"/>
			<point x="906" y="-54"/>
			<point x="860" y="-68" type="qcurve"/>
			<point x="833" y="-77"/>
			<point x="739" y="-81"/>
			<point x="670" y="-81" type="qcurve"/>
			<point x="662" y="-43"/>
			<point x="644" y="-3" type="qcurve"/>
			<point x="763" y="-6"/>
			<point x="806" y="-4" type="qcurve"/>
			<point x="832" y="-6"/>
			<point x="832" y="21" type="qcurve"/>
		</contour>
		<contour>
			<point x="438" y="842" type="qcurve"/>
			<point x="531" y="827" type="line"/>
			<point x="481" y="710"/>
			<point x="431" y="621" type="qcurve"/>
			<point x="360" y="638" type="line"/>
			<point x="407" y="736"/>
		</contour>
	</outline>
</glyph>
<glyph name="告字头" format="2">
	<unicode hex="E029"/>
	<advance width="1000"/>
	<outline>
		<contour>
			<point x="67" y="464" type="line"/>
			<point x="67" y="394" type="line"/>
			<point x="939" y="394" type="line"/>
			<point x="939" y="464" type="line"/>
		</contour>
		<contour>
			<point x="228" y="693" type="line"/>
			<point x="228" y="624" type="line"/>
			<point x="860" y="624" type="line"/>
			<point x="860" y="693" type="line"/>
		</contour>
		<contour>
			<point x="475" y="840" type="line"/>
			<point x="475" y="428" type="line"/>
			<point x="552" y="428" type="line"/>
			<point x="552" y="840" type="line"/>
		</contour>
		<contour>
			<point x="273" y="816" type="line"/>
			<point x="236" y="705"/>
			<point x="166" y="606"/>
			<point x="82" y="543" type="curve"/>
			<point x="99" y="531"/>
			<point x="128" y="504"/>
			<point x="140" y="490" type="curve"/>
			<point x="226" y="561"/>
			<point x="303" y="672"/>
			<point x="347" y="796" type="curve"/>
		</contour>
	</outline>
</glyph>
<glyph name="囱字框" format="2">
	<unicode hex="E02D"/>
	<advance width="1000"/>
	<outline>
		<contour>
			<point x="106" y="705" type="line"/>
			<point x="106" y="-82" type="line"/>
			<point x="183" y="-82" type="line"/>
			<point x="183" y="635" type="line"/>
			<point x="813" y="635" type="line"/>
			<point x="813" y="-74" type="line"/>
			<point x="893" y="-74" type="line"/>
			<point x="893" y="705" type="line"/>
		</contour>
		<contour>
			<point x="447" y="838" type="line"/>
			<point x="433" y="792"/>
			<point x="406" y="726"/>
			<point x="383" y="682" type="curve"/>
			<point x="453" y="665" type="line"/>
			<point x="478" y="705"/>
			<point x="509" y="765"/>
			<point x="536" y="822" type="curve"/>
		</contour>
		<contour>
			<point x="139" y="51" type="line"/>
			<point x="139" y="-21" type="line"/>
			<point x="859" y="-21" type="line"/>
			<point x="859" y="51" type="line"/>
		</contour>
	</outline>
</glyph>
<glyph name="夏字头" format="2">
	<unicode hex="E033"/>
	<advance width="1001"/>
	<outline>
		<contour>
			<point x="63" y="786" type="line"/>
			<point x="936" y="786" type="line"/>
			<point x="936" y="713" type="line"/>
			<point x="534" y="713" type="line"/>
			<point x="526" y="679"/>
			<point x="507" y="611"/>
			<point x="496" y="581" type="qcurve"/>
			<point x="836" y="582" type="line"/>
			<point x="836" y="-81" type="line"/>
			<point x="758" y="-82" type="line"/>
			<point x="758" y="-20" type="line"/>
			<point x="251" y="-20" type="line"/>
			<point x="251" y="-82" type="line"/>
			<point x="176" y="-82" type="line"/>
			<point x="176" y="581" type="line"/>
			<point x="418" y="581" type="line"/>
			<point x="426" y="610"/>
			<point x="443" y="680"/>
			<point x="449" y="713" type="qcurve"/>
			<point x="63" y="713" type="line"/>
		</contour>
		<contour>
			<point x="251" y="50" type="line"/>
			<point x="251" y="165" type="line"/>
			<point x="758" y="165" type="line"/>
			<point x="758" y="50" type="line"/>
		</contour>
		<contour>
			<point x="251" y="234" type="line"/>
			<point x="251" y="341" type="line"/>
			<point x="758" y="341" type="line"/>
			<point x="758" y="234" type="line"/>
		</contour>
		<contour>
			<point x="251" y="511" type="line"/>
			<point x="758" y="511" type="line"/>
			<point x="758" y="409" type="line"/>
			<point x="251" y="409" type="line"/>
		</contour>
	</outline>
</glyph>
<glyph name="妻字头" format="2">
	<unicode hex="E035"/>
	<advance width="1000"/>
	<outline>
		<contour>
			<point x="50" y="514" type="line"/>
			<point x="50" y="454" type="line"/>
			<point x="949" y="454" type="line"/>
			<point x="949" y="514" type="line"/>
		</contour>
		<contour>
			<point x="73" y="765" type="line"/>
			<point x="73" y="705" type="line"/>
			<point x="920" y="705" type="line"/>
			<point x="920" y="765" type="line"/>
		</contour>
		<contour>
			<point x="456" y="840" type="line"/>
			<point x="456" y="357" type="line"/>
			<point x="530" y="357" type="line"/>
			<point x="530" y="840" type="line"/>
		</contour>
		<contour>
			<point x="155" y="637" type="line"/>
			<point x="155" y="580" type="line"/>
			<point x="761" y="580" type="line"/>
			<point x="761" y="386" type="line"/>
			<point x="149" y="386" type="line"/>
			<point x="149" y="329" type="line"/>
			<point x="835" y="329" type="line"/>
			<point x="835" y="636" type="line"/>
		</contour>
	</outline>
</glyph>
<glyph name="姊字边" format="2">
	<unicode hex="E036"/>
	<advance width="1000"/>
	<outline>
		<contour>
			<point x="782" y="712" type="line"/>
			<point x="634" y="675"/>
			<point x="378" y="646"/>
			<point x="164" y="630" type="curve"/>
			<point x="171" y="612"/>
			<point x="180" y="583"/>
			<point x="182" y="564" type="curve"/>
			<point x="398" y="576"/>
			<point x="656" y="604"/>
			<point x="823" y="644" type="curve"/>
		</contour>
		<contour>
			<point x="828" y="364" type="line"/>
			<point x="828" y="353" type="line"/>
			<point x="815" y="188"/>
			<point x="800" y="122"/>
			<point x="781" y="103" type="curve"/>
			<point x="772" y="95"/>
			<point x="762" y="94"/>
			<point x="745" y="94" type="curve"/>
			<point x="727" y="94"/>
			<point x="680" y="94"/>
			<point x="632" y="99" type="curve"/>
			<point x="644" y="80"/>
			<point x="652" y="50"/>
			<point x="653" y="28" type="curve"/>
			<point x="704" y="25"/>
			<point x="752" y="24"/>
			<point x="777" y="27" type="curve"/>
			<point x="807" y="29"/>
			<point x="825" y="35"/>
			<point x="842" y="55" type="curve"/>
			<point x="870" y="82"/>
			<point x="886" y="155"/>
			<point x="901" y="331" type="curve"/>
			<point x="903" y="342"/>
			<point x="904" y="365"/>
			<point x="904" y="365" type="curve"/>
		</contour>
		<contour>
			<point x="462" y="838" type="line"/>
			<point x="462" y="-80" type="line"/>
			<point x="537" y="-80" type="line"/>
			<point x="537" y="838" type="line"/>
		</contour>
		<contour>
			<point x="450" y="324" type="line"/>
			<point x="364" y="204"/>
			<point x="196" y="92"/>
			<point x="43" y="41" type="curve"/>
			<point x="59" y="25"/>
			<point x="80" y="-4"/>
			<point x="91" y="-23" type="curve"/>
			<point x="246" y="37"/>
			<point x="415" y="158"/>
			<point x="509" y="295" type="curve"/>
		</contour>
		<contour>
			<point x="163" y="628" type="line"/>
			<point x="151" y="523"/>
			<point x="130" y="382"/>
			<point x="112" y="297" type="curve"/>
			<point x="186" y="297" type="line"/>
			<point x="202" y="379"/>
			<point x="222" y="515"/>
			<point x="235" y="622" type="curve"/>
		</contour>
		<contour>
			<point x="152" y="364" type="line"/>
			<point x="152" y="296" type="line"/>
			<point x="844" y="296" type="line"/>
			<point x="844" y="364" type="line"/>
		</contour>
	</outline>
</glyph>
<glyph name="寡字腰" format="2">
	<unicode hex="E03D"/>
	<advance width="1000"/>
	<outline>
		<contour>
			<point x="176" y="649" type="line"/>
			<point x="176" y="595" type="line"/>
			<point x="821" y="595" type="line"/>
			<point x="821" y="649" type="line"/>
		</contour>
		<contour>
			<point x="267" y="457" type="line"/>
			<point x="267" y="418" type="line"/>
			<point x="738" y="418" type="line"/>
			<point x="738" y="457" type="line"/>
		</contour>
		<contour>
			<point x="267" y="374" type="line"/>
			<point x="267" y="335" type="line"/>
			<point x="735" y="335" type="line"/>
			<point x="735" y="374" type="line"/>
		</contour>
		<contour>
			<point x="55" y="285" type="line"/>
			<point x="55" y="225" type="line"/>
			<point x="945" y="225" type="line"/>
			<point x="945" y="285" type="line"/>
		</contour>
		<contour>
			<point x="456" y="635" type="line"/>
			<point x="450" y="605"/>
			<point x="435" y="559"/>
			<point x="424" y="528" type="curve"/>
			<point x="486" y="512" type="line"/>
			<point x="500" y="539"/>
			<point x="516" y="579"/>
			<point x="534" y="618" type="curve"/>
		</contour>
		<contour>
			<point x="216" y="546" type="line"/>
			<point x="216" y="258" type="line"/>
			<point x="287" y="258" type="line"/>
			<point x="287" y="501" type="line"/>
			<point x="717" y="501" type="line"/>
			<point x="717" y="258" type="line"/>
			<point x="790" y="258" type="line"/>
			<point x="790" y="546" type="line"/>
		</contour>
		<contour>
			<point x="289" y="265" type="line"/>
			<point x="238" y="191"/>
			<point x="134" y="127"/>
			<point x="28" y="98" type="curve"/>
			<point x="44" y="85"/>
			<point x="65" y="59"/>
			<point x="75" y="41" type="curve"/>
			<point x="184" y="77"/>
			<point x="290" y="155"/>
			<point x="345" y="243" type="curve"/>
		</contour>
		<contour>
			<point x="714" y="265" type="curve"/>
			<point x="659" y="242" type="line"/>
			<point x="714" y="159"/>
			<point x="818" y="80"/>
			<point x="918" y="42" type="curve"/>
			<point x="929" y="60"/>
			<point x="950" y="85"/>
			<point x="966" y="98" type="curve"/>
			<point x="868" y="128"/>
			<point x="765" y="194"/>
		</contour>
	</outline>
</glyph>
<glyph name="尚字头" format="2">
	<unicode hex="E03E"/>
	<advance width="1000"/>
	<outline>
		<contour>
			<point x="460" y="822" type="line"/>
			<point x="460" y="472" type="line"/>
			<point x="536" y="472" type="line"/>
			<point x="536" y="822" type="line"/>
		</contour>
		<contour>
			<point x="114" y="733" type="line"/>
			<point x="169" y="662"/>
			<point x="222" y="565"/>
			<point x="242" y="500" type="curve"/>
			<point x="315" y="534" type="line"/>
			<point x="294" y="599"/>
			<point x="240" y="693"/>
			<point x="182" y="763" type="curve"/>
		</contour>
		<contour>
			<point x="812" y="769" type="line"/>
			<point x="778" y="693"/>
			<point x="715" y="591"/>
			<point x="666" y="527" type="curve"/>
			<point x="732" y="498" type="line"/>
			<point x="782" y="560"/>
			<point x="844" y="655"/>
			<point x="892" y="739" type="curve"/>
		</contour>
	</outline>
</glyph>
<glyph name="差字头" format="2">
	<unicode hex="E042"/>
	<advance width="1000"/>
	<outline>
		<contour>
			<point x="104" y="712" type="line"/>
			<point x="104" y="647" type="line"/>
			<point x="899" y="647" type="line"/>
			<point x="899" y="712" type="line"/>
		</contour>
		<contour>
			<point x="150" y="561" type="line"/>
			<point x="150" y="500" type="line"/>
			<point x="855" y="500" type="line"/>
			<point x="855" y="561" type="line"/>
		</contour>
		<contour>
			<point x="65" y="406" type="line"/>
			<point x="65" y="341" type="line"/>
			<point x="937" y="341" type="line"/>
			<point x="937" y="406" type="line"/>
		</contour>
		<contour>
			<point x="265" y="821" type="line"/>
			<point x="303" y="775"/>
			<point x="345" y="712"/>
			<point x="364" y="670" type="curve"/>
			<point x="432" y="701" type="line"/>
			<point x="412" y="742"/>
			<point x="370" y="803"/>
			<point x="330" y="848" type="curve"/>
		</contour>
		<contour>
			<point x="662" y="846" type="line"/>
			<point x="638" y="800"/>
			<point x="593" y="734"/>
			<point x="557" y="692" type="curve"/>
			<point x="619" y="669" type="line"/>
			<point x="656" y="708"/>
			<point x="703" y="767"/>
			<point x="742" y="821" type="curve"/>
		</contour>
		<contour>
			<point x="461" y="685" type="line"/>
			<point x="416" y="388"/>
			<point x="297" y="215"/>
			<point x="40" y="125" type="curve"/>
			<point x="57" y="111"/>
			<point x="85" y="81"/>
			<point x="95" y="66" type="curve"/>
			<point x="353" y="172"/>
			<point x="482" y="354"/>
			<point x="536" y="675" type="curve"/>
		</contour>
	</outline>
</glyph>
<glyph name="带无巾" format="2">
	<unicode hex="E045"/>
	<advance width="1000"/>
	<outline>
		<contour>
			<point x="461" y="835" type="line"/>
			<point x="461" y="555" type="line"/>
			<point x="536" y="555" type="line"/>
			<point x="536" y="835" type="line"/>
		</contour>
		<contour>
			<point x="80" y="503" type="line"/>
			<point x="80" y="300" type="line"/>
			<point x="153" y="300" type="line"/>
			<point x="153" y="439" type="line"/>
			<point x="849" y="439" type="line"/>
			<point x="849" y="300" type="line"/>
			<point x="925" y="300" type="line"/>
			<point x="925" y="503" type="line"/>
		</contour>
		<contour>
			<point x="53" y="720" type="line"/>
			<point x="53" y="655" type="line"/>
			<point x="952" y="655" type="line"/>
			<point x="952" y="720" type="line"/>
		</contour>
		<contour>
			<point x="215" y="834" type="line"/>
			<point x="215" y="552" type="line"/>
			<point x="290" y="552" type="line"/>
			<point x="290" y="834" type="line"/>
		</contour>
		<contour>
			<point x="716" y="834" type="line"/>
			<point x="716" y="550" type="line"/>
			<point x="791" y="550" type="line"/>
			<point x="791" y="834" type="line"/>
		</contour>
	</outline>
</glyph>
<glyph name="恭字底" format="2">
	<unicode hex="E051"/>
	<advance width="1000"/>
	<outline>
		<contour>
			<point x="391" y="423" type="line"/>
			<point x="391" y="13" type="line"/>
			<point x="391" y="0"/>
			<point x="387" y="-4"/>
			<point x="372" y="-5" type="curve"/>
			<point x="363" y="-6"/>
			<point x="343" y="-6"/>
			<point x="317" y="-6" type="curve"/>
			<point x="298" y="-6"/>
			<point x="276" y="-6"/>
			<point x="253" y="-5" type="curve"/>
			<point x="263" y="-26"/>
			<point x="274" y="-56"/>
			<point x="278" y="-77" type="curve"/>
			<point x="348" y="-77"/>
			<point x="395" y="-76"/>
			<point x="424" y="-64" type="curve"/>
			<point x="454" y="-53"/>
			<point x="463" y="-32"/>
			<point x="463" y="9" type="curve"/>
			<point x="463" y="420" type="line"/>
		</contour>
		<contour>
			<point x="227" y="309" type="line"/>
			<point x="196" y="231"/>
			<point x="145" y="138"/>
			<point x="78" y="81" type="curve"/>
			<point x="140" y="41" type="line"/>
			<point x="206" y="105"/>
			<point x="256" y="204"/>
			<point x="289" y="286" type="curve"/>
		</contour>
		<contour>
			<point x="539" y="279" type="line"/>
			<point x="588" y="211"/>
			<point x="636" y="119"/>
			<point x="654" y="57" type="curve"/>
			<point x="718" y="86" type="line"/>
			<point x="698" y="147"/>
			<point x="650" y="237"/>
			<point x="598" y="304" type="curve"/>
		</contour>
		<contour>
			<point x="691" y="291" type="line"/>
			<point x="754" y="219"/>
			<point x="820" y="117"/>
			<point x="848" y="50" type="curve"/>
			<point x="911" y="90" type="line"/>
			<point x="882" y="157"/>
			<point x="816" y="254"/>
			<point x="751" y="325" type="curve"/>
		</contour>
	</outline>
</glyph>
<glyph name="牜无丨" format="2">
	<unicode hex="E05B"/>
	<advance width="1000"/>
	<outline>
		<contour>
			<point x="236" y="301" type="curve"/>
			<point x="255" y="223" type="line"/>
			<point x="386" y="251"/>
			<point x="571" y="289"/>
			<point x="742" y="326" type="curve"/>
			<point x="735" y="396" type="line"/>
			<point x="555" y="360"/>
			<point x="360" y="322"/>
		</contour>
		<contour>
			<point x="311" y="783" type="line"/>
			<point x="294" y="662"/>
			<point x="265" y="538"/>
			<point x="220" y="457" type="curve"/>
			<point x="237" y="449"/>
			<point x="269" y="431"/>
			<point x="283" y="421" type="curve"/>
			<point x="328" y="508"/>
			<point x="362" y="641"/>
			<point x="383" y="773" type="curve"/>
		</contour>
		<contour>
			<point x="310" y="653" type="line"/>
			<point x="295" y="581" type="line"/>
			<point x="715" y="581" type="line"/>
			<point x="715" y="653" type="line"/>
		</contour>
	</outline>
</glyph>
<glyph name="拣字边" format="2">
	<unicode hex="E05C"/>
	<advance width="1000"/>
	<outline>
		<contour>
			<point x="652" y="208" type="line"/>
			<point x="698" y="136"/>
			<point x="755" y="38"/>
			<point x="781" y="-19" type="curve"/>
			<point x="846" y="16" type="line"/>
			<point x="817" y="71"/>
			<point x="759" y="167"/>
			<point x="713" y="237" type="curve"/>
		</contour>
		<contour>
			<point x="515" y="559" type="line"/>
			<point x="515" y="16" type="line"/>
			<point x="515" y="2"/>
			<point x="511" y="-3"/>
			<point x="495" y="-4" type="curve"/>
			<point x="480" y="-5"/>
			<point x="427" y="-5"/>
			<point x="371" y="-3" type="curve"/>
			<point x="381" y="-24"/>
			<point x="391" y="-53"/>
			<point x="395" y="-73" type="curve"/>
			<point x="471" y="-73"/>
			<point x="520" y="-72"/>
			<point x="551" y="-61" type="curve"/>
			<point x="581" y="-49"/>
			<point x="591" y="-29"/>
			<point x="591" y="14" type="curve"/>
			<point x="591" y="558" type="line"/>
		</contour>
		<contour>
			<point x="347" y="236" type="line"/>
			<point x="318" y="164"/>
			<point x="259" y="73"/>
			<point x="200" y="15" type="curve"/>
			<point x="216" y="5"/>
			<point x="241" y="-14"/>
			<point x="255" y="-27" type="curve"/>
			<point x="318" y="37"/>
			<point x="380" y="133"/>
			<point x="420" y="216" type="curve"/>
		</contour>
		<contour>
			<point x="244" y="559" type="line"/>
			<point x="244" y="489" type="line"/>
			<point x="550" y="489" type="line"/>
			<point x="550" y="559" type="line"/>
		</contour>
		<contour>
			<point x="283" y="283" type="line"/>
			<point x="292" y="292"/>
			<point x="325" y="297"/>
			<point x="373" y="297" type="curve"/>
			<point x="797" y="297" type="line"/>
			<point x="797" y="365" type="line"/>
			<point x="327" y="365" type="line"/>
			<point x="284" y="342" type="line"/>
		</contour>
		<contour>
			<point x="233" y="724" type="line"/>
			<point x="233" y="654" type="line"/>
			<point x="819" y="654" type="line"/>
			<point x="819" y="724" type="line"/>
		</contour>
		<contour>
			<point x="284" y="283" type="line"/>
			<point x="284" y="298"/>
			<point x="339" y="325"/>
			<point x="339" y="325" type="curve"/>
			<point x="339" y="327" type="line"/>
			<point x="407" y="461"/>
			<point x="474" y="651"/>
			<point x="514" y="828" type="curve"/>
			<point x="440" y="847" type="line"/>
			<point x="407" y="678"/>
			<point x="339" y="491"/>
			<point x="316" y="443" type="curve"/>
			<point x="295" y="393"/>
			<point x="278" y="358"/>
			<point x="259" y="353" type="curve"/>
			<point x="268" y="334"/>
			<point x="280" y="299"/>
			<point x="284" y="284" type="curve"/>
		</contour>
	</outline>
</glyph>
<glyph name="商字头" format="2">
	<unicode hex="E05E"/>
	<advance width="1000"/>
	<outline>
		<contour>
			<point x="118" y="523" type="line"/>
			<point x="118" y="-78" type="line"/>
			<point x="190" y="-78" type="line"/>
			<point x="190" y="459" type="line"/>
			<point x="855" y="459" type="line"/>
			<point x="855" y="522" type="line"/>
		</contour>
		<contour>
			<point x="816" y="522" type="line"/>
			<point x="816" y="3" type="line"/>
			<point x="816" y="-12"/>
			<point x="810" y="-16"/>
			<point x="793" y="-17" type="curve"/>
			<point x="777" y="-18"/>
			<point x="719" y="-19"/>
			<point x="657" y="-17" type="curve"/>
			<point x="667" y="-33"/>
			<point x="676" y="-57"/>
			<point x="680" y="-74" type="curve"/>
			<point x="766" y="-74"/>
			<point x="816" y="-74"/>
			<point x="846" y="-64" type="curve"/>
			<point x="876" y="-54"/>
			<point x="886" y="-36"/>
			<point x="886" y="3" type="curve"/>
			<point x="886" y="522" type="line"/>
		</contour>
		<contour>
			<point x="62" y="731" type="line"/>
			<point x="62" y="666" type="line"/>
			<point x="941" y="666" type="line"/>
			<point x="941" y="731" type="line"/>
		</contour>
		<contour>
			<point x="274" y="642" type="line"/>
			<point x="296" y="605"/>
			<point x="322" y="555"/>
			<point x="335" y="524" type="curve"/>
			<point x="404" y="552" type="line"/>
			<point x="391" y="580"/>
			<point x="362" y="628"/>
			<point x="340" y="663" type="curve"/>
		</contour>
		<contour>
			<point x="657" y="657" type="line"/>
			<point x="638" y="612"/>
			<point x="601" y="546"/>
			<point x="571" y="505" type="curve"/>
			<point x="633" y="487" type="line"/>
			<point x="664" y="525"/>
			<point x="703" y="585"/>
			<point x="736" y="639" type="curve"/>
		</contour>
		<contour>
			<point x="438" y="822" type="line"/>
			<point x="457" y="780"/>
			<point x="480" y="725"/>
			<point x="490" y="690" type="curve"/>
			<point x="566" y="713" type="line"/>
			<point x="555" y="747"/>
			<point x="532" y="800"/>
			<point x="511" y="841" type="curve"/>
		</contour>
	</outline>
</glyph>
<glyph name="帝字头" format="2">
	<unicode hex="E062"/>
	<advance width="1000"/>
	<outline>
		<contour>
			<point x="97" y="736" type="line"/>
			<point x="97" y="668" type="line"/>
			<point x="906" y="668" type="line"/>
			<point x="906" y="736" type="line"/>
		</contour>
		<contour>
			<point x="678" y="670" type="line"/>
			<point x="663" y="624"/>
			<point x="633" y="556"/>
			<point x="610" y="514" type="curve"/>
			<point x="677" y="495" type="line"/>
			<point x="700" y="535"/>
			<point x="729" y="595"/>
			<point x="754" y="650" type="curve"/>
		</contour>
		<contour>
			<point x="251" y="651" type="line"/>
			<point x="278" y="611"/>
			<point x="304" y="555"/>
			<point x="312" y="518" type="curve"/>
			<point x="387" y="540" type="line"/>
			<point x="377" y="577"/>
			<point x="351" y="631"/>
			<point x="322" y="670" type="curve"/>
		</contour>
		<contour>
			<point x="75" y="524" type="line"/>
			<point x="75" y="326" type="line"/>
			<point x="149" y="326" type="line"/>
			<point x="149" y="456" type="line"/>
			<point x="848" y="456" type="line"/>
			<point x="848" y="326" type="line"/>
			<point x="925" y="326" type="line"/>
			<point x="925" y="524" type="line"/>
		</contour>
		<contour>
			<point x="437" y="827" type="line"/>
			<point x="455" y="784"/>
			<point x="469" y="726"/>
			<point x="473" y="689" type="curve"/>
			<point x="552" y="710" type="line"/>
			<point x="546" y="747"/>
			<point x="530" y="803"/>
			<point x="511" y="845" type="curve"/>
		</contour>
	</outline>
</glyph>
<glyph name="丙三" format="2">
	<unicode hex="E063"/>
	<advance width="1000"/>
	<outline>
		<contour>
			<point x="938" y="707" type="line"/>
			<point x="63" y="707" type="line"/>
			<point x="63" y="781" type="line"/>
			<point x="938" y="781" type="line"/>
		</contour>
		<contour>
			<point x="798" y="561" type="line"/>
			<point x="798" y="33" type="line"/>
			<point x="798" y="8"/>
			<point x="773" y="10" type="qcurve"/>
			<point x="735" y="8"/>
			<point x="625" y="10" type="qcurve"/>
			<point x="643" y="-26"/>
			<point x="652" y="-62" type="qcurve"/>
			<point x="717" y="-62"/>
			<point x="802" y="-58"/>
			<point x="827" y="-49" type="qcurve"/>
			<point x="871" y="-37"/>
			<point x="871" y="32" type="qcurve"/>
			<point x="871" y="561" type="line"/>
		</contour>
		<contour>
			<point x="129" y="561" type="line"/>
			<point x="828" y="561" type="line"/>
			<point x="828" y="492" type="line"/>
			<point x="203" y="492" type="line"/>
			<point x="203" y="-62" type="line"/>
			<point x="129" y="-62" type="line"/>
		</contour>
	</outline>
</glyph>
<glyph name="春字头" format="2">
	<unicode hex="E064"/>
	<advance width="1000"/>
	<outline>
		<contour>
			<point x="62" y="337" type="line"/>
			<point x="62" y="273" type="line"/>
			<point x="937" y="273" type="line"/>
			<point x="937" y="337" type="line"/>
		</contour>
		<contour>
			<point x="167" y="490" type="line"/>
			<point x="167" y="429" type="line"/>
			<point x="850" y="429" type="line"/>
			<point x="850" y="490" type="line"/>
		</contour>
		<contour>
			<point x="115" y="635" type="line"/>
			<point x="115" y="572" type="line"/>
			<point x="889" y="572" type="line"/>
			<point x="889" y="635" type="line"/>
		</contour>
		<contour>
			<point x="643" y="326" type="line"/>
			<point x="577" y="305" type="line"/>
			<point x="648" y="182"/>
			<point x="774" y="79"/>
			<point x="912" y="30" type="curve"/>
			<point x="923" y="49"/>
			<point x="944" y="78"/>
			<point x="961" y="93" type="curve"/>
			<point x="828" y="133"/>
			<point x="703" y="223"/>
			<point x="641" y="327" type="curve"/>
		</contour>
		<contour>
			<point x="450" y="780" type="line"/>
			<point x="427" y="531"/>
			<point x="314" y="240"/>
			<point x="51" y="74" type="curve"/>
			<point x="69" y="64"/>
			<point x="95" y="40"/>
			<point x="108" y="23" type="curve"/>
			<point x="377" y="203"/>
			<point x="496" y="507"/>
			<point x="526" y="775" type="curve"/>
		</contour>
	</outline>
</glyph>
<glyph name="曹字头" format="2">
	<unicode hex="E066"/>
	<advance width="1000"/>
	<outline>
		<contour>
			<point x="69" y="600" type="line"/>
			<point x="69" y="537" type="line"/>
			<point x="930" y="537" type="line"/>
			<point x="930" y="600" type="line"/>
		</contour>
		<contour>
			<point x="345" y="675" type="line"/>
			<point x="345" y="69" type="line"/>
			<point x="418" y="69" type="line"/>
			<point x="418" y="675" type="line"/>
		</contour>
		<contour>
			<point x="571" y="675" type="line"/>
			<point x="571" y="67" type="line"/>
			<point x="644" y="67" type="line"/>
			<point x="644" y="675" type="line"/>
		</contour>
		<contour>
			<point x="201" y="213" type="line"/>
			<point x="788" y="213" type="line"/>
			<point x="788" y="113" type="line"/>
			<point x="201" y="113" type="line"/>
		</contour>
		<contour>
			<point x="201" y="379" type="line"/>
			<point x="788" y="379" type="line"/>
			<point x="788" y="278" type="line"/>
			<point x="201" y="278" type="line"/>
		</contour>
		<contour>
			<point x="127" y="434" type="line"/>
			<point x="127" y="43" type="line"/>
			<point x="865" y="43" type="line"/>
			<point x="865" y="434" type="line"/>
		</contour>
	</outline>
</glyph>
<glyph name="曾字头" format="2">
	<unicode hex="E067"/>
	<advance width="1000"/>
	<outline>
		<contour>
			<point x="207" y="651" type="line"/>
			<point x="798" y="651" type="line"/>
			<point x="798" y="453" type="line"/>
			<point x="207" y="453" type="line"/>
		</contour>
		<contour>
			<point x="131" y="711" type="line"/>
			<point x="131" y="393" type="line"/>
			<point x="878" y="393" type="line"/>
			<point x="878" y="711" type="line"/>
		</contour>
		<contour>
			<point x="461" y="669" type="line"/>
			<point x="461" y="424" type="line"/>
			<point x="533" y="424" type="line"/>
			<point x="533" y="669" type="line"/>
		</contour>
		<contour>
			<point x="251" y="608" type="line"/>
			<point x="291" y="568"/>
			<point x="335" y="512"/>
			<point x="353" y="473" type="curve"/>
			<point x="401" y="505" type="line"/>
			<point x="383" y="542"/>
			<point x="339" y="597"/>
			<point x="298" y="636" type="curve"/>
		</contour>
		<contour>
			<point x="690" y="633" type="line"/>
			<point x="665" y="592"/>
			<point x="620" y="531"/>
			<point x="587" y="494" type="curve"/>
			<point x="635" y="469" type="line"/>
			<point x="668" y="504"/>
			<point x="710" y="557"/>
			<point x="744" y="605" type="curve"/>
		</contour>
		<contour>
			<point x="253" y="819" type="line"/>
			<point x="283" y="785"/>
			<point x="317" y="738"/>
			<point x="332" y="708" type="curve"/>
			<point x="399" y="737" type="line"/>
			<point x="383" y="768"/>
			<point x="346" y="813"/>
			<point x="316" y="845" type="curve"/>
		</contour>
		<contour>
			<point x="673" y="848" type="line"/>
			<point x="650" y="804"/>
			<point x="607" y="741"/>
			<point x="572" y="701" type="curve"/>
			<point x="634" y="679" type="line"/>
			<point x="668" y="716"/>
			<point x="712" y="771"/>
			<point x="749" y="823" type="curve"/>
		</contour>
	</outline>
</glyph>
<glyph name="卑六" format="2">
	<unicode hex="E069"/>
	<advance width="1000"/>
	<outline>
		<contour>
			<point x="232" y="381" type="line"/>
			<point x="780" y="381" type="line"/>
			<point x="780" y="269" type="line"/>
			<point x="232" y="269" type="line"/>
		</contour>
		<contour>
			<point x="232" y="552" type="line"/>
			<point x="780" y="552" type="line"/>
			<point x="780" y="442" type="line"/>
			<point x="232" y="442" type="line"/>
		</contour>
		<contour>
			<point x="160" y="616" type="line"/>
			<point x="160" y="205" type="line"/>
			<point x="855" y="205" type="line"/>
			<point x="855" y="616" type="line"/>
		</contour>
		<contour>
			<point x="453" y="717" type="line"/>
			<point x="439" y="679"/>
			<point x="413" y="624"/>
			<point x="389" y="586" type="curve"/>
			<point x="460" y="575" type="line"/>
			<point x="486" y="609"/>
			<point x="518" y="659"/>
			<point x="545" y="710" type="curve"/>
		</contour>
		<contour>
			<point x="461" y="591" type="line"/>
			<point x="461" y="364" type="line"/>
			<point x="461" y="262"/>
			<point x="430" y="148"/>
			<point x="150" y="89" type="curve"/>
			<point x="165" y="74"/>
			<point x="185" y="48"/>
			<point x="194" y="32" type="curve"/>
			<point x="487" y="104"/>
			<point x="535" y="234"/>
			<point x="535" y="363" type="curve"/>
			<point x="535" y="590" type="line"/>
		</contour>
	</outline>
</glyph>
<glyph name="囊字头" format="2">
	<unicode hex="E072"/>
	<advance width="1000"/>
	<outline>
		<contour>
			<point x="457" y="840" type="line"/>
			<point x="457" y="533" type="line"/>
			<point x="531" y="533" type="line"/>
			<point x="531" y="840" type="line"/>
		</contour>
		<contour>
			<point x="80" y="790" type="line"/>
			<point x="80" y="743" type="line"/>
			<point x="912" y="743" type="line"/>
			<point x="912" y="790" type="line"/>
		</contour>
		<contour>
			<point x="239" y="672" type="line"/>
			<point x="760" y="672" type="line"/>
			<point x="760" y="632" type="line"/>
			<point x="239" y="632" type="line"/>
		</contour>
		<contour>
			<point x="170" y="711" type="line"/>
			<point x="170" y="593" type="line"/>
			<point x="832" y="593" type="line"/>
			<point x="832" y="711" type="line"/>
		</contour>
		<contour>
			<point x="57" y="559" type="line"/>
			<point x="57" y="441" type="line"/>
			<point x="124" y="441" type="line"/>
			<point x="124" y="517" type="line"/>
			<point x="861" y="517" type="line"/>
			<point x="861" y="441" type="line"/>
			<point x="930" y="441" type="line"/>
			<point x="930" y="559" type="line"/>
		</contour>
	</outline>
</glyph>
<glyph name="纵两撇" format="2">
	<unicode hex="E077"/>
	<advance width="1000"/>
	<outline>
		<contour>
			<point x="261" y="465" type="qcurve"/>
			<point x="246" y="500"/>
			<point x="207" y="543" type="qcurve"/>
			<point x="501" y="634"/>
			<point x="699" y="779" type="qcurve"/>
			<point x="769" y="732" type="line"/>
			<point x="572" y="579"/>
		</contour>
		<contour>
			<point x="203" y="-47" type="qcurve"/>
			<point x="185" y="3"/>
			<point x="156" y="35" type="qcurve"/>
			<point x="593" y="129"/>
			<point x="793" y="384" type="qcurve"/>
			<point x="867" y="340" type="line"/>
			<point x="648" y="66"/>
		</contour>
	</outline>
</glyph>
<glyph name="乍字底" format="2">
	<unicode hex="E07C"/>
	<advance width="1000"/>
	<outline>
		<contour>
			<point x="445" y="828" type="line"/>
			<point x="445" y="-75" type="line"/>
			<point x="369" y="-75" type="line"/>
			<point x="369" y="828" type="line"/>
		</contour>
		<contour>
			<point x="393" y="294" type="line"/>
			<point x="743" y="294" type="line"/>
			<point x="743" y="218" type="line"/>
			<point x="393" y="218" type="line"/>
		</contour>
		<contour>
			<point x="395" y="593" type="line"/>
			<point x="718" y="593" type="line"/>
			<point x="718" y="517" type="line"/>
			<point x="395" y="517" type="line"/>
		</contour>
	</outline>
</glyph>
<glyph name="非字旁" format="2">
	<unicode hex="E07D"/>
	<advance width="1000"/>
	<outline>
		<contour>
			<point x="308" y="688" type="line"/>
			<point x="308" y="614" type="line"/>
			<point x="614" y="614" type="line"/>
			<point x="614" y="688" type="line"/>
		</contour>
		<contour>
			<point x="324" y="463" type="line"/>
			<point x="324" y="391" type="line"/>
			<point x="612" y="391" type="line"/>
			<point x="612" y="463" type="line"/>
		</contour>
		<contour>
			<point x="582" y="836" type="line"/>
			<point x="582" y="-79" type="line"/>
			<point x="660" y="-79" type="line"/>
			<point x="660" y="836" type="line"/>
		</contour>
		<contour>
			<point x="286" y="235" type="line"/>
			<point x="286" y="161" type="line"/>
			<point x="628" y="161" type="line"/>
			<point x="628" y="235" type="line"/>
		</contour>
	</outline>
</glyph>
<glyph name="非字边" format="2">
	<unicode hex="E080"/>
	<advance width="1000"/>
	<outline>
		<contour>
			<point x="377" y="687" type="line"/>
			<point x="377" y="613" type="line"/>
			<point x="701" y="613" type="line"/>
			<point x="701" y="687" type="line"/>
		</contour>
		<contour>
			<point x="376" y="234" type="line"/>
			<point x="376" y="160" type="line"/>
			<point x="718" y="160" type="line"/>
			<point x="718" y="234" type="line"/>
		</contour>
		<contour>
			<point x="372" y="462" type="line"/>
			<point x="372" y="390" type="line"/>
			<point x="680" y="390" type="line"/>
			<point x="680" y="462" type="line"/>
		</contour>
		<contour>
			<point x="339" y="835" type="line"/>
			<point x="339" y="-80" type="line"/>
			<point x="417" y="-80" type="line"/>
			<point x="417" y="835" type="line"/>
		</contour>
	</outline>
</glyph>
<glyph name="芈二" format="2">
	<unicode hex="E081"/>
	<advance width="1000"/>
	<outline>
		<contour>
			<point x="224" y="463" type="line"/>
			<point x="224" y="391" type="line"/>
			<point x="512" y="391" type="line"/>
			<point x="512" y="463" type="line"/>
		</contour>
		<contour>
			<point x="482" y="836" type="line"/>
			<point x="482" y="-79" type="line"/>
			<point x="560" y="-79" type="line"/>
			<point x="560" y="836" type="line"/>
		</contour>
	</outline>
</glyph>
<glyph name="木无十" format="2">
	<unicode hex="E087"/>
	<advance width="1000"/>
	<outline>
		<contour>
			<point x="443" y="557" type="line"/>
			<point x="358" y="371"/>
			<point x="193" y="181"/>
			<point x="28" y="92" type="curve"/>
			<point x="46" y="77"/>
			<point x="71" y="48"/>
			<point x="84" y="29" type="curve"/>
			<point x="252" y="131"/>
			<point x="414" y="328"/>
			<point x="507" y="536" type="curve"/>
		</contour>
		<contour>
			<point x="553" y="557" type="line"/>
			<point x="489" y="534" type="line"/>
			<point x="584" y="334"/>
			<point x="748" y="134"/>
			<point x="911" y="31" type="curve"/>
			<point x="924" y="51"/>
			<point x="950" y="80"/>
			<point x="969" y="95" type="curve"/>
			<point x="808" y="185"/>
			<point x="639" y="374"/>
			<point x="552" y="555" type="curve"/>
		</contour>
	</outline>
</glyph>
<glyph name="重字框" format="2">
	<unicode hex="E08F"/>
	<advance width="1000"/>
	<outline>
		<contour>
			<point x="52" y="13" type="line"/>
			<point x="52" y="-49" type="line"/>
			<point x="949" y="-49" type="line"/>
			<point x="949" y="13" type="line"/>
		</contour>
		<contour>
			<point x="57" y="663" type="line"/>
			<point x="57" y="601" type="line"/>
			<point x="943" y="601" type="line"/>
			<point x="943" y="663" type="line"/>
		</contour>
		<contour>
			<point x="126" y="160" type="line"/>
			<point x="126" y="100" type="line"/>
			<point x="885" y="100" type="line"/>
			<point x="885" y="160" type="line"/>
		</contour>
		<contour>
			<point x="458" y="764" type="line"/>
			<point x="458" y="-16" type="line"/>
			<point x="533" y="-16" type="line"/>
			<point x="533" y="764" type="line"/>
		</contour>
		<contour>
			<point x="806" y="835" type="line"/>
			<point x="648" y="806"/>
			<point x="365" y="788"/>
			<point x="132" y="782" type="curve"/>
			<point x="139" y="766"/>
			<point x="147" y="740"/>
			<point x="148" y="722" type="curve"/>
			<point x="382" y="727"/>
			<point x="667" y="745"/>
			<point x="847" y="777" type="curve"/>
		</contour>
	</outline>
</glyph>
<glyph name="疏字旁" format="2">
	<unicode hex="E091"/>
	<advance width="1000"/>
	<outline>
		<contour>
			<point x="99" y="777" type="line"/>
			<point x="99" y="710" type="line"/>
			<point x="507" y="710" type="line"/>
			<point x="507" y="777" type="line"/>
		</contour>
		<contour>
			<point x="122" y="511" type="line"/>
			<point x="122" y="14" type="line"/>
			<point x="189" y="14" type="line"/>
			<point x="189" y="511" type="line"/>
		</contour>
		<contour>
			<point x="38" y="29" type="curve"/>
			<point x="60" y="-41" type="line"/>
			<point x="195" y="-13"/>
			<point x="387" y="27"/>
			<point x="564" y="66" type="curve"/>
			<point x="558" y="133" type="line"/>
			<point x="370" y="94"/>
			<point x="167" y="53"/>
		</contour>
		<contour>
			<point x="329" y="418" type="line"/>
			<point x="329" y="351" type="line"/>
			<point x="547" y="351" type="line"/>
			<point x="547" y="418" type="line"/>
		</contour>
		<contour>
			<point x="482" y="776" type="line"/>
			<point x="482" y="760" type="line"/>
			<point x="443" y="706"/>
			<point x="364" y="630"/>
			<point x="299" y="586" type="curve"/>
			<point x="312" y="575"/>
			<point x="332" y="555"/>
			<point x="341" y="541" type="curve"/>
			<point x="416" y="591"/>
			<point x="505" y="670"/>
			<point x="565" y="744" type="curve"/>
			<point x="516" y="780" type="line"/>
			<point x="500" y="776" type="line"/>
		</contour>
		<contour>
			<point x="299" y="585" type="line"/>
			<point x="299" y="42" type="line"/>
			<point x="369" y="53" type="line"/>
			<point x="369" y="584" type="line"/>
		</contour>
	</outline>
</glyph>
<glyph name="美字头" format="2">
	<unicode hex="E093"/>
	<advance width="1000"/>
	<outline>
		<contour>
			<point x="460" y="637" type="line"/>
			<point x="460" y="191" type="line"/>
			<point x="539" y="191" type="line"/>
			<point x="539" y="637" type="line"/>
		</contour>
		<contour>
			<point x="109" y="668" type="line"/>
			<point x="109" y="595" type="line"/>
			<point x="900" y="595" type="line"/>
			<point x="900" y="668" type="line"/>
		</contour>
		<contour>
			<point x="158" y="451" type="line"/>
			<point x="158" y="379" type="line"/>
			<point x="840" y="379" type="line"/>
			<point x="840" y="451" type="line"/>
		</contour>
		<contour>
			<point x="56" y="227" type="line"/>
			<point x="56" y="154" type="line"/>
			<point x="948" y="154" type="line"/>
			<point x="948" y="227" type="line"/>
		</contour>
		<contour>
			<point x="223" y="813" type="line"/>
			<point x="257" y="766"/>
			<point x="292" y="702"/>
			<point x="307" y="661" type="curve"/>
			<point x="378" y="690" type="line"/>
			<point x="362" y="731"/>
			<point x="325" y="792"/>
			<point x="291" y="838" type="curve"/>
		</contour>
		<contour>
			<point x="710" y="842" type="line"/>
			<point x="692" y="785"/>
			<point x="655" y="703"/>
			<point x="626" y="652" type="curve"/>
			<point x="691" y="631" type="line"/>
			<point x="721" y="679"/>
			<point x="759" y="754"/>
			<point x="791" y="819" type="curve"/>
		</contour>
	</outline>
</glyph>
<glyph name="歺头" format="2">
	<unicode hex="E098"/>
	<advance width="1000"/>
	<outline>
		<contour>
			<point x="216" y="591" type="line"/>
			<point x="216" y="539" type="line"/>
			<point x="787" y="539" type="line"/>
			<point x="787" y="591" type="line"/>
		</contour>
		<contour>
			<point x="497" y="788" type="line"/>
			<point x="497" y="742" type="line"/>
			<point x="841" y="742" type="line"/>
			<point x="841" y="788" type="line"/>
		</contour>
		<contour>
			<point x="86" y="689" type="line"/>
			<point x="86" y="534" type="line"/>
			<point x="158" y="534" type="line"/>
			<point x="158" y="638" type="line"/>
			<point x="842" y="638" type="line"/>
			<point x="842" y="534" type="line"/>
			<point x="917" y="534" type="line"/>
			<point x="917" y="689" type="line"/>
		</contour>
		<contour>
			<point x="454" y="841" type="line"/>
			<point x="454" y="657" type="line"/>
			<point x="529" y="657" type="line"/>
			<point x="529" y="841" type="line"/>
		</contour>
	</outline>
</glyph>
<glyph name="竹头" format="2">
	<unicode hex="E09E"/>
	<advance width="1000"/>
	<outline>
		<contour>
			<point x="193" y="730" type="line"/>
			<point x="193" y="661" type="line"/>
			<point x="503" y="661" type="line"/>
			<point x="503" y="730" type="line"/>
		</contour>
		<contour>
			<point x="586" y="730" type="line"/>
			<point x="586" y="661" type="line"/>
			<point x="960" y="661" type="line"/>
			<point x="960" y="730" type="line"/>
		</contour>
		<contour>
			<point x="220" y="852" type="line"/>
			<point x="178" y="733"/>
			<point x="106" y="620"/>
			<point x="23" y="547" type="curve"/>
			<point x="41" y="537"/>
			<point x="72" y="517"/>
			<point x="86" y="505" type="curve"/>
			<point x="167" y="583"/>
			<point x="245" y="704"/>
			<point x="293" y="832" type="curve"/>
		</contour>
		<contour>
			<point x="620" y="849" type="line"/>
			<point x="586" y="729"/>
			<point x="525" y="617"/>
			<point x="448" y="544" type="curve"/>
			<point x="466" y="535"/>
			<point x="498" y="514"/>
			<point x="513" y="502" type="curve"/>
			<point x="587" y="581"/>
			<point x="654" y="702"/>
			<point x="693" y="832" type="curve"/>
		</contour>
		<contour>
			<point x="255" y="682" type="line"/>
			<point x="289" y="622"/>
			<point x="325" y="542"/>
			<point x="338" y="493" type="curve"/>
			<point x="405" y="518" type="line"/>
			<point x="390" y="568"/>
			<point x="352" y="646"/>
			<point x="317" y="705" type="curve"/>
		</contour>
		<contour>
			<point x="668" y="682" type="line"/>
			<point x="714" y="623"/>
			<point x="765" y="543"/>
			<point x="787" y="492" type="curve"/>
			<point x="854" y="522" type="line"/>
			<point x="831" y="572"/>
			<point x="778" y="650"/>
			<point x="731" y="707" type="curve"/>
		</contour>
	</outline>
</glyph>
<glyph name="曾字头无丷" format="2">
	<unicode hex="E0A9"/>
	<advance width="1000"/>
	<outline>
		<contour>
			<point x="207" y="500" type="line"/>
			<point x="798" y="500" type="line"/>
			<point x="798" y="270" type="line"/>
			<point x="207" y="270" type="line"/>
		</contour>
		<contour>
			<point x="131" y="560" type="line"/>
			<point x="131" y="210" type="line"/>
			<point x="878" y="210" type="line"/>
			<point x="878" y="560" type="line"/>
		</contour>
		<contour>
			<point x="461" y="518" type="line"/>
			<point x="461" y="241" type="line"/>
			<point x="533" y="241" type="line"/>
			<point x="533" y="518" type="line"/>
		</contour>
		<contour>
			<point x="251" y="457" type="line"/>
			<point x="291" y="385"/>
			<point x="335" y="329"/>
			<point x="353" y="290" type="curve"/>
			<point x="401" y="322" type="line"/>
			<point x="383" y="359"/>
			<point x="339" y="414"/>
			<point x="298" y="485" type="curve"/>
		</contour>
		<contour>
			<point x="690" y="482" type="line"/>
			<point x="665" y="409"/>
			<point x="620" y="348"/>
			<point x="587" y="311" type="curve"/>
			<point x="635" y="286" type="line"/>
			<point x="668" y="321"/>
			<point x="710" y="374"/>
			<point x="744" y="454" type="curve"/>
		</contour>
	</outline>
</glyph>
<glyph name="至字头" format="2">
	<unicode hex="E0AE"/>
	<advance width="1000"/>
	<outline>
		<contour>
			<point x="77" y="623" type="line"/>
			<point x="77" y="552" type="line"/>
			<point x="917" y="552" type="line"/>
			<point x="917" y="623" type="line"/>
		</contour>
		<contour>
			<point x="595" y="470" type="line"/>
			<point x="687" y="400"/>
			<point x="797" y="297"/>
			<point x="847" y="230" type="curve"/>
			<point x="912" y="276" type="line"/>
			<point x="858" y="344"/>
			<point x="745" y="442"/>
			<point x="654" y="509" type="curve"/>
		</contour>
		<contour>
			<point x="147" y="262" type="line"/>
			<point x="147" y="279"/>
			<point x="205" y="302"/>
			<point x="205" y="302" type="curve"/>
			<point x="205" y="303" type="line"/>
			<point x="289" y="370"/>
			<point x="381" y="470"/>
			<point x="463" y="580" type="curve"/>
			<point x="380" y="604" type="line"/>
			<point x="315" y="506"/>
			<point x="223" y="410"/>
			<point x="193" y="384" type="curve"/>
			<point x="166" y="358"/>
			<point x="144" y="341"/>
			<point x="124" y="337" type="curve"/>
			<point x="132" y="317"/>
			<point x="145" y="279"/>
			<point x="149" y="262" type="curve"/>
		</contour>
		<contour>
			<point x="149" y="262" type="line"/>
			<point x="187" y="275"/>
			<point x="242" y="277"/>
			<point x="808" y="304" type="curve"/>
			<point x="804" y="319"/>
			<point x="798" y="348"/>
			<point x="796" y="368" type="curve"/>
			<point x="203" y="344" type="line"/>
			<point x="150" y="317" type="line"/>
		</contour>
	</outline>
</glyph>
<glyph name="亦字底无八" format="2">
	<unicode hex="E0BA"/>
	<advance width="1000"/>
	<outline>
		<contour>
			<point x="600" y="676" type="line"/>
			<point x="600" y="76" type="line"/>
			<point x="600" y="59"/>
			<point x="595" y="54"/>
			<point x="577" y="53" type="curve"/>
			<point x="559" y="52"/>
			<point x="499" y="52"/>
			<point x="433" y="54" type="curve"/>
			<point x="444" y="32"/>
			<point x="455" y="-1"/>
			<point x="459" y="-22" type="curve"/>
			<point x="544" y="-22"/>
			<point x="599" y="-21"/>
			<point x="633" y="-8" type="curve"/>
			<point x="666" y="4"/>
			<point x="677" y="27"/>
			<point x="677" y="75" type="curve"/>
			<point x="677" y="675" type="line"/>
		</contour>
		<contour>
			<point x="358" y="679" type="line"/>
			<point x="358" y="534" type="line"/>
			<point x="358" y="378"/>
			<point x="338" y="176"/>
			<point x="122" y="26" type="curve"/>
			<point x="140" y="14"/>
			<point x="166" y="-12"/>
			<point x="178" y="-29" type="curve"/>
			<point x="409" y="134"/>
			<point x="433" y="358"/>
			<point x="433" y="533" type="curve"/>
			<point x="433" y="679" type="line"/>
		</contour>
	</outline>
</glyph>
<glyph name="尔字头" format="2">
	<unicode hex="E0BC"/>
	<advance width="1000"/>
	<outline>
		<contour>
			<point x="299" y="637" type="line"/>
			<point x="241" y="485"/>
			<point x="146" y="336"/>
			<point x="40" y="242" type="curve"/>
			<point x="61" y="232"/>
			<point x="97" y="207"/>
			<point x="112" y="193" type="curve"/>
			<point x="214" y="295"/>
			<point x="314" y="452"/>
			<point x="380" y="615" type="curve"/>
		</contour>
		<contour>
			<point x="236" y="460" type="line"/>
			<point x="236" y="387" type="line"/>
			<point x="896" y="387" type="line"/>
			<point x="896" y="460" type="line"/>
		</contour>
		<contour>
			<point x="872" y="460" type="line"/>
			<point x="872" y="445" type="line"/>
			<point x="847" y="374"/>
			<point x="804" y="286"/>
			<point x="764" y="233" type="curve"/>
			<point x="831" y="207" type="line"/>
			<point x="876" y="265"/>
			<point x="924" y="359"/>
			<point x="958" y="442" type="curve"/>
			<point x="901" y="463" type="line"/>
			<point x="888" y="459" type="line"/>
		</contour>
	</outline>
</glyph>
<glyph name="㠯三" format="2">
	<unicode hex="E0BD"/>
	<advance width="1000"/>
	<outline>
		<contour>
			<point x="201" y="648" type="line"/>
			<point x="201" y="-18" type="line"/>
			<point x="277" y="-18" type="line"/>
			<point x="277" y="648" type="line"/>
		</contour>
		<contour>
			<point x="239" y="648" type="line"/>
			<point x="239" y="582" type="line"/>
			<point x="720" y="582" type="line"/>
			<point x="720" y="457" type="line"/>
			<point x="239" y="457" type="line"/>
			<point x="239" y="391" type="line"/>
			<point x="795" y="391" type="line"/>
			<point x="795" y="647" type="line"/>
		</contour>
	</outline>
</glyph>
<glyph name="足旁" format="2">
	<unicode hex="E0C6"/>
	<advance width="1000"/>
	<outline>
		<contour>
			<point x="150" y="722" type="line"/>
			<point x="150" y="651" type="line"/>
			<point x="826" y="651" type="line"/>
			<point x="826" y="722" type="line"/>
		</contour>
		<contour>
			<point x="463" y="569" type="line"/>
			<point x="463" y="-75" type="line"/>
			<point x="533" y="-75" type="line"/>
			<point x="533" y="569" type="line"/>
		</contour>
		<contour>
			<point x="141" y="167" type="line"/>
			<point x="157" y="94" type="line"/>
			<point x="259" y="114"/>
			<point x="396" y="142"/>
			<point x="828" y="168" type="curve"/>
			<point x="824" y="234" type="line"/>
			<point x="382" y="208"/>
			<point x="237" y="182"/>
			<point x="140" y="167" type="curve"/>
		</contour>
		<contour>
			<point x="181" y="332" type="line"/>
			<point x="181" y="347"/>
			<point x="231" y="372"/>
			<point x="231" y="372" type="curve"/>
			<point x="231" y="374" type="line"/>
			<point x="304" y="484"/>
			<point x="379" y="627"/>
			<point x="467" y="824" type="curve"/>
			<point x="394" y="839" type="line"/>
			<point x="315" y="652"/>
			<point x="250" y="507"/>
			<point x="216" y="470" type="curve"/>
			<point x="187" y="438"/>
			<point x="174" y="401"/>
			<point x="157" y="396" type="curve"/>
			<point x="165" y="378"/>
			<point x="176" y="344"/>
			<point x="180" y="329" type="curve"/>
		</contour>
		<contour>
			<point x="180" y="329" type="line"/>
			<point x="188" y="337"/>
			<point x="219" y="343"/>
			<point x="253" y="343" type="curve"/>
			<point x="815" y="343" type="line"/>
			<point x="815" y="411" type="line"/>
			<point x="221" y="411" type="line"/>
			<point x="180" y="391" type="line"/>
		</contour>
	</outline>
</glyph>
<glyph name="追字心" format="2">
	<unicode hex="E0CB"/>
	<advance width="1000"/>
	<outline>
		<contour>
			<point x="457" y="840" type="line"/>
			<point x="445" y="794"/>
			<point x="418" y="727"/>
			<point x="396" y="683" type="curve"/>
			<point x="460" y="667" type="line"/>
			<point x="487" y="709"/>
			<point x="520" y="770"/>
			<point x="547" y="827" type="curve"/>
		</contour>
		<contour>
			<point x="224" y="708" type="line"/>
			<point x="224" y="641" type="line"/>
			<point x="731" y="641" type="line"/>
			<point x="731" y="477" type="line"/>
			<point x="224" y="477" type="line"/>
			<point x="224" y="410" type="line"/>
			<point x="805" y="410" type="line"/>
			<point x="805" y="708" type="line"/>
		</contour>
		<contour>
			<point x="222" y="297" type="line"/>
			<point x="222" y="231" type="line"/>
			<point x="780" y="231" type="line"/>
			<point x="780" y="-74" type="line"/>
			<point x="855" y="-74" type="line"/>
			<point x="855" y="298" type="line"/>
		</contour>
		<contour>
			<point x="225" y="52" type="line"/>
			<point x="225" y="-15" type="line"/>
			<point x="813" y="-15" type="line"/>
			<point x="813" y="52" type="line"/>
		</contour>
		<contour>
			<point x="184" y="709" type="line"/>
			<point x="184" y="-80" type="line"/>
			<point x="260" y="-80" type="line"/>
			<point x="260" y="709" type="line"/>
		</contour>
	</outline>
</glyph>
<glyph name="皮三" format="2">
	<unicode hex="E0CE"/>
	<advance width="1000"/>
	<outline>
		<contour>
			<point x="187" y="703" type="line"/>
			<point x="187" y="631" type="line"/>
			<point x="860" y="631" type="line"/>
			<point x="860" y="703" type="line"/>
		</contour>
		<contour>
			<point x="488" y="841" type="line"/>
			<point x="488" y="419" type="line"/>
			<point x="565" y="419" type="line"/>
			<point x="565" y="841" type="line"/>
		</contour>
		<contour>
			<point x="147" y="703" type="line"/>
			<point x="147" y="456" type="line"/>
			<point x="147" y="311"/>
			<point x="135" y="113"/>
			<point x="28" y="-28" type="curve"/>
			<point x="45" y="-37"/>
			<point x="76" y="-63"/>
			<point x="88" y="-77" type="curve"/>
			<point x="204" y="73"/>
			<point x="222" y="298"/>
			<point x="222" y="454" type="curve"/>
			<point x="222" y="702" type="line"/>
		</contour>
		<contour>
			<point x="842" y="702" type="line"/>
			<point x="842" y="689" type="line"/>
			<point x="822" y="626"/>
			<point x="791" y="548"/>
			<point x="765" y="500" type="curve"/>
			<point x="834" y="479" type="line"/>
			<point x="864" y="531"/>
			<point x="899" y="615"/>
			<point x="927" y="689" type="curve"/>
			<point x="870" y="705" type="line"/>
			<point x="856" y="702" type="line"/>
		</contour>
	</outline>
</glyph>
<glyph name="雨头" format="2">
	<unicode hex="E0D0"/>
	<advance width="1000"/>
	<outline>
		<contour>
			<point x="134" y="787" type="line"/>
			<point x="134" y="726" type="line"/>
			<point x="865" y="726" type="line"/>
			<point x="865" y="787" type="line"/>
		</contour>
		<contour>
			<point x="193" y="532" type="line"/>
			<point x="193" y="478" type="line"/>
			<point x="410" y="478" type="line"/>
			<point x="410" y="532" type="line"/>
		</contour>
		<contour>
			<point x="172" y="416" type="line"/>
			<point x="172" y="362" type="line"/>
			<point x="411" y="362" type="line"/>
			<point x="411" y="416" type="line"/>
		</contour>
		<contour>
			<point x="584" y="416" type="line"/>
			<point x="584" y="362" type="line"/>
			<point x="831" y="362" type="line"/>
			<point x="831" y="416" type="line"/>
		</contour>
		<contour>
			<point x="584" y="532" type="line"/>
			<point x="584" y="478" type="line"/>
			<point x="807" y="478" type="line"/>
			<point x="807" y="532" type="line"/>
		</contour>
		<contour>
			<point x="461" y="764" type="line"/>
			<point x="461" y="333" type="line"/>
			<point x="535" y="333" type="line"/>
			<point x="535" y="764" type="line"/>
		</contour>
		<contour>
			<point x="77" y="658" type="line"/>
			<point x="77" y="440" type="line"/>
			<point x="145" y="440" type="line"/>
			<point x="145" y="596" type="line"/>
			<point x="855" y="596" type="line"/>
			<point x="855" y="440" type="line"/>
			<point x="926" y="440" type="line"/>
			<point x="926" y="658" type="line"/>
		</contour>
	</outline>
</glyph>
<glyph name="青字底" format="2">
	<unicode hex="E0D2"/>
	<advance width="1000"/>
	<outline>
		<contour>
			<point x="315" y="786" type="line"/>
			<point x="315" y="713" type="line"/>
			<point x="678" y="713" type="line"/>
			<point x="678" y="786" type="line"/>
		</contour>
		<contour>
			<point x="315" y="546" type="line"/>
			<point x="315" y="474" type="line"/>
			<point x="682" y="474" type="line"/>
			<point x="682" y="546" type="line"/>
		</contour>
		<contour>
			<point x="314" y="307" type="line"/>
			<point x="314" y="234" type="line"/>
			<point x="680" y="234" type="line"/>
			<point x="680" y="307" type="line"/>
		</contour>
		<contour>
			<point x="649" y="786" type="line"/>
			<point x="649" y="31" type="line"/>
			<point x="649" y="15"/>
			<point x="643" y="10"/>
			<point x="627" y="10" type="curve"/>
			<point x="618" y="10"/>
			<point x="600" y="9"/>
			<point x="577" y="9" type="curve"/>
			<point x="554" y="9"/>
			<point x="525" y="10"/>
			<point x="496" y="11" type="curve"/>
			<point x="508" y="-10"/>
			<point x="520" y="-46"/>
			<point x="524" y="-68" type="curve"/>
			<point x="602" y="-68"/>
			<point x="653" y="-66"/>
			<point x="685" y="-53" type="curve"/>
			<point x="715" y="-40"/>
			<point x="726" y="-16"/>
			<point x="726" y="31" type="curve"/>
			<point x="726" y="787" type="line"/>
		</contour>
		<contour>
			<point x="273" y="786" type="line"/>
			<point x="273" y="-77" type="line"/>
			<point x="353" y="-77" type="line"/>
			<point x="353" y="786" type="line"/>
		</contour>
	</outline>
</glyph>
<glyph name="风省" format="2">
	<unicode hex="E0D6"/>
	<advance width="1000"/>
	<outline>
		<contour>
			<point x="211" y="773" type="line"/>
			<point x="211" y="701" type="line"/>
			<point x="763" y="701" type="line"/>
			<point x="763" y="773" type="line"/>
		</contour>
		<contour>
			<point x="179" y="773" type="line"/>
			<point x="179" y="512" type="line"/>
			<point x="179" y="348"/>
			<point x="166" y="127"/>
			<point x="35" y="-31" type="curve"/>
			<point x="51" y="-40"/>
			<point x="82" y="-66"/>
			<point x="94" y="-81" type="curve"/>
			<point x="234" y="86"/>
			<point x="254" y="337"/>
			<point x="254" y="513" type="curve"/>
			<point x="254" y="775" type="line"/>
		</contour>
		<contour>
			<point x="728" y="775" type="line"/>
			<point x="729" y="255"/>
			<point x="729" y="-76"/>
			<point x="881" y="-76" type="curve"/>
			<point x="943" y="-76"/>
			<point x="959" y="-29"/>
			<point x="966" y="134" type="curve"/>
			<point x="951" y="144"/>
			<point x="930" y="164"/>
			<point x="916" y="182" type="curve"/>
			<point x="913" y="79"/>
			<point x="907" y="1"/>
			<point x="888" y="1" type="curve"/>
			<point x="816" y="1"/>
			<point x="801" y="239"/>
			<point x="801" y="608" type="curve"/>
			<point x="801" y="661"/>
			<point x="801" y="717"/>
			<point x="802" y="775" type="curve"/>
		</contour>
	</outline>
</glyph>
<glyph name="龠字腰" format="2">
	<unicode hex="E0E4"/>
	<advance width="1000"/>
	<outline>
		<contour>
			<point x="193" y="475" type="line"/>
			<point x="286" y="475" type="line"/>
			<point x="286" y="385" type="line"/>
			<point x="193" y="385" type="line"/>
		</contour>
		<contour>
			<point x="137" y="524" type="line"/>
			<point x="137" y="336" type="line"/>
			<point x="343" y="336" type="line"/>
			<point x="343" y="524" type="line"/>
		</contour>
		<contour>
			<point x="448" y="475" type="line"/>
			<point x="546" y="475" type="line"/>
			<point x="546" y="385" type="line"/>
			<point x="448" y="385" type="line"/>
		</contour>
		<contour>
			<point x="393" y="524" type="line"/>
			<point x="393" y="336" type="line"/>
			<point x="604" y="336" type="line"/>
			<point x="604" y="524" type="line"/>
		</contour>
		<contour>
			<point x="709" y="475" type="line"/>
			<point x="806" y="475" type="line"/>
			<point x="806" y="385" type="line"/>
			<point x="709" y="385" type="line"/>
		</contour>
		<contour>
			<point x="654" y="524" type="line"/>
			<point x="654" y="336" type="line"/>
			<point x="864" y="336" type="line"/>
			<point x="864" y="524" type="line"/>
		</contour>
	</outline>
</glyph>
<glyph name="癶右半" format="2">
	<unicode hex="E0E6"/>
	<advance width="1000"/>
	<outline>
		<contour>
			<point x="379" y="675" type="line"/>
			<point x="306" y="657" type="line"/>
			<point x="427" y="419"/>
			<point x="555" y="214"/>
			<point x="739" y="112" type="curve"/>
			<point x="752" y="133"/>
			<point x="778" y="165"/>
			<point x="797" y="180" type="curve"/>
			<point x="621" y="267"/>
			<point x="491" y="461"/>
			<point x="380" y="674" type="curve"/>
		</contour>
		<contour>
			<point x="699" y="655" type="line"/>
			<point x="620" y="594"/>
			<point x="523" y="535"/>
			<point x="439" y="504" type="curve"/>
			<point x="487" y="460" type="line"/>
			<point x="574" y="489"/>
			<point x="667" y="541"/>
			<point x="759" y="606" type="curve"/>
		</contour>
		<contour>
			<point x="815" y="494" type="line"/>
			<point x="730" y="434"/>
			<point x="625" y="376"/>
			<point x="535" y="346" type="curve"/>
			<point x="584" y="302" type="line"/>
			<point x="677" y="331"/>
			<point x="777" y="382"/>
			<point x="875" y="447" type="curve"/>
		</contour>
	</outline>
</glyph>
<glyph name="龟字底" format="2">
	<unicode hex="E0EC"/>
	<advance width="1000"/>
	<outline>
		<contour>
			<point x="455" y="624" type="line"/>
			<point x="455" y="121" type="line"/>
			<point x="455" y="20"/>
			<point x="488" y="-6"/>
			<point x="598" y="-6" type="curve"/>
			<point x="624" y="-6"/>
			<point x="795" y="-6"/>
			<point x="821" y="-6" type="curve"/>
			<point x="923" y="-6"/>
			<point x="948" y="37"/>
			<point x="959" y="180" type="curve"/>
			<point x="937" y="185"/>
			<point x="906" y="197"/>
			<point x="888" y="210" type="curve"/>
			<point x="882" y="91"/>
			<point x="873" y="66"/>
			<point x="817" y="66" type="curve"/>
			<point x="779" y="66"/>
			<point x="633" y="66"/>
			<point x="604" y="66" type="curve"/>
			<point x="542" y="66"/>
			<point x="531" y="75"/>
			<point x="531" y="121" type="curve"/>
			<point x="531" y="624" type="line"/>
		</contour>
		<contour>
			<point x="185" y="463" type="line"/>
			<point x="185" y="404" type="line"/>
			<point x="800" y="404" type="line"/>
			<point x="800" y="463" type="line"/>
		</contour>
		<contour>
			<point x="189" y="651" type="line"/>
			<point x="189" y="587" type="line"/>
			<point x="769" y="587" type="line"/>
			<point x="769" y="280" type="line"/>
			<point x="189" y="280" type="line"/>
			<point x="189" y="216" type="line"/>
			<point x="846" y="216" type="line"/>
			<point x="846" y="652" type="line"/>
		</contour>
		<contour>
			<point x="145" y="652" type="line"/>
			<point x="145" y="160" type="line"/>
			<point x="223" y="160" type="line"/>
			<point x="223" y="652" type="line"/>
		</contour>
	</outline>
</glyph>
<glyph name="鬼无厶" format="2">
	<unicode hex="E0ED"/>
	<advance width="1000"/>
	<outline>
		<contour>
			<point x="448" y="845" type="line"/>
			<point x="433" y="806"/>
			<point x="403" y="750"/>
			<point x="378" y="713" type="curve"/>
			<point x="446" y="696" type="line"/>
			<point x="471" y="730"/>
			<point x="503" y="780"/>
			<point x="530" y="828" type="curve"/>
		</contour>
		<contour>
			<point x="229" y="504" type="line"/>
			<point x="756" y="504" type="line"/>
			<point x="756" y="389" type="line"/>
			<point x="229" y="389" type="line"/>
		</contour>
		<contour>
			<point x="229" y="678" type="line"/>
			<point x="756" y="678" type="line"/>
			<point x="756" y="565" type="line"/>
			<point x="229" y="565" type="line"/>
		</contour>
		<contour>
			<point x="154" y="743" type="line"/>
			<point x="154" y="325" type="line"/>
			<point x="835" y="325" type="line"/>
			<point x="835" y="743" type="line"/>
		</contour>
		<contour>
			<point x="487" y="287" type="line"/>
			<point x="487" y="39" type="line"/>
			<point x="487" y="-41"/>
			<point x="516" y="-62"/>
			<point x="625" y="-62" type="curve"/>
			<point x="648" y="-62"/>
			<point x="814" y="-62"/>
			<point x="838" y="-62" type="curve"/>
			<point x="927" y="-62"/>
			<point x="950" y="-33"/>
			<point x="960" y="83" type="curve"/>
			<point x="939" y="88"/>
			<point x="909" y="98"/>
			<point x="893" y="110" type="curve"/>
			<point x="888" y="17"/>
			<point x="880" y="3"/>
			<point x="832" y="3" type="curve"/>
			<point x="795" y="3"/>
			<point x="655" y="3"/>
			<point x="629" y="3" type="curve"/>
			<point x="570" y="3"/>
			<point x="560" y="9"/>
			<point x="560" y="39" type="curve"/>
			<point x="560" y="286" type="line"/>
		</contour>
		<contour>
			<point x="457" y="702" type="line"/>
			<point x="457" y="551" type="line"/>
			<point x="457" y="385"/>
			<point x="417" y="141"/>
			<point x="49" y="-22" type="curve"/>
			<point x="69" y="-37"/>
			<point x="93" y="-60"/>
			<point x="106" y="-76" type="curve"/>
			<point x="485" y="94"/>
			<point x="530" y="359"/>
			<point x="530" y="550" type="curve"/>
			<point x="530" y="702" type="line"/>
		</contour>
	</outline>
</glyph>
<glyph name="隶字框" format="2">
	<unicode hex="E0F1"/>
	<advance width="1000"/>
	<outline>
		<contour>
			<point x="52" y="591" type="line"/>
			<point x="52" y="526" type="line"/>
			<point x="949" y="526" type="line"/>
			<point x="949" y="591" type="line"/>
		</contour>
		<contour>
			<point x="461" y="839" type="line"/>
			<point x="461" y="11" type="line"/>
			<point x="461" y="-6"/>
			<point x="455" y="-11"/>
			<point x="438" y="-12" type="curve"/>
			<point x="422" y="-13"/>
			<point x="368" y="-14"/>
			<point x="311" y="-12" type="curve"/>
			<point x="321" y="-32"/>
			<point x="331" y="-63"/>
			<point x="334" y="-82" type="curve"/>
			<point x="417" y="-82"/>
			<point x="464" y="-80"/>
			<point x="493" y="-68" type="curve"/>
			<point x="522" y="-57"/>
			<point x="534" y="-36"/>
			<point x="534" y="11" type="curve"/>
			<point x="534" y="838" type="line"/>
		</contour>
		<contour>
			<point x="156" y="750" type="line"/>
			<point x="156" y="686" type="line"/>
			<point x="768" y="686" type="line"/>
			<point x="768" y="420" type="line"/>
			<point x="148" y="420" type="line"/>
			<point x="148" y="356" type="line"/>
			<point x="844" y="356" type="line"/>
			<point x="844" y="749" type="line"/>
		</contour>
	</outline>
</glyph>
<glyph name="求字框" format="2">
	<unicode hex="E0F6"/>
	<advance width="1000"/>
	<outline>
		<contour>
			<point x="65" y="672" type="line"/>
			<point x="65" y="599" type="line"/>
			<point x="939" y="599" type="line"/>
			<point x="939" y="672" type="line"/>
		</contour>
		<contour>
			<point x="629" y="785" type="line"/>
			<point x="692" y="752"/>
			<point x="772" y="701"/>
			<point x="812" y="666" type="curve"/>
			<point x="859" y="720" type="line"/>
			<point x="818" y="754"/>
			<point x="737" y="802"/>
			<point x="674" y="833" type="curve"/>
		</contour>
		<contour>
			<point x="457" y="835" type="line"/>
			<point x="457" y="19" type="line"/>
			<point x="457" y="0"/>
			<point x="450" y="-5"/>
			<point x="432" y="-6" type="curve"/>
			<point x="412" y="-7"/>
			<point x="347" y="-8"/>
			<point x="278" y="-6" type="curve"/>
			<point x="290" y="-29"/>
			<point x="302" y="-64"/>
			<point x="306" y="-85" type="curve"/>
			<point x="394" y="-85"/>
			<point x="454" y="-83"/>
			<point x="488" y="-70" type="curve"/>
			<point x="521" y="-58"/>
			<point x="535" y="-35"/>
			<point x="535" y="18" type="curve"/>
			<point x="535" y="834" type="line"/>
		</contour>
	</outline>
</glyph>
<glyph name="尤无折" format="2">
	<unicode hex="E0FC"/>
	<advance width="1000"/>
	<outline>
		<contour>
			<point x="55" y="605" type="line"/>
			<point x="55" y="533" type="line"/>
			<point x="947" y="533" type="line"/>
			<point x="947" y="605" type="line"/>
		</contour>
		<contour>
			<point x="422" y="838" type="line"/>
			<point x="421" y="494"/>
			<point x="430" y="141"/>
			<point x="40" y="-14" type="curve"/>
			<point x="59" y="-29"/>
			<point x="83" y="-57"/>
			<point x="94" y="-77" type="curve"/>
			<point x="499" y="94"/>
			<point x="498" y="474"/>
			<point x="500" y="840" type="curve"/>
		</contour>
		<contour>
			<point x="605" y="781" type="line"/>
			<point x="682" y="738"/>
			<point x="782" y="674"/>
			<point x="831" y="632" type="curve"/>
			<point x="879" y="689" type="line"/>
			<point x="828" y="730"/>
			<point x="727" y="791"/>
			<point x="650" y="830" type="curve"/>
		</contour>
	</outline>
</glyph>
<glyph name="发无又" format="2">
	<unicode hex="E0FD"/>
	<advance width="1000"/>
	<outline>
		<contour>
			<point x="454" y="842" type="line"/>
			<point x="411" y="486"/>
			<point x="297" y="215"/>
			<point x="31" y="55" type="curve"/>
			<point x="50" y="41"/>
			<point x="77" y="13"/>
			<point x="87" y="-3" type="curve"/>
			<point x="370" y="170"/>
			<point x="486" y="449"/>
			<point x="538" y="828" type="curve"/>
		</contour>
		<contour>
			<point x="674" y="788" type="line"/>
			<point x="717" y="742"/>
			<point x="773" y="678"/>
			<point x="801" y="640" type="curve"/>
			<point x="861" y="681" type="line"/>
			<point x="833" y="718"/>
			<point x="775" y="780"/>
			<point x="732" y="824" type="curve"/>
		</contour>
		<contour>
			<point x="145" y="522" type="line"/>
			<point x="145" y="540"/>
			<point x="205" y="565"/>
			<point x="205" y="565" type="curve"/>
			<point x="205" y="566" type="line"/>
			<point x="239" y="621"/>
			<point x="279" y="710"/>
			<point x="304" y="795" type="curve"/>
			<point x="223" y="809" type="line"/>
			<point x="206" y="732"/>
			<point x="167" y="651"/>
			<point x="156" y="631" type="curve"/>
			<point x="144" y="609"/>
			<point x="133" y="594"/>
			<point x="119" y="590" type="curve"/>
			<point x="127" y="572"/>
			<point x="139" y="535"/>
			<point x="144" y="519" type="curve"/>
		</contour>
		<contour>
			<point x="144" y="519" type="line"/>
			<point x="154" y="530"/>
			<point x="187" y="536"/>
			<point x="250" y="536" type="curve"/>
			<point x="930" y="536" type="line"/>
			<point x="930" y="608" type="line"/>
			<point x="194" y="608" type="line"/>
			<point x="144" y="578" type="line"/>
		</contour>
	</outline>
</glyph>
<glyph name="噩字框" format="2">
	<unicode hex="E102"/>
	<advance width="1000"/>
	<outline>
		<contour>
			<point x="71" y="795" type="line"/>
			<point x="71" y="732" type="line"/>
			<point x="932" y="732" type="line"/>
			<point x="932" y="795" type="line"/>
		</contour>
		<contour>
			<point x="101" y="417" type="line"/>
			<point x="101" y="355" type="line"/>
			<point x="903" y="355" type="line"/>
			<point x="903" y="417" type="line"/>
		</contour>
		<contour>
			<point x="54" y="20" type="line"/>
			<point x="54" y="-47" type="line"/>
			<point x="948" y="-47" type="line"/>
			<point x="948" y="20" type="line"/>
		</contour>
		<contour>
			<point x="463" y="766" type="line"/>
			<point x="463" y="-16" type="line"/>
			<point x="536" y="-16" type="line"/>
			<point x="536" y="766" type="line"/>
		</contour>
	</outline>
</glyph>
<glyph name="衣省变" format="2">
	<unicode hex="E106"/>
	<advance width="1000"/>
	<outline>
		<contour>
			<point x="527" y="428" type="line"/>
			<point x="527" y="23" type="line"/>
			<point x="599" y="23" type="line"/>
			<point x="599" y="428" type="line"/>
		</contour>
		<contour>
			<point x="527" y="429" type="line"/>
			<point x="468" y="347"/>
			<point x="368" y="246"/>
			<point x="248" y="186" type="curve"/>
			<point x="262" y="173"/>
			<point x="285" y="143"/>
			<point x="294" y="129" type="curve"/>
			<point x="418" y="197"/>
			<point x="525" y="311"/>
			<point x="594" y="409" type="curve"/>
		</contour>
		<contour>
			<point x="822" y="360" type="line"/>
			<point x="787" y="328"/>
			<point x="725" y="282"/>
			<point x="680" y="255" type="curve"/>
			<point x="725" y="224" type="line"/>
			<point x="772" y="249"/>
			<point x="832" y="285"/>
			<point x="881" y="324" type="curve"/>
		</contour>
		<contour>
			<point x="553" y="289" type="line"/>
			<point x="648" y="240"/>
			<point x="767" y="128"/>
			<point x="826" y="78" type="curve"/>
			<point x="870" y="122" type="line"/>
			<point x="807" y="173"/>
			<point x="688" y="281"/>
			<point x="595" y="327" type="curve"/>
		</contour>
	</outline>
</glyph>
<glyph name="発字底" format="2">
	<unicode hex="E108"/>
	<advance width="1000"/>
	<outline>
		<contour>
			<point x="226" y="575" type="line"/>
			<point x="226" y="503" type="line"/>
			<point x="776" y="503" type="line"/>
			<point x="776" y="575" type="line"/>
		</contour>
		<contour>
			<point x="99" y="354" type="line"/>
			<point x="99" y="284" type="line"/>
			<point x="897" y="284" type="line"/>
			<point x="897" y="354" type="line"/>
		</contour>
		<contour>
			<point x="333" y="541" type="line"/>
			<point x="333" y="371" type="line"/>
			<point x="333" y="258"/>
			<point x="307" y="141"/>
			<point x="80" y="65" type="curve"/>
			<point x="96" y="51"/>
			<point x="119" y="23"/>
			<point x="128" y="5" type="curve"/>
			<point x="375" y="91"/>
			<point x="407" y="230"/>
			<point x="407" y="369" type="curve"/>
			<point x="407" y="541" type="line"/>
		</contour>
		<contour>
			<point x="584" y="540" type="line"/>
			<point x="584" y="126" type="line"/>
			<point x="584" y="43"/>
			<point x="606" y="20"/>
			<point x="691" y="20" type="curve"/>
			<point x="709" y="20"/>
			<point x="804" y="20"/>
			<point x="823" y="20" type="curve"/>
			<point x="897" y="20"/>
			<point x="918" y="56"/>
			<point x="926" y="184" type="curve"/>
			<point x="905" y="189"/>
			<point x="875" y="201"/>
			<point x="858" y="214" type="curve"/>
			<point x="854" y="107"/>
			<point x="849" y="87"/>
			<point x="817" y="87" type="curve"/>
			<point x="797" y="87"/>
			<point x="718" y="87"/>
			<point x="703" y="87" type="curve"/>
			<point x="669" y="87"/>
			<point x="663" y="93"/>
			<point x="663" y="125" type="curve"/>
			<point x="663" y="540" type="line"/>
		</contour>
	</outline>
</glyph>
<glyph name="䏓字旁" format="2">
	<unicode hex="E10B"/>
	<advance width="1000"/>
	<outline>
		<contour>
			<point x="152" y="788" type="line"/>
			<point x="152" y="717" type="line"/>
			<point x="465" y="717" type="line"/>
			<point x="465" y="788" type="line"/>
		</contour>
		<contour>
			<point x="114" y="788" type="line"/>
			<point x="114" y="518" type="line"/>
			<point x="114" y="360"/>
			<point x="108" y="133"/>
			<point x="30" y="-29" type="curve"/>
			<point x="46" y="-37"/>
			<point x="79" y="-62"/>
			<point x="91" y="-76" type="curve"/>
			<point x="175" y="95"/>
			<point x="188" y="351"/>
			<point x="188" y="519" type="curve"/>
			<point x="188" y="789" type="line"/>
		</contour>
		<contour>
			<point x="421" y="789" type="line"/>
			<point x="421" y="19" type="line"/>
			<point x="421" y="4"/>
			<point x="416" y="-1"/>
			<point x="401" y="-2" type="curve"/>
			<point x="393" y="-2"/>
			<point x="376" y="-3"/>
			<point x="354" y="-3" type="curve"/>
			<point x="332" y="-3"/>
			<point x="306" y="-2"/>
			<point x="279" y="-2" type="curve"/>
			<point x="288" y="-22"/>
			<point x="296" y="-54"/>
			<point x="298" y="-73" type="curve"/>
			<point x="373" y="-73"/>
			<point x="425" y="-72"/>
			<point x="453" y="-60" type="curve"/>
			<point x="482" y="-48"/>
			<point x="491" y="-26"/>
			<point x="491" y="19" type="curve"/>
			<point x="491" y="790" type="line"/>
		</contour>
		<contour>
			<point x="208" y="564" type="line"/>
			<point x="262" y="536"/>
			<point x="330" y="493"/>
			<point x="364" y="465" type="curve"/>
			<point x="408" y="519" type="line"/>
			<point x="373" y="546"/>
			<point x="304" y="586"/>
			<point x="252" y="612" type="curve"/>
		</contour>
		<contour>
			<point x="181" y="246" type="line"/>
			<point x="214" y="177" type="line"/>
			<point x="289" y="213"/>
			<point x="383" y="262"/>
			<point x="470" y="309" type="curve"/>
			<point x="451" y="375" type="line"/>
			<point x="352" y="325"/>
			<point x="249" y="275"/>
			<point x="180" y="245" type="curve"/>
		</contour>
	</outline>
</glyph>
<glyph name="倉字腰" format="2">
	<unicode hex="E10E"/>
	<advance width="1000"/>
	<outline>
		<contour>
			<point x="257" y="408" type="line"/>
			<point x="257" y="358" type="line"/>
			<point x="773" y="358" type="line"/>
			<point x="773" y="408" type="line"/>
		</contour>
		<contour>
			<point x="207" y="523" type="line"/>
			<point x="207" y="385" type="line"/>
			<point x="207" y="267"/>
			<point x="187" y="110"/>
			<point x="49" y="-3" type="curve"/>
			<point x="65" y="-12"/>
			<point x="94" y="-39"/>
			<point x="105" y="-54" type="curve"/>
			<point x="253" y="67"/>
			<point x="282" y="251"/>
			<point x="282" y="384" type="curve"/>
			<point x="282" y="524" type="line"/>
		</contour>
		<contour>
			<point x="266" y="524" type="line"/>
			<point x="266" y="472" type="line"/>
			<point x="718" y="472" type="line"/>
			<point x="718" y="291" type="line"/>
			<point x="260" y="291" type="line"/>
			<point x="260" y="239" type="line"/>
			<point x="790" y="239" type="line"/>
			<point x="790" y="523" type="line"/>
		</contour>
	</outline>
</glyph>
<glyph name="帶字头" format="2">
	<unicode hex="E112"/>
	<advance width="1000"/>
	<outline>
		<contour>
			<point x="368" y="824" type="line"/>
			<point x="368" y="498" type="line"/>
			<point x="634" y="498" type="line"/>
			<point x="634" y="824" type="line"/>
			<point x="565" y="824" type="line"/>
			<point x="565" y="557" type="line"/>
			<point x="436" y="557" type="line"/>
			<point x="436" y="824" type="line"/>
		</contour>
		<contour>
			<point x="59" y="719" type="line"/>
			<point x="59" y="658" type="line"/>
			<point x="944" y="658" type="line"/>
			<point x="944" y="719" type="line"/>
		</contour>
		<contour>
			<point x="722" y="826" type="line"/>
			<point x="722" y="569" type="line"/>
			<point x="722" y="503"/>
			<point x="737" y="485"/>
			<point x="801" y="485" type="curve"/>
			<point x="814" y="485"/>
			<point x="864" y="485"/>
			<point x="877" y="485" type="curve"/>
			<point x="928" y="485"/>
			<point x="945" y="511"/>
			<point x="952" y="606" type="curve"/>
			<point x="933" y="610"/>
			<point x="907" y="620"/>
			<point x="893" y="630" type="curve"/>
			<point x="891" y="555"/>
			<point x="887" y="544"/>
			<point x="869" y="544" type="curve"/>
			<point x="859" y="544"/>
			<point x="820" y="544"/>
			<point x="812" y="544" type="curve"/>
			<point x="794" y="544"/>
			<point x="791" y="547"/>
			<point x="791" y="569" type="curve"/>
			<point x="791" y="826" type="line"/>
		</contour>
		<contour>
			<point x="219" y="826" type="line"/>
			<point x="219" y="696" type="line"/>
			<point x="219" y="634"/>
			<point x="203" y="553"/>
			<point x="67" y="508" type="curve"/>
			<point x="82" y="496"/>
			<point x="101" y="474"/>
			<point x="109" y="459" type="curve"/>
			<point x="261" y="518"/>
			<point x="288" y="615"/>
			<point x="288" y="696" type="curve"/>
			<point x="288" y="826" type="line"/>
		</contour>
	</outline>
</glyph>
<glyph name="䯬下角" format="2">
	<unicode hex="E113"/>
	<advance width="1000"/>
	<outline>
		<contour>
			<point x="251" y="729" type="line"/>
			<point x="754" y="729" type="line"/>
			<point x="754" y="553" type="line"/>
			<point x="251" y="553" type="line"/>
		</contour>
		<contour>
			<point x="177" y="799" type="line"/>
			<point x="177" y="483" type="line"/>
			<point x="832" y="483" type="line"/>
			<point x="832" y="799" type="line"/>
		</contour>
		<contour>
			<point x="460" y="497" type="line"/>
			<point x="460" y="-77" type="line"/>
			<point x="537" y="-77" type="line"/>
			<point x="537" y="497" type="line"/>
		</contour>
		<contour>
			<point x="68" y="344" type="line"/>
			<point x="68" y="273" type="line"/>
			<point x="933" y="273" type="line"/>
			<point x="933" y="344" type="line"/>
		</contour>
	</outline>
</glyph>
<glyph name="㳈字边" format="2">
	<unicode hex="E130"/>
	<advance width="1000"/>
	<outline>
		<contour>
			<point x="183" y="653" type="line"/>
			<point x="183" y="580" type="line"/>
			<point x="833" y="580" type="line"/>
			<point x="833" y="653" type="line"/>
		</contour>
		<contour>
			<point x="454" y="837" type="line"/>
			<point x="454" y="-76" type="line"/>
			<point x="529" y="-76" type="line"/>
			<point x="529" y="837" type="line"/>
		</contour>
		<contour>
			<point x="289" y="504" type="line"/>
			<point x="289" y="264"/>
			<point x="278" y="114"/>
			<point x="141" y="50" type="curve"/>
			<point x="157" y="34"/>
			<point x="178" y="2"/>
			<point x="187" y="-20" type="curve"/>
			<point x="340" y="65"/>
			<point x="353" y="226"/>
			<point x="355" y="505" type="curve"/>
		</contour>
		<contour>
			<point x="625" y="504" type="line"/>
			<point x="625" y="114" type="line"/>
			<point x="625" y="38"/>
			<point x="643" y="17"/>
			<point x="706" y="17" type="curve"/>
			<point x="718" y="17"/>
			<point x="770" y="17"/>
			<point x="783" y="17" type="curve"/>
			<point x="840" y="17"/>
			<point x="855" y="56"/>
			<point x="860" y="188" type="curve"/>
			<point x="843" y="193"/>
			<point x="817" y="205"/>
			<point x="802" y="217" type="curve"/>
			<point x="801" y="101"/>
			<point x="797" y="76"/>
			<point x="777" y="76" type="curve"/>
			<point x="766" y="76"/>
			<point x="728" y="76"/>
			<point x="719" y="76" type="curve"/>
			<point x="700" y="76"/>
			<point x="696" y="81"/>
			<point x="696" y="114" type="curve"/>
			<point x="696" y="504" type="line"/>
		</contour>
	</outline>
</glyph>
<glyph name="弬字边" format="2">
	<unicode hex="E131"/>
	<advance width="1000"/>
	<outline>
		<contour>
			<point x="156" y="51" type="line"/>
			<point x="945" y="51" type="line"/>
			<point x="945" y="-20" type="line"/>
			<point x="156" y="-20" type="line"/>
		</contour>
		<contour>
			<point x="500" y="754" type="line"/>
			<point x="570" y="754" type="line"/>
			<point x="570" y="520" type="line"/>
			<point x="500" y="520" type="line"/>
		</contour>
		<contour>
			<point x="316" y="590" type="line"/>
			<point x="387" y="590" type="line"/>
			<point x="387" y="176" type="line"/>
			<point x="316" y="176" type="line"/>
		</contour>
		<contour>
			<point x="500" y="559" type="line"/>
			<point x="820" y="559" type="line"/>
			<point x="820" y="227" type="line"/>
			<point x="500" y="227" type="line"/>
			<point x="500" y="293" type="line"/>
			<point x="750" y="293" type="line"/>
			<point x="750" y="492" type="line"/>
			<point x="500" y="492" type="line"/>
		</contour>
		<contour>
			<point x="121" y="-19" type="line"/>
			<point x="121" y="785" type="line"/>
			<point x="930" y="785" type="line"/>
			<point x="930" y="715" type="line"/>
			<point x="199" y="715" type="line"/>
			<point x="199" y="-19" type="line"/>
		</contour>
		<contour>
			<point x="500" y="270" type="line"/>
			<point x="570" y="270" type="line"/>
			<point x="570" y="20" type="line"/>
			<point x="500" y="20" type="line"/>
		</contour>
	</outline>
</glyph>
<glyph name="曳无丿" format="2">
	<unicode hex="E14C"/>
	<advance width="1000"/>
	<outline>
		<contour>
			<point x="442" y="838" type="line"/>
			<point x="444" y="330"/>
			<point x="529" y="-79"/>
			<point x="830" y="-80" type="curve"/>
			<point x="918" y="-80"/>
			<point x="947" y="-41"/>
			<point x="962" y="103" type="curve"/>
			<point x="942" y="110"/>
			<point x="915" y="125"/>
			<point x="898" y="140" type="curve"/>
			<point x="890" y="24"/>
			<point x="876" y="-7"/>
			<point x="831" y="-7" type="curve"/>
			<point x="600" y="-7"/>
			<point x="512" y="352"/>
			<point x="517" y="838" type="curve"/>
		</contour>
		<contour>
			<point x="182" y="545" type="line"/>
			<point x="182" y="481" type="line"/>
			<point x="828" y="481" type="line"/>
			<point x="828" y="545" type="line"/>
		</contour>
		<contour>
			<point x="137" y="731" type="line"/>
			<point x="137" y="231" type="line"/>
			<point x="211" y="231" type="line"/>
			<point x="211" y="731" type="line"/>
		</contour>
		<contour>
			<point x="183" y="731" type="line"/>
			<point x="183" y="664" type="line"/>
			<point x="791" y="664" type="line"/>
			<point x="791" y="358" type="line"/>
			<point x="183" y="358" type="line"/>
			<point x="183" y="291" type="line"/>
			<point x="867" y="291" type="line"/>
			<point x="867" y="731" type="line"/>
		</contour>
	</outline>
</glyph>
<glyph name="恭字底无丶" format="2">
	<unicode hex="E14D"/>
	<advance width="1000"/>
	<outline>
		<contour>
			<point x="429" y="613" type="line"/>
			<point x="429" y="132" type="line"/>
			<point x="429" y="120"/>
			<point x="426" y="116"/>
			<point x="411" y="115" type="curve"/>
			<point x="396" y="114"/>
			<point x="349" y="114"/>
			<point x="295" y="116" type="curve"/>
			<point x="305" y="95"/>
			<point x="315" y="65"/>
			<point x="318" y="45" type="curve"/>
			<point x="388" y="45"/>
			<point x="435" y="46"/>
			<point x="464" y="57" type="curve"/>
			<point x="493" y="69"/>
			<point x="501" y="90"/>
			<point x="501" y="131" type="curve"/>
			<point x="501" y="613" type="line"/>
		</contour>
		<contour>
			<point x="282" y="444" type="line"/>
			<point x="254" y="375"/>
			<point x="206" y="290"/>
			<point x="147" y="239" type="curve"/>
			<point x="210" y="202" type="line"/>
			<point x="269" y="258"/>
			<point x="313" y="346"/>
			<point x="344" y="419" type="curve"/>
		</contour>
		<contour>
			<point x="554" y="421" type="line"/>
			<point x="585" y="353"/>
			<point x="611" y="264"/>
			<point x="618" y="205" type="curve"/>
			<point x="683" y="221" type="line"/>
			<point x="674" y="280"/>
			<point x="647" y="367"/>
			<point x="614" y="434" type="curve"/>
		</contour>
	</outline>
</glyph>
<glyph name="爿旁" format="2">
	<unicode hex="E14E"/>
	<advance width="1000"/>
	<outline>
		<contour>
			<point x="185" y="331" type="line"/>
			<point x="185" y="270" type="line"/>
			<point x="552" y="270" type="line"/>
			<point x="552" y="331" type="line"/>
		</contour>
		<contour>
			<point x="527" y="723" type="line"/>
			<point x="527" y="303" type="line"/>
			<point x="527" y="187"/>
			<point x="522" y="49"/>
			<point x="461" y="-47" type="curve"/>
			<point x="476" y="-55"/>
			<point x="503" y="-76"/>
			<point x="514" y="-88" type="curve"/>
			<point x="582" y="15"/>
			<point x="592" y="178"/>
			<point x="592" y="304" type="curve"/>
			<point x="592" y="724" type="line"/>
		</contour>
		<contour>
			<point x="226" y="732" type="line"/>
			<point x="226" y="443" type="line"/>
			<point x="576" y="443" type="line"/>
			<point x="576" y="503" type="line"/>
			<point x="285" y="503" type="line"/>
			<point x="285" y="732" type="line"/>
		</contour>
		<contour>
			<point x="230" y="301" type="line"/>
			<point x="230" y="256" type="line"/>
			<point x="230" y="182"/>
			<point x="224" y="81"/>
			<point x="170" y="2" type="curve"/>
			<point x="185" y="-7"/>
			<point x="208" y="-23"/>
			<point x="219" y="-35" type="curve"/>
			<point x="278" y="55"/>
			<point x="286" y="167"/>
			<point x="286" y="254" type="curve"/>
			<point x="286" y="301" type="line"/>
		</contour>
	</outline>
</glyph>
<glyph name="埓上角" format="2">
	<unicode hex="E14F"/>
	<advance width="999"/>
	<outline>
		<contour>
			<point x="712" y="696" type="line"/>
			<point x="590" y="655"/>
			<point x="372" y="619"/>
			<point x="187" y="596" type="curve"/>
			<point x="195" y="581"/>
			<point x="204" y="554"/>
			<point x="207" y="536" type="curve"/>
			<point x="397" y="557"/>
			<point x="620" y="592"/>
			<point x="765" y="638" type="curve"/>
		</contour>
		<contour>
			<point x="748" y="487" type="line"/>
			<point x="625" y="391"/>
			<point x="401" y="320"/>
			<point x="200" y="283" type="curve"/>
			<point x="215" y="269"/>
			<point x="239" y="239"/>
			<point x="250" y="224" type="curve"/>
			<point x="447" y="270"/>
			<point x="677" y="347"/>
			<point x="814" y="457" type="curve"/>
		</contour>
		<contour>
			<point x="255" y="501" type="line"/>
			<point x="284" y="453"/>
			<point x="313" y="389"/>
			<point x="321" y="348" type="curve"/>
			<point x="389" y="371" type="line"/>
			<point x="380" y="412"/>
			<point x="351" y="473"/>
			<point x="320" y="519" type="curve"/>
		</contour>
		<contour>
			<point x="438" y="537" type="line"/>
			<point x="466" y="495"/>
			<point x="494" y="438"/>
			<point x="505" y="402" type="curve"/>
			<point x="573" y="426" type="line"/>
			<point x="561" y="461"/>
			<point x="531" y="516"/>
			<point x="504" y="557" type="curve"/>
		</contour>
	</outline>
</glyph>
<glyph name="虍无七" format="2">
	<unicode hex="E153"/>
	<advance width="1000"/>
	<outline>
		<contour>
			<point x="487" y="750" type="line"/>
			<point x="487" y="680" type="line"/>
			<point x="874" y="680" type="line"/>
			<point x="874" y="750" type="line"/>
		</contour>
		<contour>
			<point x="172" y="592" type="line"/>
			<point x="172" y="521" type="line"/>
			<point x="881" y="521" type="line"/>
			<point x="881" y="592" type="line"/>
		</contour>
		<contour>
			<point x="449" y="840" type="line"/>
			<point x="449" y="572" type="line"/>
			<point x="527" y="572" type="line"/>
			<point x="527" y="840" type="line"/>
		</contour>
		<contour>
			<point x="129" y="592" type="line"/>
			<point x="129" y="372" type="line"/>
			<point x="129" y="251"/>
			<point x="121" y="83"/>
			<point x="37" y="-38" type="curve"/>
			<point x="56" y="-46"/>
			<point x="89" y="-67"/>
			<point x="103" y="-79" type="curve"/>
			<point x="191" y="48"/>
			<point x="206" y="238"/>
			<point x="206" y="371" type="curve"/>
			<point x="206" y="592" type="line"/>
		</contour>
		<contour>
			<point x="857" y="592" type="line"/>
			<point x="857" y="580" type="line"/>
			<point x="844" y="528"/>
			<point x="823" y="466"/>
			<point x="804" y="427" type="curve"/>
			<point x="872" y="403" type="line"/>
			<point x="895" y="448"/>
			<point x="921" y="517"/>
			<point x="940" y="578" type="curve"/>
			<point x="883" y="596" type="line"/>
			<point x="869" y="592" type="line"/>
		</contour>
	</outline>
</glyph>
<glyph name="簔字底心" format="2">
	<unicode hex="E154"/>
	<advance width="1000"/>
	<outline>
		<contour>
			<point x="52" y="436" type="line"/>
			<point x="52" y="371" type="line"/>
			<point x="949" y="371" type="line"/>
			<point x="949" y="436" type="line"/>
		</contour>
		<contour>
			<point x="124" y="597" type="line"/>
			<point x="124" y="533" type="line"/>
			<point x="886" y="533" type="line"/>
			<point x="886" y="597" type="line"/>
		</contour>
		<contour>
			<point x="110" y="270" type="line"/>
			<point x="110" y="206" type="line"/>
			<point x="903" y="206" type="line"/>
			<point x="903" y="270" type="line"/>
		</contour>
		<contour>
			<point x="235" y="567" type="line"/>
			<point x="235" y="238" type="line"/>
			<point x="306" y="238" type="line"/>
			<point x="306" y="567" type="line"/>
		</contour>
		<contour>
			<point x="698" y="567" type="line"/>
			<point x="698" y="238" type="line"/>
			<point x="769" y="238" type="line"/>
			<point x="769" y="567" type="line"/>
		</contour>
	</outline>
</glyph>
<glyph name="烏省" format="2">
	<unicode hex="E159"/>
	<advance width="1000"/>
	<outline>
		<contour>
			<point x="179" y="272" type="line"/>
			<point x="179" y="208" type="line"/>
			<point x="862" y="208" type="line"/>
			<point x="862" y="272" type="line"/>
		</contour>
		<contour>
			<point x="218" y="414" type="line"/>
			<point x="218" y="352" type="line"/>
			<point x="950" y="352" type="line"/>
			<point x="950" y="414" type="line"/>
		</contour>
		<contour>
			<point x="840" y="272" type="line"/>
			<point x="840" y="261" type="line"/>
			<point x="830" y="79"/>
			<point x="819" y="11"/>
			<point x="801" y="-7" type="curve"/>
			<point x="794" y="-15"/>
			<point x="785" y="-16"/>
			<point x="768" y="-16" type="curve"/>
			<point x="751" y="-16"/>
			<point x="707" y="-16"/>
			<point x="660" y="-11" type="curve"/>
			<point x="671" y="-29"/>
			<point x="679" y="-56"/>
			<point x="680" y="-75" type="curve"/>
			<point x="729" y="-78"/>
			<point x="776" y="-78"/>
			<point x="801" y="-76" type="curve"/>
			<point x="828" y="-73"/>
			<point x="846" y="-67"/>
			<point x="862" y="-49" type="curve"/>
			<point x="887" y="-21"/>
			<point x="898" y="52"/>
			<point x="910" y="244" type="curve"/>
			<point x="911" y="255"/>
			<point x="912" y="276"/>
			<point x="912" y="276" type="curve"/>
		</contour>
		<contour>
			<point x="462" y="848" type="line"/>
			<point x="454" y="815"/>
			<point x="435" y="766"/>
			<point x="419" y="732" type="curve"/>
			<point x="484" y="719" type="line"/>
			<point x="503" y="749"/>
			<point x="528" y="794"/>
			<point x="548" y="837" type="curve"/>
		</contour>
		<contour>
			<point x="217" y="751" type="line"/>
			<point x="217" y="691" type="line"/>
			<point x="728" y="691" type="line"/>
			<point x="728" y="555" type="line"/>
			<point x="217" y="555" type="line"/>
			<point x="217" y="495" type="line"/>
			<point x="802" y="495" type="line"/>
			<point x="802" y="751" type="line"/>
		</contour>
		<contour>
			<point x="177" y="751" type="line"/>
			<point x="177" y="241" type="line"/>
			<point x="251" y="241" type="line"/>
			<point x="251" y="751" type="line"/>
		</contour>
	</outline>
</glyph>
<glyph name="門字旁" format="2">
	<unicode hex="E15F"/>
	<advance width="1000"/>
	<outline>
		<contour>
			<point x="347" y="642" type="line"/>
			<point x="347" y="585" type="line"/>
			<point x="625" y="585" type="line"/>
			<point x="625" y="642" type="line"/>
		</contour>
		<contour>
			<point x="354" y="792" type="line"/>
			<point x="354" y="729" type="line"/>
			<point x="600" y="729" type="line"/>
			<point x="600" y="488" type="line"/>
			<point x="354" y="488" type="line"/>
			<point x="354" y="425" type="line"/>
			<point x="670" y="425" type="line"/>
			<point x="670" y="792" type="line"/>
		</contour>
		<contour>
			<point x="312" y="792" type="line"/>
			<point x="312" y="-81" type="line"/>
			<point x="386" y="-81" type="line"/>
			<point x="386" y="792" type="line"/>
		</contour>
	</outline>
</glyph>
<glyph name="韋字头" format="2">
	<unicode hex="E16E"/>
	<advance width="1001"/>
	<outline>
		<contour>
			<point x="176" y="766" type="line"/>
			<point x="176" y="706" type="line"/>
			<point x="727" y="706" type="line"/>
			<point x="727" y="586" type="line"/>
			<point x="801" y="586" type="line"/>
			<point x="801" y="766" type="line"/>
		</contour>
		<contour>
			<point x="62" y="618" type="line"/>
			<point x="62" y="556" type="line"/>
			<point x="940" y="556" type="line"/>
			<point x="940" y="618" type="line"/>
		</contour>
		<contour>
			<point x="395" y="840" type="line"/>
			<point x="377" y="762"/>
			<point x="350" y="658"/>
			<point x="327" y="593" type="curve"/>
			<point x="409" y="593" type="line"/>
			<point x="428" y="654"/>
			<point x="455" y="754"/>
			<point x="473" y="832" type="curve"/>
		</contour>
	</outline>
</glyph>
<glyph name="舞字头无朱三" format="2">
	<unicode hex="E175"/>
	<advance width="1000"/>
	<outline>
		<contour>
			<point x="51" y="432" type="line"/>
			<point x="51" y="368" type="line"/>
			<point x="952" y="368" type="line"/>
			<point x="952" y="432" type="line"/>
		</contour>
		<contour>
			<point x="205" y="729" type="line"/>
			<point x="205" y="395" type="line"/>
			<point x="275" y="395" type="line"/>
			<point x="275" y="729" type="line"/>
		</contour>
		<contour>
			<point x="382" y="729" type="line"/>
			<point x="382" y="395" type="line"/>
			<point x="447" y="395" type="line"/>
			<point x="447" y="729" type="line"/>
		</contour>
		<contour>
			<point x="560" y="729" type="line"/>
			<point x="560" y="395" type="line"/>
			<point x="625" y="395" type="line"/>
			<point x="625" y="729" type="line"/>
		</contour>
		<contour>
			<point x="735" y="729" type="line"/>
			<point x="735" y="395" type="line"/>
			<point x="806" y="395" type="line"/>
			<point x="806" y="729" type="line"/>
		</contour>
	</outline>
</glyph>
<glyph name="豸字底" format="2">
	<unicode hex="E176"/>
	<advance width="1000"/>
	<outline>
		<contour>
			<point x="595" y="427" type="line"/>
			<point x="496" y="350"/>
			<point x="300" y="274"/>
			<point x="139" y="245" type="curve"/>
			<point x="154" y="227"/>
			<point x="170" y="198"/>
			<point x="178" y="179" type="curve"/>
			<point x="339" y="218"/>
			<point x="539" y="303"/>
			<point x="649" y="388" type="curve"/>
		</contour>
		<contour>
			<point x="654" y="298" type="line"/>
			<point x="546" y="201"/>
			<point x="322" y="104"/>
			<point x="138" y="67" type="curve"/>
			<point x="153" y="49"/>
			<point x="170" y="21"/>
			<point x="178" y="2" type="curve"/>
			<point x="364" y="49"/>
			<point x="589" y="153"/>
			<point x="708" y="258" type="curve"/>
		</contour>
		<contour>
			<point x="526" y="489" type="line"/>
			<point x="688" y="334"/>
			<point x="688" y="72"/>
			<point x="623" y="19" type="curve"/>
			<point x="602" y="-2"/>
			<point x="582" y="-4"/>
			<point x="553" y="-4" type="curve"/>
			<point x="528" y="-4"/>
			<point x="490" y="-3"/>
			<point x="449" y="2" type="curve"/>
			<point x="462" y="-19"/>
			<point x="470" y="-50"/>
			<point x="472" y="-72" type="curve"/>
			<point x="508" y="-73"/>
			<point x="542" y="-74"/>
			<point x="567" y="-74" type="curve"/>
			<point x="617" y="-74"/>
			<point x="646" y="-65"/>
			<point x="680" y="-33" type="curve"/>
			<point x="771" y="42"/>
			<point x="764" y="354"/>
			<point x="582" y="523" type="curve"/>
		</contour>
	</outline>
</glyph>
<glyph name="牙字底" format="2">
	<unicode hex="E177"/>
	<advance width="1000"/>
	<outline>
		<contour>
			<point x="636" y="759" type="line"/>
			<point x="636" y="19" type="line"/>
			<point x="636" y="1"/>
			<point x="629" y="-4"/>
			<point x="611" y="-5" type="curve"/>
			<point x="593" y="-6"/>
			<point x="533" y="-7"/>
			<point x="466" y="-5" type="curve"/>
			<point x="477" y="-26"/>
			<point x="490" y="-60"/>
			<point x="494" y="-81" type="curve"/>
			<point x="581" y="-82"/>
			<point x="634" y="-79"/>
			<point x="667" y="-67" type="curve"/>
			<point x="698" y="-55"/>
			<point x="711" y="-32"/>
			<point x="711" y="17" type="curve"/>
			<point x="711" y="757" type="line"/>
		</contour>
		<contour>
			<point x="587" y="416" type="line"/>
			<point x="468" y="263"/>
			<point x="241" y="110"/>
			<point x="42" y="40" type="curve"/>
			<point x="60" y="23"/>
			<point x="83" y="-7"/>
			<point x="96" y="-26" type="curve"/>
			<point x="296" y="54"/>
			<point x="522" y="212"/>
			<point x="653" y="384" type="curve"/>
		</contour>
	</outline>
</glyph>
<glyph name="曳字底" format="2">
	<unicode hex="E178"/>
	<advance width="1000"/>
	<outline>
		<contour>
			<point x="442" y="838" type="line"/>
			<point x="444" y="330"/>
			<point x="529" y="-79"/>
			<point x="830" y="-80" type="curve"/>
			<point x="918" y="-80"/>
			<point x="947" y="-41"/>
			<point x="962" y="103" type="curve"/>
			<point x="942" y="110"/>
			<point x="915" y="125"/>
			<point x="898" y="140" type="curve"/>
			<point x="890" y="24"/>
			<point x="876" y="-7"/>
			<point x="831" y="-7" type="curve"/>
			<point x="600" y="-7"/>
			<point x="512" y="352"/>
			<point x="517" y="838" type="curve"/>
		</contour>
		<contour>
			<point x="768" y="283" type="line"/>
			<point x="634" y="116"/>
			<point x="355" y="28"/>
			<point x="64" y="-13" type="curve"/>
			<point x="78" y="-30"/>
			<point x="99" y="-65"/>
			<point x="107" y="-82" type="curve"/>
			<point x="397" y="-32"/>
			<point x="686" y="61"/>
			<point x="840" y="248" type="curve"/>
		</contour>
	</outline>
</glyph>
<glyph name="甫字头" format="2">
	<unicode hex="E179"/>
	<advance width="1000"/>
	<outline>
		<contour>
			<point x="62" y="705" type="line"/>
			<point x="62" y="635" type="line"/>
			<point x="941" y="635" type="line"/>
			<point x="941" y="705" type="line"/>
		</contour>
		<contour>
			<point x="461" y="840" type="line"/>
			<point x="461" y="-72" type="line"/>
			<point x="539" y="-72" type="line"/>
			<point x="539" y="840" type="line"/>
		</contour>
		<contour>
			<point x="619" y="797" type="line"/>
			<point x="685" y="767"/>
			<point x="774" y="722"/>
			<point x="819" y="695" type="curve"/>
			<point x="859" y="747" type="line"/>
			<point x="812" y="774"/>
			<point x="722" y="815"/>
			<point x="657" y="842" type="curve"/>
		</contour>
	</outline>
</glyph>
<glyph name="屯三" format="2">
	<unicode hex="E17A"/>
	<advance width="1000"/>
	<outline>
		<contour>
			<point x="75" y="701" type="line"/>
			<point x="75" y="630" type="line"/>
			<point x="903" y="630" type="line"/>
			<point x="903" y="701" type="line"/>
		</contour>
		<contour>
			<point x="139" y="550" type="line"/>
			<point x="139" y="208" type="line"/>
			<point x="852" y="208" type="line"/>
			<point x="852" y="550" type="line"/>
			<point x="775" y="550" type="line"/>
			<point x="775" y="278" type="line"/>
			<point x="213" y="278" type="line"/>
			<point x="213" y="550" type="line"/>
		</contour>
	</outline>
</glyph>
<glyph name="矛无龴无乛" format="2">
	<unicode hex="E17C"/>
	<advance width="1000"/>
	<outline>
		<contour>
			<point x="483" y="416" type="line"/>
			<point x="483" y="11" type="line"/>
			<point x="483" y="-5"/>
			<point x="477" y="-10"/>
			<point x="457" y="-11" type="curve"/>
			<point x="437" y="-12"/>
			<point x="367" y="-13"/>
			<point x="294" y="-10" type="curve"/>
			<point x="305" y="-31"/>
			<point x="318" y="-61"/>
			<point x="322" y="-81" type="curve"/>
			<point x="414" y="-81"/>
			<point x="474" y="-81"/>
			<point x="510" y="-70" type="curve"/>
			<point x="547" y="-59"/>
			<point x="559" y="-38"/>
			<point x="559" y="8" type="curve"/>
			<point x="559" y="415" type="line"/>
		</contour>
		<contour>
			<point x="462" y="439" type="line"/>
			<point x="371" y="300"/>
			<point x="194" y="163"/>
			<point x="30" y="101" type="curve"/>
			<point x="46" y="86"/>
			<point x="69" y="58"/>
			<point x="81" y="39" type="curve"/>
			<point x="245" y="112"/>
			<point x="424" y="256"/>
			<point x="525" y="412" type="curve"/>
		</contour>
	</outline>
</glyph>
<glyph name="毛三" format="2">
	<unicode hex="E17D"/>
	<advance width="1000"/>
	<outline>
		<contour>
			<point x="798" y="839" type="line"/>
			<point x="645" y="792"/>
			<point x="354" y="765"/>
			<point x="116" y="754" type="curve"/>
			<point x="123" y="737"/>
			<point x="132" y="707"/>
			<point x="134" y="688" type="curve"/>
			<point x="376" y="698"/>
			<point x="672" y="725"/>
			<point x="853" y="779" type="curve"/>
		</contour>
		<contour>
			<point x="116" y="558" type="line"/>
			<point x="116" y="486" type="line"/>
			<point x="895" y="486" type="line"/>
			<point x="895" y="558" type="line"/>
		</contour>
		<contour>
			<point x="49" y="324" type="line"/>
			<point x="49" y="250" type="line"/>
			<point x="952" y="250" type="line"/>
			<point x="952" y="324" type="line"/>
		</contour>
	</outline>
</glyph>
<glyph name="西字心" format="2">
	<unicode hex="E17E"/>
	<advance width="1000"/>
	<outline>
		<contour>
			<point x="356" y="731" type="line"/>
			<point x="356" y="519" type="line"/>
			<point x="356" y="422"/>
			<point x="335" y="318"/>
			<point x="184" y="245" type="curve"/>
			<point x="197" y="234"/>
			<point x="221" y="206"/>
			<point x="229" y="191" type="curve"/>
			<point x="393" y="273"/>
			<point x="423" y="404"/>
			<point x="423" y="518" type="curve"/>
			<point x="423" y="732" type="line"/>
		</contour>
		<contour>
			<point x="567" y="733" type="line"/>
			<point x="567" y="331" type="line"/>
			<point x="567" y="250"/>
			<point x="587" y="229"/>
			<point x="669" y="229" type="curve"/>
			<point x="685" y="229"/>
			<point x="787" y="229"/>
			<point x="804" y="229" type="curve"/>
			<point x="856" y="229"/>
			<point x="878" y="242"/>
			<point x="888" y="279" type="curve"/>
			<point x="867" y="284"/>
			<point x="838" y="295"/>
			<point x="823" y="306" type="curve"/>
			<point x="821" y="302"/>
			<point x="816" y="301"/>
			<point x="798" y="301" type="curve"/>
			<point x="778" y="301"/>
			<point x="693" y="301"/>
			<point x="679" y="301" type="curve"/>
			<point x="644" y="301"/>
			<point x="640" y="305"/>
			<point x="640" y="332" type="curve"/>
			<point x="640" y="734" type="line"/>
		</contour>
	</outline>
</glyph>
<glyph name="乌省" format="2">
	<unicode hex="E186"/>
	<advance width="1000"/>
	<outline>
		<contour>
			<point x="848" y="377" type="line"/>
			<point x="848" y="364" type="line"/>
			<point x="836" y="123"/>
			<point x="823" y="28"/>
			<point x="799" y="4" type="curve"/>
			<point x="789" y="-5"/>
			<point x="777" y="-7"/>
			<point x="759" y="-6" type="curve"/>
			<point x="736" y="-6"/>
			<point x="677" y="-6"/>
			<point x="615" y="-1" type="curve"/>
			<point x="628" y="-20"/>
			<point x="638" y="-50"/>
			<point x="640" y="-71" type="curve"/>
			<point x="699" y="-75"/>
			<point x="757" y="-75"/>
			<point x="787" y="-73" type="curve"/>
			<point x="821" y="-70"/>
			<point x="843" y="-64"/>
			<point x="862" y="-41" type="curve"/>
			<point x="894" y="-7"/>
			<point x="907" y="89"/>
			<point x="921" y="343" type="curve"/>
			<point x="922" y="354"/>
			<point x="922" y="377"/>
			<point x="922" y="377" type="curve"/>
		</contour>
		<contour>
			<point x="433" y="845" type="line"/>
			<point x="422" y="808"/>
			<point x="398" y="754"/>
			<point x="379" y="718" type="curve"/>
			<point x="443" y="705" type="line"/>
			<point x="463" y="737"/>
			<point x="490" y="786"/>
			<point x="512" y="833" type="curve"/>
		</contour>
		<contour>
			<point x="750" y="737" type="line"/>
			<point x="750" y="725" type="line"/>
			<point x="740" y="594"/>
			<point x="728" y="539"/>
			<point x="712" y="523" type="curve"/>
			<point x="705" y="514"/>
			<point x="696" y="513"/>
			<point x="678" y="513" type="curve"/>
			<point x="660" y="513"/>
			<point x="610" y="513"/>
			<point x="559" y="518" type="curve"/>
			<point x="567" y="500"/>
			<point x="575" y="472"/>
			<point x="576" y="454" type="curve"/>
			<point x="628" y="450"/>
			<point x="680" y="450"/>
			<point x="707" y="451" type="curve"/>
			<point x="737" y="453"/>
			<point x="759" y="459"/>
			<point x="776" y="476" type="curve"/>
			<point x="800" y="501"/>
			<point x="813" y="559"/>
			<point x="825" y="701" type="curve"/>
			<point x="826" y="712"/>
			<point x="827" y="735"/>
			<point x="827" y="735" type="curve"/>
		</contour>
		<contour>
			<point x="776" y="735" type="line"/>
			<point x="192" y="735" type="line"/>
			<point x="192" y="307" type="line"/>
			<point x="876" y="307" type="line"/>
			<point x="876" y="375" type="line"/>
			<point x="265" y="375" type="line"/>
			<point x="265" y="667" type="line"/>
			<point x="776" y="667" type="line"/>
		</contour>
	</outline>
</glyph>
<glyph name="仺字底" format="2">
	<unicode hex="E188"/>
	<advance width="1000"/>
	<outline>
		<contour>
			<point x="756" y="665" type="line"/>
			<point x="137" y="665" type="line"/>
			<point x="137" y="-18" type="line"/>
			<point x="773" y="-18" type="line"/>
			<point x="773" y="50" type="line"/>
			<point x="204" y="50" type="line"/>
			<point x="204" y="598" type="line"/>
			<point x="755" y="598" type="line"/>
		</contour>
		<contour>
			<point x="185" y="361" type="line"/>
			<point x="185" y="294" type="line"/>
			<point x="733" y="294" type="line"/>
			<point x="733" y="361" type="line"/>
		</contour>
	</outline>
</glyph>
<glyph name="雋字底" format="2">
	<unicode hex="E189"/>
	<advance width="1000"/>
	<outline>
		<contour>
			<point x="616" y="680" type="line"/>
			<point x="616" y="616" type="line"/>
			<point x="847" y="616" type="line"/>
			<point x="847" y="680" type="line"/>
		</contour>
		<contour>
			<point x="808" y="679" type="line"/>
			<point x="808" y="90" type="line"/>
			<point x="808" y="79"/>
			<point x="805" y="75"/>
			<point x="792" y="74" type="curve"/>
			<point x="779" y="73"/>
			<point x="740" y="73"/>
			<point x="689" y="75" type="curve"/>
			<point x="699" y="56"/>
			<point x="708" y="30"/>
			<point x="711" y="11" type="curve"/>
			<point x="777" y="11"/>
			<point x="821" y="11"/>
			<point x="848" y="21" type="curve"/>
			<point x="876" y="32"/>
			<point x="882" y="51"/>
			<point x="882" y="88" type="curve"/>
			<point x="882" y="678" type="line"/>
		</contour>
		<contour>
			<point x="352" y="678" type="line"/>
			<point x="352" y="317" type="line"/>
			<point x="651" y="317" type="line"/>
			<point x="651" y="678" type="line"/>
			<point x="580" y="678" type="line"/>
			<point x="580" y="379" type="line"/>
			<point x="421" y="379" type="line"/>
			<point x="421" y="678" type="line"/>
		</contour>
		<contour>
			<point x="124" y="678" type="line"/>
			<point x="124" y="4" type="line"/>
			<point x="197" y="4" type="line"/>
			<point x="197" y="614" type="line"/>
			<point x="388" y="614" type="line"/>
			<point x="388" y="678" type="line"/>
		</contour>
	</outline>
</glyph>
<glyph name="別字旁底" format="2">
	<unicode hex="E18C"/>
	<advance width="1000"/>
	<outline>
		<contour>
			<point x="305" y="598" type="line"/>
			<point x="305" y="531" type="line"/>
			<point x="663" y="531" type="line"/>
			<point x="663" y="598" type="line"/>
		</contour>
		<contour>
			<point x="632" y="598" type="line"/>
			<point x="632" y="586" type="line"/>
			<point x="622" y="243"/>
			<point x="611" y="155"/>
			<point x="592" y="134" type="curve"/>
			<point x="584" y="124"/>
			<point x="575" y="123"/>
			<point x="558" y="123" type="curve"/>
			<point x="541" y="123"/>
			<point x="494" y="123"/>
			<point x="444" y="128" type="curve"/>
			<point x="456" y="109"/>
			<point x="464" y="81"/>
			<point x="465" y="61" type="curve"/>
			<point x="514" y="58"/>
			<point x="563" y="58"/>
			<point x="589" y="61" type="curve"/>
			<point x="618" y="64"/>
			<point x="637" y="70"/>
			<point x="653" y="90" type="curve"/>
			<point x="680" y="121"/>
			<point x="690" y="213"/>
			<point x="701" y="567" type="curve"/>
			<point x="701" y="576"/>
			<point x="701" y="598"/>
			<point x="701" y="598" type="curve"/>
		</contour>
		<contour>
			<point x="286" y="731" type="line"/>
			<point x="277" y="543"/>
			<point x="256" y="220"/>
			<point x="114" y="105" type="curve"/>
			<point x="132" y="94"/>
			<point x="155" y="71"/>
			<point x="166" y="53" type="curve"/>
			<point x="320" y="181"/>
			<point x="348" y="518"/>
			<point x="360" y="729" type="curve"/>
		</contour>
	</outline>
</glyph>
<glyph name="犀字心头" format="2">
	<unicode hex="E18E"/>
	<advance width="1000"/>
	<outline>
		<contour>
			<point x="463" y="691" type="line"/>
			<point x="463" y="160" type="line"/>
			<point x="536" y="160" type="line"/>
			<point x="536" y="691" type="line"/>
		</contour>
		<contour>
			<point x="744" y="590" type="line"/>
			<point x="712" y="561"/>
			<point x="655" y="519"/>
			<point x="613" y="494" type="curve"/>
			<point x="664" y="467" type="line"/>
			<point x="706" y="490"/>
			<point x="760" y="524"/>
			<point x="802" y="560" type="curve"/>
		</contour>
		<contour>
			<point x="570" y="359" type="line"/>
			<point x="655" y="327"/>
			<point x="745" y="286"/>
			<point x="799" y="253" type="curve"/>
			<point x="842" y="300" type="line"/>
			<point x="784" y="333"/>
			<point x="690" y="373"/>
			<point x="603" y="403" type="curve"/>
		</contour>
		<contour>
			<point x="158" y="329" type="line"/>
			<point x="181" y="273" type="line"/>
			<point x="252" y="297"/>
			<point x="340" y="327"/>
			<point x="426" y="356" type="curve"/>
			<point x="418" y="406" type="line"/>
			<point x="321" y="376"/>
			<point x="224" y="345"/>
			<point x="157" y="328" type="curve"/>
		</contour>
		<contour>
			<point x="202" y="552" type="line"/>
			<point x="244" y="527"/>
			<point x="296" y="490"/>
			<point x="322" y="465" type="curve"/>
			<point x="374" y="502" type="line"/>
			<point x="347" y="527"/>
			<point x="294" y="562"/>
			<point x="251" y="585" type="curve"/>
		</contour>
	</outline>
</glyph>
<glyph name="淵字边左" format="2">
	<unicode hex="E1A6"/>
	<advance width="1000"/>
	<outline>
		<contour>
			<point x="301" y="823" type="line"/>
			<point x="373" y="823" type="line"/>
			<point x="373" y="569" type="line"/>
			<point x="549" y="569" type="line"/>
			<point x="549" y="806" type="line"/>
			<point x="617" y="806" type="line"/>
			<point x="617" y="500" type="line"/>
			<point x="373" y="500" type="line"/>
			<point x="373" y="462" type="line"/>
			<point x="373" y="358"/>
			<point x="367" y="268" type="qcurve"/>
			<point x="617" y="268" type="line"/>
			<point x="617" y="-57" type="line"/>
			<point x="549" y="-57" type="line"/>
			<point x="549" y="200" type="line"/>
			<point x="359" y="200" type="line"/>
			<point x="349" y="121"/>
			<point x="304" y="-18"/>
			<point x="265" y="-82" type="qcurve"/>
			<point x="255" y="-71"/>
			<point x="215" y="-47"/>
			<point x="201" y="-40" type="qcurve"/>
			<point x="246" y="34"/>
			<point x="289" y="198"/>
			<point x="301" y="375"/>
			<point x="301" y="465" type="qcurve"/>
		</contour>
	</outline>
</glyph>
<glyph name="淵字边右" format="2">
	<unicode hex="E1A7"/>
	<advance width="1000"/>
	<outline>
		<contour>
			<point x="656" y="500" type="line"/>
			<point x="402" y="500" type="line"/>
			<point x="402" y="806" type="line"/>
			<point x="471" y="806" type="line"/>
			<point x="471" y="569" type="line"/>
			<point x="656" y="569" type="line"/>
			<point x="656" y="825" type="line"/>
			<point x="728" y="825" type="line"/>
			<point x="728" y="-79" type="line"/>
			<point x="656" y="-79" type="line"/>
			<point x="656" y="200" type="line"/>
			<point x="471" y="200" type="line"/>
			<point x="471" y="-57" type="line"/>
			<point x="402" y="-57" type="line"/>
			<point x="402" y="268" type="line"/>
			<point x="656" y="268" type="line"/>
		</contour>
	</outline>
</glyph>
<glyph name="豕二" format="2">
	<unicode hex="E1A8"/>
	<advance width="1000"/>
	<outline>
		<contour>
			<point x="77" y="784" type="line"/>
			<point x="77" y="714" type="line"/>
			<point x="916" y="714" type="line"/>
			<point x="916" y="784" type="line"/>
		</contour>
		<contour>
			<point x="503" y="757" type="line"/>
			<point x="409" y="638"/>
			<point x="221" y="557"/>
			<point x="36" y="513" type="curve"/>
			<point x="50" y="497"/>
			<point x="72" y="462"/>
			<point x="80" y="445" type="curve"/>
			<point x="269" y="499"/>
			<point x="465" y="590"/>
			<point x="573" y="726" type="curve"/>
		</contour>
	</outline>
</glyph>
<glyph name="爿二" format="2">
	<unicode hex="E1A9"/>
	<advance width="1000"/>
	<outline>
		<contour>
			<point x="666" y="833" type="line"/>
			<point x="666" y="-80" type="line"/>
			<point x="744" y="-80" type="line"/>
			<point x="744" y="833" type="line"/>
		</contour>
		<contour>
			<point x="252" y="804" type="line"/>
			<point x="252" y="508" type="line"/>
			<point x="700" y="508" type="line"/>
			<point x="700" y="584" type="line"/>
			<point x="330" y="584" type="line"/>
			<point x="330" y="805" type="line"/>
		</contour>
	</outline>
</glyph>
<glyph name="戋无一" format="2">
	<unicode hex="E1AA"/>
	<advance width="1000"/>
	<outline>
		<contour>
			<point x="61" y="390" type="line"/>
			<point x="69" y="317" type="line"/>
			<point x="936" y="389" type="line"/>
			<point x="927" y="460" type="line"/>
		</contour>
		<contour>
			<point x="394" y="843" type="line"/>
			<point x="399" y="365"/>
			<point x="536" y="-70"/>
			<point x="827" y="-71" type="curve"/>
			<point x="914" y="-71"/>
			<point x="945" y="-31"/>
			<point x="963" y="118" type="curve"/>
			<point x="942" y="124"/>
			<point x="913" y="140"/>
			<point x="895" y="156" type="curve"/>
			<point x="887" y="39"/>
			<point x="872" y="7"/>
			<point x="829" y="7" type="curve"/>
			<point x="610" y="6"/>
			<point x="473" y="388"/>
			<point x="473" y="843" type="curve"/>
		</contour>
		<contour>
			<point x="558" y="782" type="line"/>
			<point x="619" y="751"/>
			<point x="695" y="703"/>
			<point x="732" y="669" type="curve"/>
			<point x="777" y="721" type="line"/>
			<point x="738" y="755"/>
			<point x="663" y="801"/>
			<point x="602" y="829" type="curve"/>
		</contour>
		<contour>
			<point x="793" y="341" type="line"/>
			<point x="665" y="168"/>
			<point x="417" y="58"/>
			<point x="127" y="6" type="curve"/>
			<point x="144" y="-13"/>
			<point x="161" y="-44"/>
			<point x="170" y="-65" type="curve"/>
			<point x="467" y="-5"/>
			<point x="719" y="115"/>
			<point x="859" y="304" type="curve"/>
		</contour>
	</outline>
</glyph>
<glyph name="为字框" format="2">
	<unicode hex="E401"/>
	<advance width="1000"/>
	<outline>
		<contour>
			<point x="82" y="599" type="line"/>
			<point x="82" y="524" type="line"/>
			<point x="853" y="524" type="line"/>
			<point x="853" y="599" type="line"/>
		</contour>
		<contour>
			<point x="823" y="599" type="line"/>
			<point x="823" y="583" type="line"/>
			<point x="809" y="199"/>
			<point x="793" y="51"/>
			<point x="761" y="19" type="curve"/>
			<point x="750" y="7"/>
			<point x="739" y="4"/>
			<point x="718" y="5" type="curve"/>
			<point x="693" y="5"/>
			<point x="630" y="5"/>
			<point x="562" y="11" type="curve"/>
			<point x="577" y="-11"/>
			<point x="587" y="-44"/>
			<point x="589" y="-67" type="curve"/>
			<point x="650" y="-70"/>
			<point x="713" y="-72"/>
			<point x="748" y="-69" type="curve"/>
			<point x="784" y="-66"/>
			<point x="807" y="-57"/>
			<point x="830" y="-29" type="curve"/>
			<point x="869" y="17"/>
			<point x="883" y="159"/>
			<point x="899" y="560" type="curve"/>
			<point x="899" y="571"/>
			<point x="899" y="599"/>
			<point x="899" y="599" type="curve"/>
		</contour>
		<contour>
			<point x="409" y="838" type="line"/>
			<point x="409" y="719" type="line"/>
			<point x="409" y="512"/>
			<point x="388" y="206"/>
			<point x="53" y="-11" type="curve"/>
			<point x="72" y="-23"/>
			<point x="100" y="-49"/>
			<point x="112" y="-66" type="curve"/>
			<point x="461" y="166"/>
			<point x="486" y="496"/>
			<point x="486" y="720" type="curve"/>
			<point x="486" y="839" type="line"/>
		</contour>
	</outline>
</glyph>
<glyph name="步字底无撇" format="2">
	<unicode hex="E402"/>
	<advance width="1000"/>
	<outline>
		<contour>
			<point x="291" y="603" type="line"/>
			<point x="244" y="521"/>
			<point x="164" y="440"/>
			<point x="89" y="387" type="curve"/>
			<point x="106" y="374"/>
			<point x="133" y="345"/>
			<point x="145" y="330" type="curve"/>
			<point x="222" y="392"/>
			<point x="308" y="486"/>
			<point x="363" y="579" type="curve"/>
		</contour>
		<contour>
			<point x="467" y="664" type="line"/>
			<point x="467" y="328" type="line"/>
			<point x="546" y="328" type="line"/>
			<point x="546" y="664" type="line"/>
		</contour>
	</outline>
</glyph>
<glyph name="段二" format="2">
	<unicode hex="E404"/>
	<advance width="1000"/>
	<outline>
		<contour>
			<point x="548" y="845" type="line"/>
			<point x="486" y="812"/>
			<point x="379" y="774"/>
			<point x="285" y="749" type="curve"/>
			<point x="294" y="733"/>
			<point x="306" y="707"/>
			<point x="310" y="691" type="curve"/>
			<point x="409" y="715"/>
			<point x="525" y="749"/>
			<point x="609" y="787" type="curve"/>
		</contour>
		<contour>
			<point x="280" y="752" type="line"/>
			<point x="280" y="-65" type="line"/>
			<point x="353" y="-65" type="line"/>
			<point x="353" y="727" type="line"/>
		</contour>
	</outline>
</glyph>
<glyph name="母二" format="2">
	<unicode hex="E405"/>
	<advance width="1000"/>
	<outline>
		<contour>
			<point x="265" y="791" type="line"/>
			<point x="265" y="722" type="line"/>
			<point x="797" y="722" type="line"/>
			<point x="797" y="791" type="line"/>
		</contour>
		<contour>
			<point x="173" y="154" type="line"/>
			<point x="173" y="85" type="line"/>
			<point x="914" y="85" type="line"/>
			<point x="914" y="154" type="line"/>
		</contour>
		<contour>
			<point x="772" y="791" type="line"/>
			<point x="772" y="772" type="line"/>
			<point x="752" y="248"/>
			<point x="729" y="48"/>
			<point x="688" y="5" type="curve"/>
			<point x="676" y="-10"/>
			<point x="664" y="-13"/>
			<point x="644" y="-13" type="curve"/>
			<point x="618" y="-13"/>
			<point x="563" y="-12"/>
			<point x="500" y="-6" type="curve"/>
			<point x="511" y="-25"/>
			<point x="519" y="-54"/>
			<point x="520" y="-74" type="curve"/>
			<point x="577" y="-77"/>
			<point x="637" y="-79"/>
			<point x="672" y="-76" type="curve"/>
			<point x="709" y="-72"/>
			<point x="732" y="-62"/>
			<point x="755" y="-29" type="curve"/>
			<point x="801" y="27"/>
			<point x="823" y="208"/>
			<point x="845" y="751" type="curve"/>
			<point x="845" y="762"/>
			<point x="845" y="793"/>
			<point x="845" y="793" type="curve"/>
		</contour>
		<contour>
			<point x="223" y="793" type="line"/>
			<point x="199" y="572"/>
			<point x="152" y="265"/>
			<point x="115" y="87" type="curve"/>
			<point x="195" y="87" type="line"/>
			<point x="228" y="260"/>
			<point x="273" y="567"/>
			<point x="302" y="793" type="curve"/>
		</contour>
	</outline>
</glyph>
<glyph name="毌二" format="2">
	<unicode hex="E406"/>
	<advance width="1000"/>
	<outline>
		<contour>
			<point x="238" y="782" type="line"/>
			<point x="238" y="713" type="line"/>
			<point x="773" y="713" type="line"/>
			<point x="773" y="782" type="line"/>
		</contour>
		<contour>
			<point x="185" y="96" type="line"/>
			<point x="185" y="27" type="line"/>
			<point x="772" y="27" type="line"/>
			<point x="772" y="96" type="line"/>
		</contour>
		<contour>
			<point x="199" y="782" type="line"/>
			<point x="191" y="546"/>
			<point x="166" y="216"/>
			<point x="143" y="27" type="curve"/>
			<point x="219" y="27" type="line"/>
			<point x="239" y="212"/>
			<point x="262" y="540"/>
			<point x="273" y="782" type="curve"/>
		</contour>
		<contour>
			<point x="746" y="782" type="line"/>
			<point x="746" y="772" type="line"/>
			<point x="747" y="591"/>
			<point x="737" y="207"/>
			<point x="722" y="-54" type="curve"/>
			<point x="799" y="-56" type="line"/>
			<point x="812" y="207"/>
			<point x="824" y="569"/>
			<point x="824" y="780" type="curve"/>
			<point x="768" y="784" type="line"/>
			<point x="755" y="780" type="line"/>
		</contour>
	</outline>
</glyph>
<glyph name="牙二" format="2">
	<unicode hex="E418"/>
	<advance width="1000"/>
	<outline>
		<contour>
			<point x="116" y="635" type="line"/>
			<point x="116" y="563" type="line"/>
			<point x="914" y="563" type="line"/>
			<point x="914" y="635" type="line"/>
		</contour>
		<contour>
			<point x="146" y="260" type="line"/>
			<point x="111" y="188" type="line"/>
			<point x="933" y="188" type="line"/>
			<point x="933" y="260" type="line"/>
		</contour>
		<contour>
			<point x="160" y="497" type="line"/>
			<point x="144" y="399"/>
			<point x="116" y="268"/>
			<point x="94" y="188" type="curve"/>
			<point x="171" y="188" type="line"/>
			<point x="190" y="263"/>
			<point x="217" y="390"/>
			<point x="235" y="489" type="curve"/>
		</contour>
	</outline>
</glyph>
<glyph name="三竖" format="2">
	<unicode hex="E41A"/>
	<advance width="1000"/>
	<outline>
		<contour>
			<point x="460" y="707" type="line"/>
			<point x="460" y="137" type="line"/>
			<point x="535" y="137" type="line"/>
			<point x="535" y="707" type="line"/>
		</contour>
		<contour>
			<point x="214" y="706" type="line"/>
			<point x="214" y="134" type="line"/>
			<point x="289" y="134" type="line"/>
			<point x="289" y="706" type="line"/>
		</contour>
		<contour>
			<point x="715" y="706" type="line"/>
			<point x="715" y="132" type="line"/>
			<point x="790" y="132" type="line"/>
			<point x="790" y="706" type="line"/>
		</contour>
	</outline>
</glyph>
<glyph name="见字底" format="2">
	<unicode hex="E424"/>
	<advance width="1000"/>
	<outline>
		<contour>
			<point x="517" y="377" type="line"/>
			<point x="517" y="128" type="line"/>
			<point x="517" y="45"/>
			<point x="546" y="24"/>
			<point x="644" y="24" type="curve"/>
			<point x="665" y="24"/>
			<point x="801" y="24"/>
			<point x="823" y="24" type="curve"/>
			<point x="915" y="24"/>
			<point x="937" y="62"/>
			<point x="946" y="218" type="curve"/>
			<point x="926" y="223"/>
			<point x="895" y="234"/>
			<point x="878" y="247" type="curve"/>
			<point x="874" y="112"/>
			<point x="866" y="93"/>
			<point x="818" y="93" type="curve"/>
			<point x="788" y="93"/>
			<point x="674" y="93"/>
			<point x="650" y="93" type="curve"/>
			<point x="600" y="93"/>
			<point x="591" y="98"/>
			<point x="591" y="129" type="curve"/>
			<point x="591" y="377" type="line"/>
		</contour>
		<contour>
			<point x="451" y="694" type="line"/>
			<point x="443" y="340"/>
			<point x="429" y="149"/>
			<point x="46" y="63" type="curve"/>
			<point x="62" y="47"/>
			<point x="82" y="17"/>
			<point x="90" y="-2" type="curve"/>
			<point x="493" y="96"/>
			<point x="520" y="314"/>
			<point x="531" y="694" type="curve"/>
		</contour>
	</outline>
</glyph>
<glyph name="隹字边" format="2">
	<unicode hex="E428"/>
	<advance width="1000"/>
	<outline>
		<contour>
			<point x="233" y="453" type="line"/>
			<point x="233" y="385" type="line"/>
			<point x="885" y="385" type="line"/>
			<point x="885" y="453" type="line"/>
		</contour>
		<contour>
			<point x="233" y="257" type="line"/>
			<point x="233" y="189" type="line"/>
			<point x="885" y="189" type="line"/>
			<point x="885" y="257" type="line"/>
		</contour>
		<contour>
			<point x="232" y="55" type="line"/>
			<point x="232" y="-18" type="line"/>
			<point x="948" y="-18" type="line"/>
			<point x="948" y="55" type="line"/>
		</contour>
		<contour>
			<point x="548" y="606" type="line"/>
			<point x="548" y="20" type="line"/>
			<point x="625" y="20" type="line"/>
			<point x="625" y="606" type="line"/>
		</contour>
		<contour>
			<point x="493" y="808" type="line"/>
			<point x="535" y="761"/>
			<point x="583" y="695"/>
			<point x="605" y="654" type="curve"/>
			<point x="674" y="692" type="line"/>
			<point x="652" y="733"/>
			<point x="602" y="795"/>
			<point x="559" y="840" type="curve"/>
		</contour>
		<contour>
			<point x="232" y="647" type="line"/>
			<point x="232" y="574" type="line"/>
			<point x="948" y="574" type="line"/>
			<point x="948" y="647" type="line"/>
		</contour>
	</outline>
</glyph>
<glyph name="学字头" format="2">
	<unicode hex="E42D"/>
	<advance width="1000"/>
	<outline>
		<contour>
			<point x="417" y="593" type="qcurve"/>
			<point x="349" y="568" type="line"/>
			<point x="386" y="495"/>
			<point x="417" y="404" type="qcurve"/>
			<point x="449" y="314"/>
			<point x="461" y="249" type="qcurve"/>
			<point x="536" y="277" type="line"/>
			<point x="522" y="342"/>
			<point x="457" y="518"/>
		</contour>
		<contour>
			<point x="843" y="564" type="line"/>
			<point x="806" y="470"/>
			<point x="744" y="355" type="qcurve"/>
			<point x="684" y="242"/>
			<point x="629" y="162" type="qcurve"/>
			<point x="701" y="136" type="line"/>
			<point x="809" y="288"/>
			<point x="928" y="538" type="qcurve"/>
		</contour>
		<contour>
			<point x="117" y="515" type="qcurve"/>
			<point x="49" y="484" type="line"/>
			<point x="96" y="414"/>
			<point x="138" y="327" type="qcurve"/>
			<point x="182" y="242"/>
			<point x="201" y="178" type="qcurve"/>
			<point x="274" y="213" type="line"/>
			<point x="253" y="275"/>
			<point x="209" y="359" type="qcurve"/>
			<point x="165" y="444"/>
		</contour>
	</outline>
</glyph>
<glyph name="经右角" format="2">
	<unicode hex="E434"/>
	<advance width="1000"/>
	<outline>
		<contour>
			<point x="120" y="672" type="line"/>
			<point x="120" y="607" type="line"/>
			<point x="754" y="607" type="line"/>
			<point x="754" y="672" type="line"/>
		</contour>
		<contour>
			<point x="739" y="672" type="line"/>
			<point x="739" y="660" type="line"/>
			<point x="617" y="283"/>
			<point x="309" y="196"/>
			<point x="46" y="166" type="curve"/>
			<point x="59" y="149"/>
			<point x="73" y="119"/>
			<point x="79" y="99" type="curve"/>
			<point x="355" y="137"/>
			<point x="673" y="230"/>
			<point x="820" y="639" type="curve"/>
			<point x="770" y="674" type="line"/>
			<point x="756" y="671" type="line"/>
		</contour>
		<contour>
			<point x="466" y="245" type="line"/>
			<point x="621" y="183"/>
			<point x="818" y="124"/>
			<point x="926" y="102" type="curve"/>
			<point x="958" y="162" type="line"/>
			<point x="846" y="186"/>
			<point x="649" y="240"/>
			<point x="497" y="298" type="curve"/>
		</contour>
	</outline>
</glyph>
<glyph name="止旁" format="2">
	<unicode hex="E437"/>
	<advance width="1000"/>
	<outline>
		<contour>
			<point x="509" y="477" type="line"/>
			<point x="509" y="405" type="line"/>
			<point x="685" y="405" type="line"/>
			<point x="685" y="477" type="line"/>
		</contour>
		<contour>
			<point x="475" y="730" type="line"/>
			<point x="475" y="99" type="line"/>
			<point x="548" y="99" type="line"/>
			<point x="548" y="730" type="line"/>
		</contour>
		<contour>
			<point x="305" y="545" type="line"/>
			<point x="305" y="70" type="line"/>
			<point x="373" y="70" type="line"/>
			<point x="373" y="545" type="line"/>
		</contour>
		<contour>
			<point x="245" y="88" type="line"/>
			<point x="260" y="12" type="line"/>
			<point x="385" y="41"/>
			<point x="562" y="82"/>
			<point x="728" y="122" type="curve"/>
			<point x="721" y="191" type="line"/>
			<point x="547" y="152"/>
			<point x="362" y="111"/>
			<point x="244" y="89" type="curve"/>
		</contour>
	</outline>
</glyph>
<glyph name="水字边" format="2">
	<unicode hex="E438"/>
	<advance width="1000"/>
	<outline>
		<contour>
			<point x="538" y="610" type="line"/>
			<point x="480" y="594" type="line"/>
			<point x="568" y="352"/>
			<point x="725" y="127"/>
			<point x="922" y="23" type="curve"/>
			<point x="935" y="45"/>
			<point x="960" y="76"/>
			<point x="978" y="92" type="curve"/>
			<point x="784" y="182"/>
			<point x="621" y="394"/>
			<point x="539" y="611" type="curve"/>
		</contour>
		<contour>
			<point x="819" y="652" type="line"/>
			<point x="764" y="574"/>
			<point x="669" y="470"/>
			<point x="599" y="408" type="curve"/>
			<point x="651" y="367" type="line"/>
			<point x="723" y="426"/>
			<point x="817" y="523"/>
			<point x="888" y="604" type="curve"/>
		</contour>
	</outline>
</glyph>
<glyph name="里无日" format="2">
	<unicode hex="E43A"/>
	<advance width="1000"/>
	<outline>
		<contour>
			<point x="52" y="13" type="line"/>
			<point x="52" y="-49" type="line"/>
			<point x="949" y="-49" type="line"/>
			<point x="949" y="13" type="line"/>
		</contour>
		<contour>
			<point x="126" y="269" type="line"/>
			<point x="126" y="209" type="line"/>
			<point x="885" y="209" type="line"/>
			<point x="885" y="269" type="line"/>
		</contour>
		<contour>
			<point x="458" y="764" type="line"/>
			<point x="458" y="-16" type="line"/>
			<point x="533" y="-16" type="line"/>
			<point x="533" y="764" type="line"/>
		</contour>
	</outline>
</glyph>
<glyph name="全字头" format="2">
	<unicode hex="E43D"/>
	<advance width="1000"/>
	<outline>
		<contour>
			<point x="507" y="673" type="line"/>
			<point x="405" y="508"/>
			<point x="221" y="358"/>
			<point x="35" y="273" type="curve"/>
			<point x="55" y="256"/>
			<point x="77" y="228"/>
			<point x="90" y="208" type="curve"/>
			<point x="277" y="302"/>
			<point x="460" y="462"/>
			<point x="570" y="642" type="curve"/>
		</contour>
		<contour>
			<point x="528" y="618" type="line"/>
			<point x="464" y="586" type="line"/>
			<point x="602" y="409"/>
			<point x="745" y="302"/>
			<point x="915" y="210" type="curve"/>
			<point x="927" y="233"/>
			<point x="950" y="261"/>
			<point x="970" y="277" type="curve"/>
			<point x="801" y="359"/>
			<point x="654" y="460"/>
			<point x="528" y="619" type="curve"/>
		</contour>
	</outline>
</glyph>
<glyph name="龙下角" format="2">
	<unicode hex="E43F"/>
	<advance width="1000"/>
	<outline>
		<contour>
			<point x="402" y="664" type="line"/>
			<point x="402" y="180" type="line"/>
			<point x="402" y="89"/>
			<point x="430" y="64"/>
			<point x="530" y="64" type="curve"/>
			<point x="552" y="64"/>
			<point x="699" y="64"/>
			<point x="722" y="64" type="curve"/>
			<point x="807" y="64"/>
			<point x="830" y="100"/>
			<point x="839" y="220" type="curve"/>
			<point x="818" y="225"/>
			<point x="787" y="237"/>
			<point x="769" y="250" type="curve"/>
			<point x="765" y="153"/>
			<point x="757" y="133"/>
			<point x="717" y="133" type="curve"/>
			<point x="686" y="133"/>
			<point x="562" y="133"/>
			<point x="538" y="133" type="curve"/>
			<point x="488" y="133"/>
			<point x="480" y="141"/>
			<point x="480" y="180" type="curve"/>
			<point x="480" y="663" type="line"/>
		</contour>
		<contour>
			<point x="688" y="588" type="line"/>
			<point x="585" y="396"/>
			<point x="399" y="230"/>
			<point x="185" y="137" type="curve"/>
			<point x="203" y="121"/>
			<point x="225" y="95"/>
			<point x="237" y="77" type="curve"/>
			<point x="455" y="180"/>
			<point x="642" y="354"/>
			<point x="755" y="558" type="curve"/>
		</contour>
	</outline>
</glyph>
<glyph name="互无二" format="2">
	<unicode hex="E440"/>
	<advance width="1000"/>
	<outline>
		<contour>
			<point x="304" y="549" type="line"/>
			<point x="304" y="479" type="line"/>
			<point x="721" y="479" type="line"/>
			<point x="721" y="549" type="line"/>
		</contour>
		<contour>
			<point x="252" y="262" type="line"/>
			<point x="252" y="192" type="line"/>
			<point x="691" y="192" type="line"/>
			<point x="691" y="262" type="line"/>
		</contour>
		<contour>
			<point x="306" y="731" type="line"/>
			<point x="279" y="562"/>
			<point x="232" y="328"/>
			<point x="196" y="191" type="curve"/>
			<point x="279" y="191" type="line"/>
			<point x="312" y="324"/>
			<point x="356" y="557"/>
			<point x="387" y="731" type="curve"/>
		</contour>
		<contour>
			<point x="696" y="548" type="line"/>
			<point x="696" y="538" type="line"/>
			<point x="684" y="420"/>
			<point x="653" y="176"/>
			<point x="625" y="7" type="curve"/>
			<point x="702" y="0" type="line"/>
			<point x="729" y="169"/>
			<point x="759" y="400"/>
			<point x="774" y="544" type="curve"/>
			<point x="718" y="551" type="line"/>
			<point x="705" y="547" type="line"/>
		</contour>
	</outline>
</glyph>
<glyph name="毋无框" format="2">
	<unicode hex="E443"/>
	<advance width="1000"/>
	<outline>
		<contour>
			<point x="54" y="498" type="line"/>
			<point x="54" y="428" type="line"/>
			<point x="948" y="428" type="line"/>
			<point x="948" y="498" type="line"/>
		</contour>
		<contour>
			<point x="493" y="759" type="line"/>
			<point x="486" y="316"/>
			<point x="426" y="88"/>
			<point x="102" y="-24" type="curve"/>
			<point x="120" y="-38"/>
			<point x="152" y="-68"/>
			<point x="163" y="-81" type="curve"/>
			<point x="486" y="53"/>
			<point x="555" y="288"/>
			<point x="568" y="757" type="curve"/>
		</contour>
	</outline>
</glyph>
<glyph name="贲字腰" format="2">
	<unicode hex="E44C"/>
	<advance width="1000"/>
	<outline>
		<contour>
			<point x="63" y="655" type="line"/>
			<point x="63" y="577" type="line"/>
			<point x="935" y="577" type="line"/>
			<point x="935" y="655" type="line"/>
		</contour>
		<contour>
			<point x="627" y="790" type="line"/>
			<point x="627" y="428" type="line"/>
			<point x="706" y="428" type="line"/>
			<point x="706" y="790" type="line"/>
		</contour>
		<contour>
			<point x="288" y="790" type="line"/>
			<point x="288" y="428" type="line"/>
			<point x="366" y="428" type="line"/>
			<point x="366" y="790" type="line"/>
		</contour>
	</outline>
</glyph>
<glyph name="毌无框" format="2">
	<unicode hex="E452"/>
	<advance width="1000"/>
	<outline>
		<contour>
			<point x="43" y="448" type="line"/>
			<point x="43" y="378" type="line"/>
			<point x="958" y="378" type="line"/>
			<point x="958" y="448" type="line"/>
		</contour>
		<contour>
			<point x="470" y="746" type="line"/>
			<point x="465" y="528"/>
			<point x="446" y="223"/>
			<point x="426" y="49" type="curve"/>
			<point x="501" y="47" type="line"/>
			<point x="517" y="219"/>
			<point x="534" y="524"/>
			<point x="542" y="747" type="curve"/>
		</contour>
	</outline>
</glyph>
<glyph name="衣框" format="2">
	<unicode hex="E80A"/>
	<advance width="1000"/>
	<outline>
		<contour>
			<point x="72" y="733" type="line"/>
			<point x="72" y="664" type="line"/>
			<point x="930" y="664" type="line"/>
			<point x="930" y="733" type="line"/>
		</contour>
		<contour>
			<point x="556" y="350" type="line"/>
			<point x="491" y="334" type="line"/>
			<point x="563" y="130"/>
			<point x="702" y="-5"/>
			<point x="917" y="-63" type="curve"/>
			<point x="927" y="-43"/>
			<point x="947" y="-14"/>
			<point x="964" y="2" type="curve"/>
			<point x="757" y="48"/>
			<point x="618" y="171"/>
			<point x="554" y="349" type="curve"/>
		</contour>
		<contour>
			<point x="853" y="314" type="line"/>
			<point x="798" y="265"/>
			<point x="702" y="196"/>
			<point x="631" y="156" type="curve"/>
			<point x="677" y="119" type="line"/>
			<point x="750" y="156"/>
			<point x="844" y="215"/>
			<point x="916" y="269" type="curve"/>
		</contour>
		<contour>
			<point x="438" y="830" type="line"/>
			<point x="454" y="787"/>
			<point x="473" y="729"/>
			<point x="481" y="695" type="curve"/>
			<point x="559" y="716" type="line"/>
			<point x="550" y="749"/>
			<point x="530" y="805"/>
			<point x="512" y="846" type="curve"/>
		</contour>
		<contour>
			<point x="422" y="356" type="line"/>
			<point x="339" y="264"/>
			<point x="175" y="191"/>
			<point x="33" y="151" type="curve"/>
			<point x="43" y="134"/>
			<point x="59" y="96"/>
			<point x="64" y="80" type="curve"/>
			<point x="215" y="132"/>
			<point x="387" y="219"/>
			<point x="482" y="328" type="curve"/>
		</contour>
		<contour>
			<point x="248" y="-87" type="line"/>
			<point x="269" y="-73"/>
			<point x="303" y="-62"/>
			<point x="558" y="16" type="curve"/>
			<point x="555" y="31"/>
			<point x="553" y="61"/>
			<point x="554" y="81" type="curve"/>
			<point x="277" y="3" type="line"/>
			<point x="243" y="-24" type="line"/>
		</contour>
		<contour>
			<point x="249" y="-86" type="line"/>
			<point x="249" y="-62"/>
			<point x="346" y="-26"/>
			<point x="346" y="-26" type="curve"/>
			<point x="346" y="229" type="line"/>
			<point x="273" y="229" type="line"/>
			<point x="273" y="46" type="line"/>
			<point x="273" y="10"/>
			<point x="240" y="-5"/>
			<point x="219" y="-12" type="curve"/>
			<point x="231" y="-32"/>
			<point x="243" y="-66"/>
			<point x="248" y="-86" type="curve"/>
		</contour>
	</outline>
</glyph>
<glyph name="修字旁" format="2">
	<unicode hex="E80E"/>
	<advance width="1000"/>
	<outline>
		<contour>
			<point x="578" y="561" type="line"/>
			<point x="578" y="78" type="line"/>
			<point x="642" y="78" type="line"/>
			<point x="642" y="561" type="line"/>
		</contour>
		<contour>
			<point x="507" y="834" type="line"/>
			<point x="459" y="679"/>
			<point x="379" y="525"/>
			<point x="292" y="425" type="curve"/>
			<point x="305" y="406"/>
			<point x="325" y="366"/>
			<point x="332" y="348" type="curve"/>
			<point x="431" y="465"/>
			<point x="521" y="641"/>
			<point x="577" y="815" type="curve"/>
		</contour>
		<contour>
			<point x="425" y="590" type="line"/>
			<point x="425" y="-80" type="line"/>
			<point x="497" y="-80" type="line"/>
			<point x="497" y="657" type="line"/>
			<point x="495" y="659" type="line"/>
		</contour>
	</outline>
</glyph>
<glyph name="兑字头" format="2">
	<unicode hex="E814"/>
	<advance width="1000"/>
	<outline>
		<contour>
			<point x="227" y="812" type="line"/>
			<point x="270" y="757"/>
			<point x="316" y="682"/>
			<point x="335" y="635" type="curve"/>
			<point x="404" y="668" type="line"/>
			<point x="384" y="716"/>
			<point x="336" y="788"/>
			<point x="293" y="842" type="curve"/>
		</contour>
		<contour>
			<point x="699" y="842" type="line"/>
			<point x="668" y="777"/>
			<point x="611" y="684"/>
			<point x="565" y="628" type="curve"/>
			<point x="629" y="604" type="line"/>
			<point x="675" y="658"/>
			<point x="733" y="742"/>
			<point x="778" y="815" type="curve"/>
		</contour>
		<contour>
			<point x="239" y="571" type="line"/>
			<point x="761" y="571" type="line"/>
			<point x="761" y="366" type="line"/>
			<point x="239" y="366" type="line"/>
		</contour>
		<contour>
			<point x="163" y="639" type="line"/>
			<point x="163" y="298" type="line"/>
			<point x="842" y="298" type="line"/>
			<point x="842" y="639" type="line"/>
		</contour>
	</outline>
</glyph>
<glyph name="落字框" format="2">
	<unicode hex="E820"/>
	<advance width="1000"/>
	<outline>
		<contour>
			<point x="61" y="-19" type="line"/>
			<point x="115" y="-77" type="line"/>
			<point x="177" y="-2"/>
			<point x="248" y="96"/>
			<point x="305" y="179" type="curve"/>
			<point x="260" y="233" type="line"/>
			<point x="196" y="143"/>
			<point x="115" y="41"/>
			<point x="60" y="-19" type="curve"/>
		</contour>
		<contour>
			<point x="107" y="578" type="line"/>
			<point x="163" y="548"/>
			<point x="239" y="501"/>
			<point x="276" y="471" type="curve"/>
			<point x="322" y="528" type="line"/>
			<point x="284" y="558"/>
			<point x="207" y="601"/>
			<point x="151" y="629" type="curve"/>
		</contour>
		<contour>
			<point x="40" y="384" type="line"/>
			<point x="100" y="357"/>
			<point x="174" y="313"/>
			<point x="211" y="281" type="curve"/>
			<point x="256" y="339" type="line"/>
			<point x="218" y="371"/>
			<point x="141" y="412"/>
			<point x="83" y="436" type="curve"/>
		</contour>
		<contour>
			<point x="286" y="839" type="line"/>
			<point x="286" y="618" type="line"/>
			<point x="359" y="618" type="line"/>
			<point x="359" y="839" type="line"/>
		</contour>
		<contour>
			<point x="631" y="839" type="line"/>
			<point x="631" y="618" type="line"/>
			<point x="704" y="618" type="line"/>
			<point x="704" y="839" type="line"/>
		</contour>
		<contour>
			<point x="59" y="770" type="line"/>
			<point x="59" y="703" type="line"/>
			<point x="939" y="703" type="line"/>
			<point x="939" y="770" type="line"/>
		</contour>
	</outline>
</glyph>
<glyph name="或字心" format="2">
	<unicode hex="E82F"/>
	<advance width="1000"/>
	<outline>
		<contour>
			<point x="264" y="300" type="line"/>
			<point x="264" y="708" type="line"/>
			<point x="737" y="708" type="line"/>
			<point x="737" y="300" type="line"/>
		</contour>
		<contour>
			<point x="187" y="782" type="line"/>
			<point x="187" y="228" type="line"/>
			<point x="814" y="228" type="line"/>
			<point x="814" y="782" type="line"/>
		</contour>
		<contour>
			<point x="54" y="54" type="line"/>
			<point x="54" y="-24" type="line"/>
			<point x="943" y="-24" type="line"/>
			<point x="943" y="54" type="line"/>
		</contour>
	</outline>
</glyph>
<glyph name="爲字底" format="2">
	<unicode hex="E831"/>
	<advance width="1000"/>
	<outline>
		<contour>
			<point x="215" y="339" type="line"/>
			<point x="215" y="275" type="line"/>
			<point x="878" y="275" type="line"/>
			<point x="878" y="339" type="line"/>
		</contour>
		<contour>
			<point x="238" y="655" type="line"/>
			<point x="238" y="593" type="line"/>
			<point x="707" y="593" type="line"/>
			<point x="707" y="655" type="line"/>
		</contour>
		<contour>
			<point x="229" y="499" type="line"/>
			<point x="229" y="436" type="line"/>
			<point x="798" y="436" type="line"/>
			<point x="798" y="499" type="line"/>
		</contour>
		<contour>
			<point x="859" y="340" type="line"/>
			<point x="859" y="329" type="line"/>
			<point x="847" y="156"/>
			<point x="834" y="89"/>
			<point x="816" y="71" type="curve"/>
			<point x="809" y="62"/>
			<point x="801" y="61"/>
			<point x="787" y="61" type="curve"/>
			<point x="773" y="61"/>
			<point x="738" y="62"/>
			<point x="700" y="66" type="curve"/>
			<point x="709" y="49"/>
			<point x="716" y="23"/>
			<point x="717" y="5" type="curve"/>
			<point x="758" y="2"/>
			<point x="798" y="2"/>
			<point x="820" y="4" type="curve"/>
			<point x="844" y="6"/>
			<point x="861" y="13"/>
			<point x="877" y="30" type="curve"/>
			<point x="903" y="57"/>
			<point x="918" y="128"/>
			<point x="932" y="311" type="curve"/>
			<point x="933" y="321"/>
			<point x="934" y="341"/>
			<point x="934" y="341" type="curve"/>
		</contour>
		<contour>
			<point x="546" y="212" type="line"/>
			<point x="569" y="163"/>
			<point x="589" y="97"/>
			<point x="595" y="56" type="curve"/>
			<point x="649" y="71" type="line"/>
			<point x="643" y="111"/>
			<point x="622" y="175"/>
			<point x="597" y="224" type="curve"/>
		</contour>
		<contour>
			<point x="666" y="228" type="line"/>
			<point x="695" y="190"/>
			<point x="725" y="137"/>
			<point x="737" y="102" type="curve"/>
			<point x="786" y="123" type="line"/>
			<point x="774" y="157"/>
			<point x="743" y="208"/>
			<point x="713" y="245" type="curve"/>
		</contour>
		<contour>
			<point x="419" y="205" type="line"/>
			<point x="431" y="149"/>
			<point x="438" y="77"/>
			<point x="436" y="31" type="curve"/>
			<point x="493" y="39" type="line"/>
			<point x="494" y="85"/>
			<point x="487" y="157"/>
			<point x="473" y="212" type="curve"/>
		</contour>
		<contour>
			<point x="303" y="223" type="line"/>
			<point x="288" y="158"/>
			<point x="259" y="80"/>
			<point x="218" y="33" type="curve"/>
			<point x="275" y="5" type="line"/>
			<point x="317" y="55"/>
			<point x="344" y="137"/>
			<point x="361" y="204" type="curve"/>
		</contour>
		<contour>
			<point x="685" y="657" type="line"/>
			<point x="685" y="648" type="line"/>
			<point x="681" y="607"/>
			<point x="671" y="534"/>
			<point x="661" y="480" type="curve"/>
			<point x="730" y="473" type="line"/>
			<point x="739" y="526"/>
			<point x="748" y="593"/>
			<point x="753" y="655" type="curve"/>
			<point x="702" y="661" type="line"/>
			<point x="690" y="657" type="line"/>
		</contour>
		<contour>
			<point x="775" y="501" type="line"/>
			<point x="775" y="492" type="line"/>
			<point x="771" y="451"/>
			<point x="760" y="376"/>
			<point x="749" y="321" type="curve"/>
			<point x="820" y="314" type="line"/>
			<point x="829" y="368"/>
			<point x="839" y="435"/>
			<point x="845" y="498" type="curve"/>
			<point x="794" y="505" type="line"/>
			<point x="782" y="501" type="line"/>
		</contour>
		<contour>
			<point x="193" y="657" type="line"/>
			<point x="193" y="525" type="line"/>
			<point x="193" y="390"/>
			<point x="174" y="200"/>
			<point x="43" y="63" type="curve"/>
			<point x="58" y="54"/>
			<point x="88" y="29"/>
			<point x="99" y="15" type="curve"/>
			<point x="238" y="162"/>
			<point x="264" y="377"/>
			<point x="264" y="525" type="curve"/>
			<point x="264" y="658" type="line"/>
		</contour>
	</outline>
</glyph>
<glyph name="周字心" format="2">
	<unicode hex="E832"/>
	<advance width="1001"/>
	<outline>
		<contour>
			<point x="746" y="240" type="line"/>
			<point x="258" y="240" type="line"/>
			<point x="258" y="32" type="line"/>
			<point x="746" y="32" type="line"/>
		</contour>
		<contour>
			<point x="184" y="-76" type="line"/>
			<point x="184" y="309" type="line"/>
			<point x="822" y="309" type="line"/>
			<point x="822" y="-76" type="line"/>
			<point x="746" y="-76" type="line"/>
			<point x="746" y="-36" type="line"/>
			<point x="258" y="-36" type="line"/>
			<point x="258" y="-76" type="line"/>
		</contour>
		<contour>
			<point x="536" y="488" type="line"/>
			<point x="942" y="488" type="line"/>
			<point x="942" y="419" type="line"/>
			<point x="60" y="419" type="line"/>
			<point x="60" y="488" type="line"/>
			<point x="460" y="488" type="line"/>
			<point x="460" y="643" type="line"/>
			<point x="131" y="643" type="line"/>
			<point x="131" y="711" type="line"/>
			<point x="460" y="711" type="line"/>
			<point x="460" y="837" type="line"/>
			<point x="536" y="837" type="line"/>
			<point x="536" y="711" type="line"/>
			<point x="870" y="711" type="line"/>
			<point x="870" y="643" type="line"/>
			<point x="536" y="643" type="line"/>
		</contour>
	</outline>
</glyph>
<glyph name="赢字框" format="2">
	<unicode hex="E834"/>
	<advance width="1000"/>
	<outline>
		<contour>
			<point x="40" y="781" type="line"/>
			<point x="40" y="727" type="line"/>
			<point x="956" y="727" type="line"/>
			<point x="956" y="781" type="line"/>
		</contour>
		<contour>
			<point x="384" y="380" type="line"/>
			<point x="384" y="-8" type="line"/>
			<point x="384" y="-18"/>
			<point x="381" y="-21"/>
			<point x="369" y="-22" type="curve"/>
			<point x="357" y="-23"/>
			<point x="321" y="-23"/>
			<point x="277" y="-22" type="curve"/>
			<point x="286" y="-37"/>
			<point x="294" y="-60"/>
			<point x="296" y="-75" type="curve"/>
			<point x="355" y="-76"/>
			<point x="393" y="-75"/>
			<point x="416" y="-66" type="curve"/>
			<point x="440" y="-56"/>
			<point x="446" y="-40"/>
			<point x="446" y="-9" type="curve"/>
			<point x="446" y="379" type="line"/>
		</contour>
		<contour>
			<point x="109" y="379" type="line"/>
			<point x="109" y="206" type="line"/>
			<point x="109" y="129"/>
			<point x="101" y="29"/>
			<point x="31" y="-45" type="curve"/>
			<point x="47" y="-51"/>
			<point x="74" y="-68"/>
			<point x="85" y="-78" type="curve"/>
			<point x="158" y="0"/>
			<point x="172" y="119"/>
			<point x="172" y="206" type="curve"/>
			<point x="172" y="380" type="line"/>
		</contour>
		<contour>
			<point x="534" y="384" type="line"/>
			<point x="534" y="219" type="line"/>
			<point x="534" y="136"/>
			<point x="518" y="44"/>
			<point x="460" y="-36" type="curve"/>
			<point x="473" y="-43"/>
			<point x="497" y="-59"/>
			<point x="507" y="-70" type="curve"/>
			<point x="569" y="14"/>
			<point x="591" y="125"/>
			<point x="591" y="219" type="curve"/>
			<point x="591" y="381" type="line"/>
		</contour>
		<contour>
			<point x="231" y="527" type="line"/>
			<point x="766" y="527" type="line"/>
			<point x="766" y="471" type="line"/>
			<point x="231" y="471" type="line"/>
		</contour>
		<contour>
			<point x="163" y="575" type="line"/>
			<point x="163" y="422" type="line"/>
			<point x="836" y="422" type="line"/>
			<point x="836" y="575" type="line"/>
		</contour>
		<contour>
			<point x="140" y="381" type="line"/>
			<point x="140" y="329" type="line"/>
			<point x="420" y="329" type="line"/>
			<point x="420" y="381" type="line"/>
		</contour>
		<contour>
			<point x="534" y="381" type="line"/>
			<point x="534" y="326" type="line"/>
			<point x="833" y="326" type="line"/>
			<point x="833" y="381" type="line"/>
		</contour>
		<contour>
			<point x="140" y="264" type="line"/>
			<point x="140" y="213" type="line"/>
			<point x="420" y="213" type="line"/>
			<point x="420" y="264" type="line"/>
		</contour>
		<contour>
			<point x="139" y="143" type="line"/>
			<point x="139" y="92" type="line"/>
			<point x="421" y="92" type="line"/>
			<point x="421" y="143" type="line"/>
		</contour>
		<contour>
			<point x="802" y="381" type="line"/>
			<point x="802" y="29" type="line"/>
			<point x="802" y="-32"/>
			<point x="805" y="-46"/>
			<point x="817" y="-58" type="curve"/>
			<point x="828" y="-69"/>
			<point x="846" y="-72"/>
			<point x="862" y="-72" type="curve"/>
			<point x="871" y="-72"/>
			<point x="888" y="-72"/>
			<point x="898" y="-72" type="curve"/>
			<point x="911" y="-72"/>
			<point x="925" y="-70"/>
			<point x="934" y="-64" type="curve"/>
			<point x="945" y="-58"/>
			<point x="953" y="-48"/>
			<point x="958" y="-32" type="curve"/>
			<point x="962" y="-18"/>
			<point x="965" y="23"/>
			<point x="966" y="59" type="curve"/>
			<point x="952" y="63"/>
			<point x="933" y="72"/>
			<point x="921" y="82" type="curve"/>
			<point x="921" y="46"/>
			<point x="920" y="17"/>
			<point x="917" y="4" type="curve"/>
			<point x="915" y="-7"/>
			<point x="912" y="-13"/>
			<point x="909" y="-16" type="curve"/>
			<point x="906" y="-19"/>
			<point x="899" y="-20"/>
			<point x="893" y="-20" type="curve"/>
			<point x="887" y="-20"/>
			<point x="878" y="-20"/>
			<point x="874" y="-20" type="curve"/>
			<point x="868" y="-20"/>
			<point x="864" y="-19"/>
			<point x="862" y="-16" type="curve"/>
			<point x="859" y="-12"/>
			<point x="858" y="3"/>
			<point x="858" y="25" type="curve"/>
			<point x="858" y="384" type="line"/>
		</contour>
		<contour>
			<point x="440" y="836" type="line"/>
			<point x="456" y="810"/>
			<point x="475" y="774"/>
			<point x="484" y="751" type="curve"/>
			<point x="556" y="771" type="line"/>
			<point x="546" y="792"/>
			<point x="526" y="826"/>
			<point x="508" y="851" type="curve"/>
		</contour>
		<contour>
			<point x="156" y="776" type="line"/>
			<point x="156" y="617" type="line"/>
			<point x="887" y="617" type="line"/>
			<point x="887" y="670" type="line"/>
			<point x="218" y="670" type="line"/>
			<point x="218" y="776" type="line"/>
		</contour>
		<contour>
			<point x="618" y="233" type="line"/>
			<point x="659" y="184"/>
			<point x="707" y="114"/>
			<point x="729" y="68" type="curve"/>
			<point x="773" y="98" type="line"/>
			<point x="749" y="144"/>
			<point x="702" y="211"/>
			<point x="658" y="260" type="curve"/>
		</contour>
	</outline>
</glyph>
<glyph name="鹿旁" format="2">
	<unicode hex="E838"/>
	<advance width="1000"/>
	<outline>
		<contour>
			<point x="242" y="739" type="line"/>
			<point x="242" y="676" type="line"/>
			<point x="798" y="676" type="line"/>
			<point x="798" y="739" type="line"/>
		</contour>
		<contour>
			<point x="391" y="227" type="line"/>
			<point x="391" y="169" type="line"/>
			<point x="519" y="169" type="line"/>
			<point x="519" y="227" type="line"/>
		</contour>
		<contour>
			<point x="415" y="691" type="line"/>
			<point x="415" y="380" type="line"/>
			<point x="464" y="380" type="line"/>
			<point x="464" y="691" type="line"/>
		</contour>
		<contour>
			<point x="562" y="691" type="line"/>
			<point x="562" y="380" type="line"/>
			<point x="611" y="380" type="line"/>
			<point x="611" y="691" type="line"/>
		</contour>
		<contour>
			<point x="242" y="583" type="line"/>
			<point x="242" y="524" type="line"/>
			<point x="733" y="524" type="line"/>
			<point x="733" y="403" type="line"/>
			<point x="242" y="403" type="line"/>
			<point x="242" y="345" type="line"/>
			<point x="786" y="345" type="line"/>
			<point x="786" y="583" type="line"/>
		</contour>
		<contour>
			<point x="214" y="739" type="line"/>
			<point x="214" y="338" type="line"/>
			<point x="214" y="218"/>
			<point x="211" y="66"/>
			<point x="163" y="-40" type="curve"/>
			<point x="176" y="-46"/>
			<point x="201" y="-63"/>
			<point x="211" y="-72" type="curve"/>
			<point x="263" y="39"/>
			<point x="271" y="212"/>
			<point x="271" y="339" type="curve"/>
			<point x="271" y="740" type="line"/>
		</contour>
		<contour>
			<point x="431" y="827" type="line"/>
			<point x="450" y="788"/>
			<point x="469" y="736"/>
			<point x="476" y="704" type="curve"/>
			<point x="548" y="724" type="line"/>
			<point x="540" y="755"/>
			<point x="519" y="806"/>
			<point x="499" y="843" type="curve"/>
		</contour>
		<contour>
			<point x="355" y="-46" type="line"/>
			<point x="366" y="-37"/>
			<point x="389" y="-28"/>
			<point x="489" y="3" type="curve"/>
			<point x="487" y="16"/>
			<point x="485" y="39"/>
			<point x="485" y="56" type="curve"/>
			<point x="376" y="28" type="line"/>
			<point x="351" y="6" type="line"/>
		</contour>
		<contour>
			<point x="605" y="229" type="line"/>
			<point x="605" y="171" type="line"/>
			<point x="750" y="171" type="line"/>
			<point x="750" y="229" type="line"/>
		</contour>
		<contour>
			<point x="566" y="-46" type="line"/>
			<point x="579" y="-35"/>
			<point x="604" y="-26"/>
			<point x="731" y="18" type="curve"/>
			<point x="728" y="31"/>
			<point x="725" y="55"/>
			<point x="725" y="71" type="curve"/>
			<point x="588" y="29" type="line"/>
			<point x="562" y="5" type="line"/>
		</contour>
		<contour>
			<point x="354" y="-45" type="line"/>
			<point x="354" y="-24"/>
			<point x="413" y="4"/>
			<point x="413" y="4" type="curve"/>
			<point x="413" y="330" type="line"/>
			<point x="358" y="330" type="line"/>
			<point x="358" y="62" type="line"/>
			<point x="358" y="26"/>
			<point x="342" y="15"/>
			<point x="329" y="9" type="curve"/>
			<point x="338" y="-5"/>
			<point x="349" y="-30"/>
			<point x="353" y="-45" type="curve"/>
		</contour>
		<contour>
			<point x="563" y="-46" type="line"/>
			<point x="563" y="-25"/>
			<point x="627" y="3"/>
			<point x="627" y="3" type="curve"/>
			<point x="627" y="329" type="line"/>
			<point x="572" y="329" type="line"/>
			<point x="572" y="61" type="line"/>
			<point x="572" y="25"/>
			<point x="553" y="13"/>
			<point x="539" y="7" type="curve"/>
			<point x="548" y="-7"/>
			<point x="559" y="-32"/>
			<point x="562" y="-47" type="curve"/>
		</contour>
	</outline>
</glyph>
<glyph name="比旁" format="2">
	<unicode hex="E839"/>
	<advance width="1000"/>
	<outline>
		<contour>
			<point x="433" y="531" type="line"/>
			<point x="433" y="457" type="line"/>
			<point x="710" y="457" type="line"/>
			<point x="710" y="531" type="line"/>
		</contour>
		<contour>
			<point x="379" y="-71" type="line"/>
			<point x="379" y="-42"/>
			<point x="462" y="10"/>
			<point x="462" y="10" type="curve"/>
			<point x="462" y="830" type="line"/>
			<point x="383" y="830" type="line"/>
			<point x="383" y="70" type="line"/>
			<point x="383" y="27"/>
			<point x="359" y="4"/>
			<point x="342" y="-7" type="curve"/>
			<point x="355" y="-22"/>
			<point x="373" y="-54"/>
			<point x="379" y="-73" type="curve"/>
		</contour>
		<contour>
			<point x="379" y="-73" type="line"/>
			<point x="402" y="-55"/>
			<point x="439" y="-39"/>
			<point x="713" y="50" type="curve"/>
			<point x="709" y="68"/>
			<point x="707" y="102"/>
			<point x="708" y="125" type="curve"/>
			<point x="406" y="32" type="line"/>
			<point x="369" y="2" type="line"/>
		</contour>
	</outline>
</glyph>
<glyph name="璺字头无冖" format="2">
	<unicode hex="E868"/>
	<advance width="1000"/>
	<outline>
		<contour>
			<point x="807" y="801" type="line"/>
			<point x="805" y="681"/>
			<point x="797" y="517"/>
			<point x="787" y="420" type="curve"/>
			<point x="849" y="420" type="line"/>
			<point x="858" y="515"/>
			<point x="867" y="679"/>
			<point x="872" y="802" type="curve"/>
		</contour>
		<contour>
			<point x="296" y="833" type="line"/>
			<point x="253" y="822"/>
			<point x="179" y="802"/>
			<point x="129" y="794" type="curve"/>
			<point x="157" y="757" type="line"/>
			<point x="209" y="763"/>
			<point x="278" y="773"/>
			<point x="330" y="793" type="curve"/>
		</contour>
		<contour>
			<point x="130" y="795" type="line"/>
			<point x="146" y="424" type="line"/>
			<point x="209" y="424" type="line"/>
			<point x="195" y="778" type="line"/>
		</contour>
		<contour>
			<point x="683" y="800" type="line"/>
			<point x="683" y="745" type="line"/>
			<point x="832" y="745" type="line"/>
			<point x="832" y="800" type="line"/>
		</contour>
		<contour>
			<point x="170" y="689" type="line"/>
			<point x="170" y="636" type="line"/>
			<point x="313" y="636" type="line"/>
			<point x="313" y="689" type="line"/>
		</contour>
		<contour>
			<point x="428" y="708" type="line"/>
			<point x="428" y="666" type="line"/>
			<point x="573" y="666" type="line"/>
			<point x="573" y="708" type="line"/>
		</contour>
		<contour>
			<point x="170" y="568" type="line"/>
			<point x="170" y="514" type="line"/>
			<point x="316" y="514" type="line"/>
			<point x="316" y="568" type="line"/>
		</contour>
		<contour>
			<point x="689" y="680" type="line"/>
			<point x="689" y="626" type="line"/>
			<point x="832" y="626" type="line"/>
			<point x="832" y="680" type="line"/>
		</contour>
		<contour>
			<point x="684" y="566" type="line"/>
			<point x="684" y="512" type="line"/>
			<point x="830" y="512" type="line"/>
			<point x="830" y="566" type="line"/>
		</contour>
		<contour>
			<point x="348" y="808" type="line"/>
			<point x="348" y="418" type="line"/>
			<point x="402" y="418" type="line"/>
			<point x="402" y="758" type="line"/>
			<point x="594" y="758" type="line"/>
			<point x="594" y="418" type="line"/>
			<point x="650" y="418" type="line"/>
			<point x="650" y="808" type="line"/>
		</contour>
		<contour>
			<point x="474" y="588" type="line"/>
			<point x="522" y="588" type="line"/>
			<point x="522" y="522" type="line"/>
			<point x="474" y="522" type="line"/>
		</contour>
		<contour>
			<point x="435" y="627" type="line"/>
			<point x="435" y="481" type="line"/>
			<point x="561" y="481" type="line"/>
			<point x="561" y="627" type="line"/>
		</contour>
	</outline>
</glyph>
<glyph name="彀字框无一" format="2">
	<unicode hex="E873"/>
	<advance width="1000"/>
	<outline>
		<contour>
			<point x="520" y="398" type="line"/>
			<point x="520" y="331" type="line"/>
			<point x="863" y="331" type="line"/>
			<point x="863" y="398" type="line"/>
		</contour>
		<contour>
			<point x="49" y="762" type="line"/>
			<point x="49" y="707" type="line"/>
			<point x="504" y="707" type="line"/>
			<point x="504" y="762" type="line"/>
		</contour>
		<contour>
			<point x="85" y="648" type="line"/>
			<point x="85" y="594" type="line"/>
			<point x="468" y="594" type="line"/>
			<point x="468" y="648" type="line"/>
		</contour>
		<contour>
			<point x="605" y="798" type="line"/>
			<point x="605" y="734" type="line"/>
			<point x="822" y="734" type="line"/>
			<point x="822" y="798" type="line"/>
		</contour>
		<contour>
			<point x="847" y="397" type="line"/>
			<point x="847" y="384" type="line"/>
			<point x="791" y="174"/>
			<point x="632" y="36"/>
			<point x="451" y="-21" type="curve"/>
			<point x="465" y="-36"/>
			<point x="483" y="-63"/>
			<point x="491" y="-81" type="curve"/>
			<point x="686" y="-10"/>
			<point x="851" y="134"/>
			<point x="916" y="382" type="curve"/>
			<point x="871" y="399" type="line"/>
			<point x="858" y="396" type="line"/>
		</contour>
		<contour>
			<point x="614" y="351" type="line"/>
			<point x="551" y="335" type="line"/>
			<point x="614" y="137"/>
			<point x="736" y="-10"/>
			<point x="914" y="-79" type="curve"/>
			<point x="924" y="-61"/>
			<point x="945" y="-33"/>
			<point x="962" y="-19" type="curve"/>
			<point x="791" y="39"/>
			<point x="672" y="175"/>
			<point x="615" y="350" type="curve"/>
		</contour>
		<contour>
			<point x="578" y="796" type="line"/>
			<point x="578" y="656" type="line"/>
			<point x="578" y="591"/>
			<point x="567" y="515"/>
			<point x="487" y="459" type="curve"/>
			<point x="502" y="449"/>
			<point x="529" y="424"/>
			<point x="539" y="410" type="curve"/>
			<point x="630" y="475"/>
			<point x="647" y="574"/>
			<point x="647" y="654" type="curve"/>
			<point x="647" y="795" type="line"/>
		</contour>
		<contour>
			<point x="236" y="836" type="line"/>
			<point x="236" y="609" type="line"/>
			<point x="306" y="609" type="line"/>
			<point x="306" y="836" type="line"/>
		</contour>
		<contour>
			<point x="60" y="542" type="line"/>
			<point x="60" y="408" type="line"/>
			<point x="121" y="408" type="line"/>
			<point x="121" y="490" type="line"/>
			<point x="426" y="490" type="line"/>
			<point x="426" y="408" type="line"/>
			<point x="490" y="408" type="line"/>
			<point x="490" y="542" type="line"/>
		</contour>
		<contour>
			<point x="792" y="792" type="line"/>
			<point x="792" y="544" type="line"/>
			<point x="792" y="477"/>
			<point x="804" y="452"/>
			<point x="867" y="452" type="curve"/>
			<point x="878" y="452"/>
			<point x="904" y="452"/>
			<point x="915" y="452" type="curve"/>
			<point x="931" y="452"/>
			<point x="948" y="452"/>
			<point x="958" y="456" type="curve"/>
			<point x="956" y="472"/>
			<point x="954" y="496"/>
			<point x="953" y="513" type="curve"/>
			<point x="942" y="510"/>
			<point x="924" y="509"/>
			<point x="914" y="509" type="curve"/>
			<point x="906" y="509"/>
			<point x="883" y="509"/>
			<point x="876" y="509" type="curve"/>
			<point x="865" y="509"/>
			<point x="864" y="516"/>
			<point x="864" y="541" type="curve"/>
			<point x="864" y="790" type="line"/>
		</contour>
	</outline>
</glyph>
<glyph name="夐字头" format="2">
	<unicode hex="E895"/>
	<advance width="1000"/>
	<outline>
		<contour>
			<point x="328" y="685" type="line"/>
			<point x="276" y="618"/>
			<point x="180" y="540"/>
			<point x="53" y="485" type="curve"/>
			<point x="69" y="474"/>
			<point x="90" y="450"/>
			<point x="100" y="434" type="curve"/>
			<point x="235" y="500"/>
			<point x="334" y="583"/>
			<point x="403" y="669" type="curve"/>
		</contour>
		<contour>
			<point x="163" y="521" type="line"/>
			<point x="163" y="234" type="line"/>
			<point x="234" y="234" type="line"/>
			<point x="234" y="471" type="line"/>
			<point x="776" y="471" type="line"/>
			<point x="776" y="234" type="line"/>
			<point x="850" y="234" type="line"/>
			<point x="850" y="521" type="line"/>
		</contour>
		<contour>
			<point x="319" y="626" type="line"/>
			<point x="267" y="574" type="line"/>
			<point x="628" y="574" type="line"/>
			<point x="628" y="626" type="line"/>
		</contour>
		<contour>
			<point x="473" y="425" type="line"/>
			<point x="531" y="367"/>
			<point x="625" y="286"/>
			<point x="692" y="225" type="curve"/>
			<point x="731" y="260" type="line"/>
			<point x="662" y="321"/>
			<point x="569" y="400"/>
			<point x="513" y="457" type="curve"/>
		</contour>
		<contour>
			<point x="497" y="489" type="line"/>
			<point x="471" y="435"/>
			<point x="358" y="318"/>
			<point x="279" y="263" type="curve"/>
			<point x="291" y="253"/>
			<point x="311" y="233"/>
			<point x="319" y="222" type="curve"/>
			<point x="400" y="284"/>
			<point x="523" y="412"/>
			<point x="553" y="483" type="curve"/>
		</contour>
		<contour>
			<point x="609" y="626" type="line"/>
			<point x="609" y="613" type="line"/>
			<point x="590" y="582"/>
			<point x="554" y="538"/>
			<point x="523" y="513" type="curve"/>
			<point x="538" y="505"/>
			<point x="559" y="490"/>
			<point x="572" y="479" type="curve"/>
			<point x="609" y="506"/>
			<point x="657" y="553"/>
			<point x="686" y="595" type="curve"/>
			<point x="637" y="629" type="line"/>
			<point x="626" y="625" type="line"/>
		</contour>
	</outline>
</glyph>
<glyph name="爱字头" format="2">
	<unicode hex="E8C6"/>
	<advance width="1000"/>
	<outline>
		<contour>
			<point x="72" y="551" type="line"/>
			<point x="72" y="347" type="line"/>
			<point x="143" y="347" type="line"/>
			<point x="143" y="484" type="line"/>
			<point x="855" y="484" type="line"/>
			<point x="855" y="347" type="line"/>
			<point x="928" y="347" type="line"/>
			<point x="928" y="551" type="line"/>
		</contour>
		<contour>
			<point x="819" y="843" type="line"/>
			<point x="648" y="806"/>
			<point x="340" y="780"/>
			<point x="82" y="769" type="curve"/>
			<point x="89" y="752"/>
			<point x="98" y="723"/>
			<point x="99" y="704" type="curve"/>
			<point x="359" y="714"/>
			<point x="671" y="740"/>
			<point x="872" y="782" type="curve"/>
		</contour>
		<contour>
			<point x="165" y="683" type="line"/>
			<point x="192" y="641"/>
			<point x="221" y="584"/>
			<point x="232" y="548" type="curve"/>
			<point x="300" y="570" type="line"/>
			<point x="288" y="606"/>
			<point x="258" y="662"/>
			<point x="229" y="703" type="curve"/>
		</contour>
		<contour>
			<point x="430" y="705" type="line"/>
			<point x="453" y="658"/>
			<point x="474" y="595"/>
			<point x="480" y="556" type="curve"/>
			<point x="551" y="574" type="line"/>
			<point x="545" y="613"/>
			<point x="522" y="674"/>
			<point x="499" y="720" type="curve"/>
		</contour>
		<contour>
			<point x="773" y="722" type="line"/>
			<point x="749" y="665"/>
			<point x="705" y="585"/>
			<point x="670" y="535" type="curve"/>
			<point x="730" y="514" type="line"/>
			<point x="766" y="561"/>
			<point x="813" y="634"/>
			<point x="849" y="698" type="curve"/>
		</contour>
	</outline>
</glyph>
<glyph name="荧字头" format="2">
	<unicode hex="E916"/>
	<advance width="1000"/>
	<outline>
		<contour>
			<point x="60" y="750" type="line"/>
			<point x="60" y="683" type="line"/>
			<point x="943" y="683" type="line"/>
			<point x="943" y="750" type="line"/>
		</contour>
		<contour>
			<point x="290" y="840" type="line"/>
			<point x="290" y="590" type="line"/>
			<point x="367" y="590" type="line"/>
			<point x="367" y="840" type="line"/>
		</contour>
		<contour>
			<point x="631" y="840" type="line"/>
			<point x="631" y="590" type="line"/>
			<point x="708" y="590" type="line"/>
			<point x="708" y="840" type="line"/>
		</contour>
		<contour>
			<point x="79" y="550" type="line"/>
			<point x="79" y="374" type="line"/>
			<point x="153" y="374" type="line"/>
			<point x="153" y="483" type="line"/>
			<point x="842" y="483" type="line"/>
			<point x="842" y="377" type="line"/>
			<point x="918" y="377" type="line"/>
			<point x="918" y="550" type="line"/>
		</contour>
	</outline>
</glyph>
<glyph name="黄字底" format="2">
	<unicode hex="E982"/>
	<advance width="1000"/>
	<outline>
		<contour>
			<point x="463" y="551" type="line"/>
			<point x="463" y="132" type="line"/>
			<point x="540" y="132" type="line"/>
			<point x="540" y="551" type="line"/>
		</contour>
		<contour>
			<point x="238" y="249" type="line"/>
			<point x="772" y="249" type="line"/>
			<point x="772" y="159" type="line"/>
			<point x="238" y="159" type="line"/>
		</contour>
		<contour>
			<point x="238" y="390" type="line"/>
			<point x="772" y="390" type="line"/>
			<point x="772" y="302" type="line"/>
			<point x="238" y="302" type="line"/>
		</contour>
		<contour>
			<point x="166" y="446" type="line"/>
			<point x="166" y="103" type="line"/>
			<point x="847" y="103" type="line"/>
			<point x="847" y="446" type="line"/>
		</contour>
		<contour>
			<point x="595" y="39" type="line"/>
			<point x="707" y="0"/>
			<point x="821" y="-47"/>
			<point x="889" y="-81" type="curve"/>
			<point x="945" y="-30" type="line"/>
			<point x="871" y="3"/>
			<point x="750" y="50"/>
			<point x="639" y="87" type="curve"/>
		</contour>
		<contour>
			<point x="355" y="87" type="line"/>
			<point x="291" y="46"/>
			<point x="163" y="-2"/>
			<point x="61" y="-28" type="curve"/>
			<point x="78" y="-42"/>
			<point x="101" y="-66"/>
			<point x="113" y="-82" type="curve"/>
			<point x="215" y="-55"/>
			<point x="343" y="-6"/>
			<point x="423" y="44" type="curve"/>
		</contour>
	</outline>
</glyph>
<glyph name="兽字头" format="2">
	<unicode hex="E98A"/>
	<advance width="1000"/>
	<outline>
		<contour>
			<point x="381" y="589" type="qcurve"/>
			<point x="310" y="558" type="line"/>
			<point x="279" y="652"/>
			<point x="191" y="768" type="qcurve"/>
			<point x="254" y="795" type="line"/>
			<point x="293" y="748"/>
			<point x="363" y="632"/>
		</contour>
		<contour>
			<point x="786" y="295" type="line"/>
			<point x="516" y="295" type="line"/>
			<point x="516" y="466" type="line"/>
			<point x="786" y="466" type="line"/>
		</contour>
		<contour>
			<point x="516" y="46" type="line"/>
			<point x="516" y="226" type="line"/>
			<point x="786" y="226" type="line"/>
			<point x="786" y="46" type="line"/>
		</contour>
		<contour>
			<point x="187" y="226" type="line"/>
			<point x="446" y="226" type="line"/>
			<point x="446" y="46" type="line"/>
			<point x="187" y="46" type="line"/>
		</contour>
		<contour>
			<point x="446" y="466" type="line"/>
			<point x="446" y="295" type="line"/>
			<point x="187" y="295" type="line"/>
			<point x="187" y="466" type="line"/>
		</contour>
		<contour>
			<point x="734" y="815" type="qcurve"/>
			<point x="816" y="789" type="line"/>
			<point x="727" y="633"/>
			<point x="655" y="536" type="qcurve"/>
			<point x="859" y="536" type="line"/>
			<point x="859" y="-64" type="line"/>
			<point x="786" y="-64" type="line"/>
			<point x="786" y="-24" type="line"/>
			<point x="187" y="-24" type="line"/>
			<point x="187" y="-68" type="line"/>
			<point x="117" y="-68" type="line"/>
			<point x="117" y="536" type="line"/>
			<point x="642" y="536" type="line"/>
			<point x="587" y="559" type="line"/>
			<point x="626" y="610"/>
			<point x="709" y="755"/>
		</contour>
	</outline>
</glyph>
<glyph name="為无点" format="2">
	<unicode hex="EBBD"/>
	<advance width="1000"/>
	<outline>
		<contour>
			<point x="211" y="307" type="line"/>
			<point x="211" y="241" type="line"/>
			<point x="892" y="241" type="line"/>
			<point x="892" y="307" type="line"/>
		</contour>
		<contour>
			<point x="82" y="669" type="line"/>
			<point x="82" y="600" type="line"/>
			<point x="736" y="600" type="line"/>
			<point x="736" y="669" type="line"/>
		</contour>
		<contour>
			<point x="364" y="488" type="line"/>
			<point x="364" y="421" type="line"/>
			<point x="822" y="421" type="line"/>
			<point x="822" y="488" type="line"/>
		</contour>
		<contour>
			<point x="860" y="307" type="line"/>
			<point x="860" y="296" type="line"/>
			<point x="844" y="97"/>
			<point x="826" y="18"/>
			<point x="803" y="-4" type="curve"/>
			<point x="794" y="-13"/>
			<point x="784" y="-14"/>
			<point x="766" y="-14" type="curve"/>
			<point x="747" y="-14"/>
			<point x="699" y="-14"/>
			<point x="649" y="-9" type="curve"/>
			<point x="661" y="-29"/>
			<point x="669" y="-58"/>
			<point x="670" y="-78" type="curve"/>
			<point x="722" y="-81"/>
			<point x="771" y="-81"/>
			<point x="797" y="-79" type="curve"/>
			<point x="827" y="-77"/>
			<point x="846" y="-71"/>
			<point x="865" y="-52" type="curve"/>
			<point x="897" y="-19"/>
			<point x="916" y="65"/>
			<point x="935" y="276" type="curve"/>
			<point x="936" y="286"/>
			<point x="937" y="308"/>
			<point x="937" y="308" type="curve"/>
		</contour>
		<contour>
			<point x="640" y="188" type="line"/>
			<point x="670" y="146"/>
			<point x="701" y="88"/>
			<point x="713" y="51" type="curve"/>
			<point x="768" y="74" type="line"/>
			<point x="755" y="110"/>
			<point x="723" y="166"/>
			<point x="691" y="206" type="curve"/>
		</contour>
		<contour>
			<point x="342" y="162" type="line"/>
			<point x="359" y="97"/>
			<point x="370" y="14"/>
			<point x="368" y="-40" type="curve"/>
			<point x="434" y="-31" type="line"/>
			<point x="434" y="23"/>
			<point x="423" y="106"/>
			<point x="403" y="170" type="curve"/>
		</contour>
		<contour>
			<point x="489" y="171" type="line"/>
			<point x="513" y="115"/>
			<point x="537" y="42"/>
			<point x="544" y="-6" type="curve"/>
			<point x="606" y="11" type="line"/>
			<point x="598" y="58"/>
			<point x="573" y="130"/>
			<point x="547" y="185" type="curve"/>
		</contour>
		<contour>
			<point x="213" y="185" type="line"/>
			<point x="193" y="108"/>
			<point x="155" y="19"/>
			<point x="99" y="-34" type="curve"/>
			<point x="157" y="-74" type="line"/>
			<point x="217" y="-13"/>
			<point x="252" y="82"/>
			<point x="275" y="165" type="curve"/>
		</contour>
		<contour>
			<point x="507" y="841" type="line"/>
			<point x="431" y="582"/>
			<point x="277" y="326"/>
			<point x="28" y="185" type="curve"/>
			<point x="41" y="169"/>
			<point x="60" y="139"/>
			<point x="69" y="121" type="curve"/>
			<point x="334" y="278"/>
			<point x="492" y="542"/>
			<point x="582" y="822" type="curve"/>
		</contour>
		<contour>
			<point x="716" y="669" type="line"/>
			<point x="705" y="605"/>
			<point x="688" y="525"/>
			<point x="673" y="472" type="curve"/>
			<point x="740" y="462" type="line"/>
			<point x="755" y="516"/>
			<point x="773" y="599"/>
			<point x="787" y="668" type="curve"/>
		</contour>
		<contour>
			<point x="791" y="487" type="line"/>
			<point x="781" y="423"/>
			<point x="764" y="342"/>
			<point x="749" y="288" type="curve"/>
			<point x="817" y="280" type="line"/>
			<point x="832" y="334"/>
			<point x="849" y="418"/>
			<point x="862" y="487" type="curve"/>
		</contour>
	</outline>
</glyph>
<glyph name="微字框无一" format="2">
	<unicode hex="EBC2"/>
	<advance width="1000"/>
	<outline>
		<contour>
			<point x="716" y="634" type="line"/>
			<point x="690" y="569" type="line"/>
			<point x="961" y="569" type="line"/>
			<point x="961" y="634" type="line"/>
		</contour>
		<contour>
			<point x="713" y="839" type="line"/>
			<point x="696" y="672"/>
			<point x="665" y="509"/>
			<point x="604" y="404" type="curve"/>
			<point x="619" y="391"/>
			<point x="644" y="363"/>
			<point x="654" y="349" type="curve"/>
			<point x="723" y="466"/>
			<point x="761" y="643"/>
			<point x="783" y="828" type="curve"/>
		</contour>
		<contour>
			<point x="723" y="555" type="line"/>
			<point x="669" y="547" type="line"/>
			<point x="702" y="272"/>
			<point x="767" y="30"/>
			<point x="918" y="-77" type="curve"/>
			<point x="929" y="-59"/>
			<point x="952" y="-32"/>
			<point x="968" y="-19" type="curve"/>
			<point x="822" y="70"/>
			<point x="753" y="303"/>
			<point x="723" y="554" type="curve"/>
		</contour>
		<contour>
			<point x="862" y="598" type="line"/>
			<point x="832" y="299"/>
			<point x="760" y="91"/>
			<point x="569" y="-29" type="curve"/>
			<point x="582" y="-42"/>
			<point x="604" y="-70"/>
			<point x="612" y="-84" type="curve"/>
			<point x="813" y="53"/>
			<point x="892" y="270"/>
			<point x="927" y="593" type="curve"/>
		</contour>
		<contour>
			<point x="431" y="838" type="line"/>
			<point x="431" y="558" type="line"/>
			<point x="489" y="558" type="line"/>
			<point x="489" y="838" type="line"/>
		</contour>
		<contour>
			<point x="301" y="757" type="line"/>
			<point x="301" y="517" type="line"/>
			<point x="615" y="517" type="line"/>
			<point x="615" y="757" type="line"/>
			<point x="560" y="757" type="line"/>
			<point x="560" y="580" type="line"/>
			<point x="354" y="580" type="line"/>
			<point x="354" y="757" type="line"/>
		</contour>
		<contour>
			<point x="196" y="838" type="line"/>
			<point x="160" y="772"/>
			<point x="89" y="691"/>
			<point x="25" y="639" type="curve"/>
			<point x="37" y="626"/>
			<point x="57" y="598"/>
			<point x="66" y="583" type="curve"/>
			<point x="138" y="643"/>
			<point x="215" y="733"/>
			<point x="264" y="814" type="curve"/>
		</contour>
		<contour>
			<point x="217" y="639" type="line"/>
			<point x="167" y="534"/>
			<point x="89" y="427"/>
			<point x="14" y="355" type="curve"/>
			<point x="27" y="340"/>
			<point x="50" y="305"/>
			<point x="58" y="290" type="curve"/>
			<point x="140" y="372"/>
			<point x="226" y="498"/>
			<point x="284" y="616" type="curve"/>
		</contour>
		<contour>
			<point x="145" y="457" type="line"/>
			<point x="145" y="-79" type="line"/>
			<point x="214" y="-79" type="line"/>
			<point x="214" y="524" type="line"/>
			<point x="213" y="526" type="line"/>
		</contour>
	</outline>
</glyph>
<glyph name="寒字头无八" format="2">
	<unicode hex="EC07"/>
	<advance width="1000"/>
	<outline>
		<contour>
			<point x="319" y="676" type="line"/>
			<point x="319" y="317" type="line"/>
			<point x="394" y="317" type="line"/>
			<point x="394" y="676" type="line"/>
		</contour>
		<contour>
			<point x="608" y="676" type="line"/>
			<point x="608" y="317" type="line"/>
			<point x="684" y="317" type="line"/>
			<point x="684" y="676" type="line"/>
		</contour>
		<contour>
			<point x="160" y="608" type="line"/>
			<point x="160" y="552" type="line"/>
			<point x="839" y="552" type="line"/>
			<point x="839" y="608" type="line"/>
		</contour>
		<contour>
			<point x="177" y="479" type="line"/>
			<point x="177" y="424" type="line"/>
			<point x="820" y="424" type="line"/>
			<point x="820" y="479" type="line"/>
		</contour>
		<contour>
			<point x="60" y="349" type="line"/>
			<point x="60" y="288" type="line"/>
			<point x="945" y="288" type="line"/>
			<point x="945" y="349" type="line"/>
		</contour>
		<contour>
			<point x="76" y="765" type="line"/>
			<point x="76" y="583" type="line"/>
			<point x="150" y="583" type="line"/>
			<point x="150" y="701" type="line"/>
			<point x="850" y="701" type="line"/>
			<point x="850" y="583" type="line"/>
			<point x="926" y="583" type="line"/>
			<point x="926" y="765" type="line"/>
		</contour>
		<contour>
			<point x="440" y="826" type="line"/>
			<point x="459" y="793"/>
			<point x="480" y="747"/>
			<point x="488" y="717" type="curve"/>
			<point x="567" y="741" type="line"/>
			<point x="558" y="770"/>
			<point x="536" y="814"/>
			<point x="515" y="847" type="curve"/>
		</contour>
	</outline>
</glyph>
